<svg width="350" height="267" viewBox="0 0 350 267" fill="none" xmlns="http://www.w3.org/2000/svg">
    <rect x="0.5" y="0.5" width="349" height="266" rx="24.5" fill="white" stroke="#DFEAF2"/>
    <path d="M22.664 32.808L21.314 29.31C21.274 29.206 21.232 29.086 21.188 28.95C21.144 28.81 21.102 28.662 21.062 28.506C20.978 28.83 20.892 29.1 20.804 29.316L19.454 32.808H22.664ZM25.088 36H24.188C24.084 36 24 35.974 23.936 35.922C23.872 35.87 23.824 35.804 23.792 35.724L22.988 33.648H19.13L18.326 35.724C18.302 35.796 18.256 35.86 18.188 35.916C18.12 35.972 18.036 36 17.936 36H17.036L20.474 27.402H21.65L25.088 36ZM26.9517 30.804C27.0837 30.656 27.2237 30.522 27.3717 30.402C27.5197 30.282 27.6757 30.18 27.8397 30.096C28.0077 30.008 28.1837 29.942 28.3677 29.898C28.5557 29.85 28.7577 29.826 28.9737 29.826C29.3057 29.826 29.5977 29.882 29.8497 29.994C30.1057 30.102 30.3177 30.258 30.4857 30.462C30.6577 30.662 30.7877 30.904 30.8757 31.188C30.9637 31.472 31.0077 31.786 31.0077 32.13V36H29.9337V32.13C29.9337 31.67 29.8277 31.314 29.6157 31.062C29.4077 30.806 29.0897 30.678 28.6617 30.678C28.3457 30.678 28.0497 30.754 27.7737 30.906C27.5017 31.058 27.2497 31.264 27.0177 31.524V36H25.9437V29.922H26.5857C26.7377 29.922 26.8317 29.996 26.8677 30.144L26.9517 30.804ZM33.6431 30.804C33.7751 30.656 33.9151 30.522 34.0631 30.402C34.2111 30.282 34.3671 30.18 34.5311 30.096C34.6991 30.008 34.8751 29.942 35.0591 29.898C35.2471 29.85 35.4491 29.826 35.6651 29.826C35.9971 29.826 36.2891 29.882 36.5411 29.994C36.7971 30.102 37.0091 30.258 37.1771 30.462C37.3491 30.662 37.4791 30.904 37.5671 31.188C37.6551 31.472 37.6991 31.786 37.6991 32.13V36H36.6251V32.13C36.6251 31.67 36.5191 31.314 36.3071 31.062C36.0991 30.806 35.7811 30.678 35.3531 30.678C35.0371 30.678 34.7411 30.754 34.4651 30.906C34.1931 31.058 33.9411 31.264 33.7091 31.524V36H32.6351V29.922H33.2771C33.4291 29.922 33.5231 29.996 33.5591 30.144L33.6431 30.804ZM41.8885 29.826C42.3325 29.826 42.7325 29.9 43.0885 30.048C43.4445 30.196 43.7485 30.406 44.0005 30.678C44.2525 30.95 44.4445 31.28 44.5765 31.668C44.7125 32.052 44.7805 32.482 44.7805 32.958C44.7805 33.438 44.7125 33.87 44.5765 34.254C44.4445 34.638 44.2525 34.966 44.0005 35.238C43.7485 35.51 43.4445 35.72 43.0885 35.868C42.7325 36.012 42.3325 36.084 41.8885 36.084C41.4405 36.084 41.0365 36.012 40.6765 35.868C40.3205 35.72 40.0165 35.51 39.7645 35.238C39.5125 34.966 39.3185 34.638 39.1825 34.254C39.0505 33.87 38.9845 33.438 38.9845 32.958C38.9845 32.482 39.0505 32.052 39.1825 31.668C39.3185 31.28 39.5125 30.95 39.7645 30.678C40.0165 30.406 40.3205 30.196 40.6765 30.048C41.0365 29.9 41.4405 29.826 41.8885 29.826ZM41.8885 35.25C42.4885 35.25 42.9365 35.05 43.2325 34.65C43.5285 34.246 43.6765 33.684 43.6765 32.964C43.6765 32.24 43.5285 31.676 43.2325 31.272C42.9365 30.868 42.4885 30.666 41.8885 30.666C41.5845 30.666 41.3185 30.718 41.0905 30.822C40.8665 30.926 40.6785 31.076 40.5265 31.272C40.3785 31.468 40.2665 31.71 40.1905 31.998C40.1185 32.282 40.0825 32.604 40.0825 32.964C40.0825 33.684 40.2305 34.246 40.5265 34.65C40.8265 35.05 41.2805 35.25 41.8885 35.25ZM51.1331 29.922V36H50.4971C50.3451 36 50.2491 35.926 50.2091 35.778L50.1251 35.124C49.8611 35.416 49.5651 35.652 49.2371 35.832C48.9091 36.008 48.5331 36.096 48.1091 36.096C47.7771 36.096 47.4831 36.042 47.2271 35.934C46.9751 35.822 46.7631 35.666 46.5911 35.466C46.4191 35.266 46.2891 35.024 46.2011 34.74C46.1171 34.456 46.0751 34.142 46.0751 33.798V29.922H47.1431V33.798C47.1431 34.258 47.2471 34.614 47.4551 34.866C47.6671 35.118 47.9891 35.244 48.4211 35.244C48.7371 35.244 49.0311 35.17 49.3031 35.022C49.5791 34.87 49.8331 34.662 50.0651 34.398V29.922H51.1331ZM53.8345 30.804C53.9665 30.656 54.1065 30.522 54.2545 30.402C54.4025 30.282 54.5585 30.18 54.7225 30.096C54.8905 30.008 55.0665 29.942 55.2505 29.898C55.4385 29.85 55.6405 29.826 55.8565 29.826C56.1885 29.826 56.4805 29.882 56.7325 29.994C56.9885 30.102 57.2005 30.258 57.3685 30.462C57.5405 30.662 57.6705 30.904 57.7585 31.188C57.8465 31.472 57.8905 31.786 57.8905 32.13V36H56.8165V32.13C56.8165 31.67 56.7105 31.314 56.4985 31.062C56.2905 30.806 55.9725 30.678 55.5445 30.678C55.2285 30.678 54.9325 30.754 54.6565 30.906C54.3845 31.058 54.1325 31.264 53.9005 31.524V36H52.8265V29.922H53.4685C53.6205 29.922 53.7145 29.996 53.7505 30.144L53.8345 30.804ZM63.7479 31.002C63.7159 31.046 63.6839 31.08 63.6519 31.104C63.6199 31.128 63.5759 31.14 63.5199 31.14C63.4599 31.14 63.3939 31.116 63.3219 31.068C63.2499 31.016 63.1599 30.96 63.0519 30.9C62.9479 30.84 62.8179 30.786 62.6619 30.738C62.5099 30.686 62.3219 30.66 62.0979 30.66C61.7979 30.66 61.5339 30.714 61.3059 30.822C61.0779 30.926 60.8859 31.078 60.7299 31.278C60.5779 31.478 60.4619 31.72 60.3819 32.004C60.3059 32.288 60.2679 32.606 60.2679 32.958C60.2679 33.326 60.3099 33.654 60.3939 33.942C60.4779 34.226 60.5959 34.466 60.7479 34.662C60.9039 34.854 61.0899 35.002 61.3059 35.106C61.5259 35.206 61.7719 35.256 62.0439 35.256C62.3039 35.256 62.5179 35.226 62.6859 35.166C62.8539 35.102 62.9919 35.032 63.0999 34.956C63.2119 34.88 63.3039 34.812 63.3759 34.752C63.4519 34.688 63.5259 34.656 63.5979 34.656C63.6859 34.656 63.7539 34.69 63.8019 34.758L64.1019 35.148C63.9699 35.312 63.8199 35.452 63.6519 35.568C63.4839 35.684 63.3019 35.782 63.1059 35.862C62.9139 35.938 62.7119 35.994 62.4999 36.03C62.2879 36.066 62.0719 36.084 61.8519 36.084C61.4719 36.084 61.1179 36.014 60.7899 35.874C60.4659 35.734 60.1839 35.532 59.9439 35.268C59.7039 35 59.5159 34.672 59.3799 34.284C59.2439 33.896 59.1759 33.454 59.1759 32.958C59.1759 32.506 59.2379 32.088 59.3619 31.704C59.4899 31.32 59.6739 30.99 59.9139 30.714C60.1579 30.434 60.4559 30.216 60.8079 30.06C61.1639 29.904 61.5719 29.826 62.0319 29.826C62.4599 29.826 62.8359 29.896 63.1599 30.036C63.4879 30.172 63.7779 30.366 64.0299 30.618L63.7479 31.002ZM69.2109 32.298C69.2109 32.05 69.1749 31.824 69.1029 31.62C69.0349 31.412 68.9329 31.234 68.7969 31.086C68.6649 30.934 68.5029 30.818 68.3109 30.738C68.1189 30.654 67.9009 30.612 67.6569 30.612C67.1449 30.612 66.7389 30.762 66.4389 31.062C66.1429 31.358 65.9589 31.77 65.8869 32.298H69.2109ZM70.0749 35.148C69.9429 35.308 69.7849 35.448 69.6009 35.568C69.4169 35.684 69.2189 35.78 69.0069 35.856C68.7989 35.932 68.5829 35.988 68.3589 36.024C68.1349 36.064 67.9129 36.084 67.6929 36.084C67.2729 36.084 66.8849 36.014 66.5289 35.874C66.1769 35.73 65.8709 35.522 65.6109 35.25C65.3549 34.974 65.1549 34.634 65.0109 34.23C64.8669 33.826 64.7949 33.362 64.7949 32.838C64.7949 32.414 64.8589 32.018 64.9869 31.65C65.1189 31.282 65.3069 30.964 65.5509 30.696C65.7949 30.424 66.0929 30.212 66.4449 30.06C66.7969 29.904 67.1929 29.826 67.6329 29.826C67.9969 29.826 68.3329 29.888 68.6409 30.012C68.9529 30.132 69.2209 30.308 69.4449 30.54C69.6729 30.768 69.8509 31.052 69.9789 31.392C70.1069 31.728 70.1709 32.112 70.1709 32.544C70.1709 32.712 70.1529 32.824 70.1169 32.88C70.0809 32.936 70.0129 32.964 69.9129 32.964H65.8509C65.8629 33.348 65.9149 33.682 66.0069 33.966C66.1029 34.25 66.2349 34.488 66.4029 34.68C66.5709 34.868 66.7709 35.01 67.0029 35.106C67.2349 35.198 67.4949 35.244 67.7829 35.244C68.0509 35.244 68.2809 35.214 68.4729 35.154C68.6689 35.09 68.8369 35.022 68.9769 34.95C69.1169 34.878 69.2329 34.812 69.3249 34.752C69.4209 34.688 69.5029 34.656 69.5709 34.656C69.6589 34.656 69.7269 34.69 69.7749 34.758L70.0749 35.148ZM71.4827 36V29.922H72.1247C72.2767 29.922 72.3707 29.996 72.4067 30.144L72.4847 30.768C72.7087 30.492 72.9607 30.266 73.2407 30.09C73.5207 29.914 73.8447 29.826 74.2127 29.826C74.6207 29.826 74.9507 29.94 75.2027 30.168C75.4587 30.396 75.6427 30.704 75.7547 31.092C75.8427 30.872 75.9547 30.682 76.0907 30.522C76.2307 30.362 76.3867 30.23 76.5587 30.126C76.7307 30.022 76.9127 29.946 77.1047 29.898C77.3007 29.85 77.4987 29.826 77.6987 29.826C78.0187 29.826 78.3027 29.878 78.5507 29.982C78.8027 30.082 79.0147 30.23 79.1867 30.426C79.3627 30.622 79.4967 30.864 79.5887 31.152C79.6807 31.436 79.7267 31.762 79.7267 32.13V36H78.6527V32.13C78.6527 31.654 78.5487 31.294 78.3407 31.05C78.1327 30.802 77.8327 30.678 77.4407 30.678C77.2647 30.678 77.0967 30.71 76.9367 30.774C76.7807 30.834 76.6427 30.924 76.5227 31.044C76.4027 31.164 76.3067 31.316 76.2347 31.5C76.1667 31.68 76.1327 31.89 76.1327 32.13V36H75.0587V32.13C75.0587 31.642 74.9607 31.278 74.7647 31.038C74.5687 30.798 74.2827 30.678 73.9067 30.678C73.6427 30.678 73.3987 30.75 73.1747 30.894C72.9507 31.034 72.7447 31.226 72.5567 31.47V36H71.4827ZM85.4179 32.298C85.4179 32.05 85.3819 31.824 85.3099 31.62C85.2419 31.412 85.1399 31.234 85.0039 31.086C84.8719 30.934 84.7099 30.818 84.5179 30.738C84.3259 30.654 84.1079 30.612 83.8639 30.612C83.3519 30.612 82.9459 30.762 82.6459 31.062C82.3499 31.358 82.1659 31.77 82.0939 32.298H85.4179ZM86.2819 35.148C86.1499 35.308 85.9919 35.448 85.8079 35.568C85.6239 35.684 85.4259 35.78 85.2139 35.856C85.0059 35.932 84.7899 35.988 84.5659 36.024C84.3419 36.064 84.1199 36.084 83.8999 36.084C83.4799 36.084 83.0919 36.014 82.7359 35.874C82.3839 35.73 82.0779 35.522 81.8179 35.25C81.5619 34.974 81.3619 34.634 81.2179 34.23C81.0739 33.826 81.0019 33.362 81.0019 32.838C81.0019 32.414 81.0659 32.018 81.1939 31.65C81.3259 31.282 81.5139 30.964 81.7579 30.696C82.0019 30.424 82.2999 30.212 82.6519 30.06C83.0039 29.904 83.3999 29.826 83.8399 29.826C84.2039 29.826 84.5399 29.888 84.8479 30.012C85.1599 30.132 85.4279 30.308 85.6519 30.54C85.8799 30.768 86.0579 31.052 86.1859 31.392C86.3139 31.728 86.3779 32.112 86.3779 32.544C86.3779 32.712 86.3599 32.824 86.3239 32.88C86.2879 32.936 86.2199 32.964 86.1199 32.964H82.0579C82.0699 33.348 82.1219 33.682 82.2139 33.966C82.3099 34.25 82.4419 34.488 82.6099 34.68C82.7779 34.868 82.9779 35.01 83.2099 35.106C83.4419 35.198 83.7019 35.244 83.9899 35.244C84.2579 35.244 84.4879 35.214 84.6799 35.154C84.8759 35.09 85.0439 35.022 85.1839 34.95C85.3239 34.878 85.4399 34.812 85.5319 34.752C85.6279 34.688 85.7099 34.656 85.7779 34.656C85.8659 34.656 85.9339 34.69 85.9819 34.758L86.2819 35.148ZM88.6978 30.804C88.8298 30.656 88.9698 30.522 89.1178 30.402C89.2658 30.282 89.4218 30.18 89.5858 30.096C89.7538 30.008 89.9298 29.942 90.1138 29.898C90.3018 29.85 90.5038 29.826 90.7198 29.826C91.0518 29.826 91.3438 29.882 91.5958 29.994C91.8518 30.102 92.0638 30.258 92.2318 30.462C92.4038 30.662 92.5338 30.904 92.6218 31.188C92.7098 31.472 92.7538 31.786 92.7538 32.13V36H91.6798V32.13C91.6798 31.67 91.5738 31.314 91.3618 31.062C91.1538 30.806 90.8358 30.678 90.4078 30.678C90.0918 30.678 89.7958 30.754 89.5198 30.906C89.2478 31.058 88.9958 31.264 88.7638 31.524V36H87.6898V29.922H88.3318C88.4838 29.922 88.5778 29.996 88.6138 30.144L88.6978 30.804ZM96.1651 36.096C95.6851 36.096 95.3151 35.962 95.0551 35.694C94.7991 35.426 94.6711 35.04 94.6711 34.536V30.816H93.9391C93.8751 30.816 93.8211 30.798 93.7771 30.762C93.7331 30.722 93.7111 30.662 93.7111 30.582V30.156L94.7071 30.03L94.9531 28.152C94.9651 28.092 94.9911 28.044 95.0311 28.008C95.0751 27.968 95.1311 27.948 95.1991 27.948H95.7391V30.042H97.4971V30.816H95.7391V34.464C95.7391 34.72 95.8011 34.91 95.9251 35.034C96.0491 35.158 96.2091 35.22 96.4051 35.22C96.5171 35.22 96.6131 35.206 96.6931 35.178C96.7771 35.146 96.8491 35.112 96.9091 35.076C96.9691 35.04 97.0191 35.008 97.0591 34.98C97.1031 34.948 97.1411 34.932 97.1731 34.932C97.2291 34.932 97.2791 34.966 97.3231 35.034L97.6351 35.544C97.4511 35.716 97.2291 35.852 96.9691 35.952C96.7091 36.048 96.4411 36.096 96.1651 36.096ZM102.14 30.924C102.092 31.012 102.018 31.056 101.918 31.056C101.858 31.056 101.79 31.034 101.714 30.99C101.638 30.946 101.544 30.898 101.432 30.846C101.324 30.79 101.194 30.74 101.042 30.696C100.89 30.648 100.71 30.624 100.502 30.624C100.322 30.624 100.16 30.648 100.016 30.696C99.8719 30.74 99.7479 30.802 99.6439 30.882C99.5439 30.962 99.4659 31.056 99.4099 31.164C99.3579 31.268 99.3319 31.382 99.3319 31.506C99.3319 31.662 99.3759 31.792 99.4639 31.896C99.5559 32 99.6759 32.09 99.8239 32.166C99.9719 32.242 100.14 32.31 100.328 32.37C100.516 32.426 100.708 32.488 100.904 32.556C101.104 32.62 101.298 32.692 101.486 32.772C101.674 32.852 101.842 32.952 101.99 33.072C102.138 33.192 102.256 33.34 102.344 33.516C102.436 33.688 102.482 33.896 102.482 34.14C102.482 34.42 102.432 34.68 102.332 34.92C102.232 35.156 102.084 35.362 101.888 35.538C101.692 35.71 101.452 35.846 101.168 35.946C100.884 36.046 100.556 36.096 100.184 36.096C99.7599 36.096 99.3759 36.028 99.0319 35.892C98.6879 35.752 98.3959 35.574 98.1559 35.358L98.4079 34.95C98.4399 34.898 98.4779 34.858 98.5219 34.83C98.5659 34.802 98.6219 34.788 98.6899 34.788C98.7619 34.788 98.8379 34.816 98.9179 34.872C98.9979 34.928 99.0939 34.99 99.2059 35.058C99.3219 35.126 99.4619 35.188 99.6259 35.244C99.7899 35.3 99.9939 35.328 100.238 35.328C100.446 35.328 100.628 35.302 100.784 35.25C100.94 35.194 101.07 35.12 101.174 35.028C101.278 34.936 101.354 34.83 101.402 34.71C101.454 34.59 101.48 34.462 101.48 34.326C101.48 34.158 101.434 34.02 101.342 33.912C101.254 33.8 101.136 33.706 100.988 33.63C100.84 33.55 100.67 33.482 100.478 33.426C100.29 33.366 100.096 33.304 99.8959 33.24C99.6999 33.176 99.5059 33.104 99.3139 33.024C99.1259 32.94 98.9579 32.836 98.8099 32.712C98.6619 32.588 98.5419 32.436 98.4499 32.256C98.3619 32.072 98.3179 31.85 98.3179 31.59C98.3179 31.358 98.3659 31.136 98.4619 30.924C98.5579 30.708 98.6979 30.52 98.8819 30.36C99.0659 30.196 99.2919 30.066 99.5599 29.97C99.8279 29.874 100.134 29.826 100.478 29.826C100.878 29.826 101.236 29.89 101.552 30.018C101.872 30.142 102.148 30.314 102.38 30.534L102.14 30.924Z" fill="#FF767F"/>
    <path d="M316.5 35.3332H304.167C303.349 35.3332 302.565 35.658 301.986 36.2363C301.408 36.8145 301.083 37.5988 301.083 38.4165V44.5832C301.083 45.4009 301.408 46.1852 301.986 46.7634C302.565 47.3417 303.349 47.6665 304.167 47.6665H305.708V53.8332C305.708 54.242 305.871 54.6342 306.16 54.9233C306.449 55.2124 306.841 55.3748 307.25 55.3748H310.333C310.742 55.3748 311.134 55.2124 311.423 54.9233C311.712 54.6342 311.875 54.242 311.875 53.8332V47.6665H316.5L324.208 53.8332V29.1665L316.5 35.3332ZM331.146 41.4998C331.146 44.1361 329.666 46.5257 327.292 47.6665V35.3332C329.65 36.4894 331.146 38.879 331.146 41.4998Z" fill="#464246"/>
</svg>
