<svg width="27" height="25" viewBox="0 0 27 25" fill="none" xmlns="http://www.w3.org/2000/svg">
    <path d="M12.1641 25C9.9034 25 8.0625 23.2479 8.0625 21.0938C8.0625 20.6625 8.43 20.3125 8.88281 20.3125C9.33563 20.3125 9.70312 20.6625 9.70312 21.0938C9.70312 22.3866 10.8078 23.4375 12.1641 23.4375C13.5203 23.4375 14.625 22.3866 14.625 21.0938C14.625 20.6625 14.9925 20.3125 15.4453 20.3125C15.8981 20.3125 16.2656 20.6625 16.2656 21.0938C16.2656 23.2479 14.4249 25 12.1641 25Z" fill="#464246"/>
    <path d="M21.1874 21.875H3.14056C2.08513 21.875 1.22656 21.0573 1.22656 20.0521C1.22656 19.5187 1.47049 19.0136 1.89587 18.6666C1.92331 18.6438 1.95275 18.623 1.98339 18.6041C3.58897 17.2697 4.50781 15.35 4.50781 13.3228V10.4166C4.50781 6.39591 7.94327 3.125 12.164 3.125C12.339 3.125 12.5283 3.12805 12.7033 3.15628C13.1505 3.22704 13.4525 3.63026 13.378 4.05521C13.3037 4.48017 12.8728 4.7678 12.4342 4.69685C12.3466 4.6833 12.2505 4.6875 12.164 4.6875C8.8479 4.6875 6.14844 7.25727 6.14844 10.4166V13.3228C6.14844 15.8396 4.99007 18.2209 2.97333 19.8551C2.95691 19.8677 2.94269 19.8792 2.92507 19.8906C2.89563 19.9261 2.86719 19.9802 2.86719 20.0521C2.86719 20.1937 2.99196 20.3125 3.14056 20.3125H21.1874C21.3362 20.3125 21.461 20.1937 21.461 20.0521C21.461 19.9791 21.4326 19.9261 21.4019 19.8906C21.3855 19.8792 21.3713 19.8677 21.3549 19.8551C19.3369 18.2198 18.1798 15.8396 18.1798 13.3228V12.1876C18.1798 11.7563 18.5473 11.4063 19.0001 11.4063C19.4529 11.4063 19.8204 11.7563 19.8204 12.1876V13.3228C19.8204 15.3511 20.7402 17.2718 22.348 18.6073C22.3774 18.626 22.4059 18.6459 22.4321 18.6678C22.8577 19.0136 23.1016 19.5187 23.1016 20.0521C23.1016 21.0573 22.2431 21.875 21.1874 21.875Z" fill="#464246"/>
    <path d="M19.8204 10.4166C16.8049 10.4166 14.3516 8.08029 14.3516 5.2084C14.3516 2.3365 16.8049 0 19.8204 0C22.8359 0 25.289 2.3365 25.289 5.2084C25.289 8.08029 22.8359 10.4166 19.8204 10.4166ZM19.8204 1.5625C17.7093 1.5625 15.9922 3.19786 15.9922 5.2084C15.9922 7.21874 17.7093 8.8541 19.8204 8.8541C21.9312 8.8541 23.6484 7.21874 23.6484 5.2084C23.6484 3.19786 21.9312 1.5625 19.8204 1.5625Z" fill="#464246"/>
</svg>
