<svg width="664" height="425" viewBox="0 0 664 425" fill="none" xmlns="http://www.w3.org/2000/svg">
    <rect x="0.5" y="0.5" width="663" height="424" rx="24.5" fill="white" stroke="#DFEAF2"/>
    <line x1="78.3283" y1="95.6228" x2="240.328" y2="236.623" stroke="#079FFF"/>
    <line x1="260.497" y1="59.0558" x2="240.497" y2="237.056" stroke="#079FFF"/>
    <line x1="118.75" y1="306.567" x2="239.75" y2="236.567" stroke="#079FFF"/>
    <line x1="345.593" y1="386.29" x2="239.593" y2="237.29" stroke="#079FFF"/>
    <line x1="400.317" y1="106.387" x2="240.317" y2="237.387" stroke="#079FFF"/>
    <line x1="585.778" y1="198.448" x2="399.778" y2="106.448" stroke="#079FFF"/>
    <line x1="586.056" y1="198.497" x2="240.056" y2="237.497" stroke="#FE414D" stroke-dasharray="6 6"/>
    <line x1="586.308" y1="198.394" x2="346.308" y2="386.394" stroke="#079FFF"/>
    <circle cx="240" cy="237" r="10" fill="#FFE63B"/>
    <circle cx="400" cy="106" r="10" fill="#079FFF"/>
    <circle cx="346" cy="385" r="10" fill="#079FFF"/>
    <circle cx="119" cy="307" r="10" fill="#079FFF"/>
    <circle cx="78" cy="96" r="10" fill="#079FFF"/>
    <circle cx="260" cy="59" r="10" fill="#079FFF"/>
    <circle cx="586" cy="195" r="10" fill="#079FFF"/>
    <path fill-rule="evenodd" clip-rule="evenodd" d="M609.234 27.4844C609.269 27.4495 609.311 27.4218 609.356 27.4029C609.402 27.384 609.451 27.3743 609.5 27.3743C609.549 27.3743 609.598 27.384 609.644 27.4029C609.689 27.4218 609.731 27.4495 609.765 27.4844L614 31.7197L618.234 27.4844C618.269 27.4496 618.311 27.4219 618.356 27.403C618.402 27.3842 618.451 27.3745 618.5 27.3745C618.549 27.3745 618.598 27.3842 618.644 27.403C618.689 27.4219 618.731 27.4496 618.765 27.4844C618.8 27.5193 618.828 27.5607 618.847 27.6063C618.866 27.6518 618.875 27.7006 618.875 27.7499C618.875 27.7992 618.866 27.8481 618.847 27.8936C618.828 27.9392 618.8 27.9806 618.765 28.0154L614.265 32.5154C614.231 32.5504 614.189 32.5781 614.144 32.597C614.098 32.6159 614.049 32.6256 614 32.6256C613.951 32.6256 613.902 32.6159 613.856 32.597C613.811 32.5781 613.769 32.5504 613.734 32.5154L609.234 28.0154C609.2 27.9806 609.172 27.9392 609.153 27.8937C609.134 27.8481 609.124 27.7993 609.124 27.7499C609.124 27.7006 609.134 27.6518 609.153 27.6062C609.172 27.5607 609.2 27.5193 609.234 27.4844Z" fill="#464246"/>
    <path d="M567.759 34V25.2727H573.537V26.794H569.604V28.8736H573.153V30.3949H569.604V34H567.759ZM574.744 34V27.4545H576.559V34H574.744ZM575.656 26.6108C575.386 26.6108 575.154 26.5213 574.961 26.3423C574.771 26.1605 574.676 25.9432 574.676 25.6903C574.676 25.4403 574.771 25.2259 574.961 25.0469C575.154 24.8651 575.386 24.7741 575.656 24.7741C575.926 24.7741 576.156 24.8651 576.346 25.0469C576.539 25.2259 576.636 25.4403 576.636 25.6903C576.636 25.9432 576.539 26.1605 576.346 26.3423C576.156 26.5213 575.926 26.6108 575.656 26.6108ZM579.829 25.2727V34H578.013V25.2727H579.829ZM584.765 27.4545V28.8182H580.823V27.4545H584.765ZM581.718 25.8864H583.533V31.9886C583.533 32.1562 583.559 32.2869 583.61 32.3807C583.661 32.4716 583.732 32.5355 583.823 32.5724C583.917 32.6094 584.025 32.6278 584.147 32.6278C584.232 32.6278 584.317 32.6207 584.402 32.6065C584.488 32.5895 584.553 32.5767 584.598 32.5682L584.884 33.919C584.793 33.9474 584.665 33.9801 584.5 34.017C584.336 34.0568 584.135 34.081 583.9 34.0895C583.462 34.1065 583.078 34.0483 582.749 33.9148C582.422 33.7812 582.168 33.5739 581.986 33.2926C581.804 33.0114 581.715 32.6562 581.718 32.2273V25.8864ZM588.86 34.1278C588.186 34.1278 587.607 33.9915 587.121 33.7188C586.638 33.4432 586.266 33.054 586.005 32.5511C585.743 32.0455 585.613 31.4474 585.613 30.7571C585.613 30.0838 585.743 29.4929 586.005 28.9844C586.266 28.4759 586.634 28.0795 587.108 27.7955C587.586 27.5114 588.145 27.3693 588.787 27.3693C589.219 27.3693 589.621 27.4389 589.993 27.5781C590.368 27.7145 590.695 27.9205 590.973 28.196C591.255 28.4716 591.473 28.8182 591.63 29.2358C591.786 29.6506 591.864 30.1364 591.864 30.6932V31.1918H586.337V30.0668H590.155C590.155 29.8054 590.098 29.5739 589.985 29.3722C589.871 29.1705 589.713 29.0128 589.512 28.8991C589.313 28.7827 589.081 28.7244 588.817 28.7244C588.542 28.7244 588.297 28.7884 588.084 28.9162C587.874 29.0412 587.709 29.2102 587.59 29.4233C587.471 29.6335 587.409 29.8679 587.407 30.1264V31.196C587.407 31.5199 587.466 31.7997 587.586 32.0355C587.708 32.2713 587.88 32.4531 588.101 32.581C588.323 32.7088 588.586 32.7727 588.89 32.7727C589.091 32.7727 589.276 32.7443 589.444 32.6875C589.611 32.6307 589.755 32.5455 589.874 32.4318C589.993 32.3182 590.084 32.179 590.147 32.0142L591.826 32.125C591.74 32.5284 591.566 32.8807 591.301 33.1818C591.04 33.4801 590.702 33.7131 590.287 33.8807C589.875 34.0455 589.4 34.1278 588.86 34.1278ZM593.049 34V27.4545H594.809V28.5966H594.877C594.996 28.1903 595.196 27.8835 595.478 27.6761C595.759 27.4659 596.083 27.3608 596.449 27.3608C596.54 27.3608 596.638 27.3665 596.743 27.3778C596.848 27.3892 596.941 27.4048 597.02 27.4247V29.0355C596.935 29.0099 596.817 28.9872 596.667 28.9673C596.516 28.9474 596.378 28.9375 596.253 28.9375C595.986 28.9375 595.748 28.9957 595.537 29.1122C595.33 29.2259 595.165 29.3849 595.043 29.5895C594.924 29.794 594.864 30.0298 594.864 30.2969V34H593.049ZM603.405 29.321L601.743 29.4233C601.714 29.2812 601.653 29.1534 601.56 29.0398C601.466 28.9233 601.342 28.831 601.189 28.7628C601.038 28.6918 600.858 28.6562 600.648 28.6562C600.366 28.6562 600.129 28.7159 599.936 28.8352C599.743 28.9517 599.646 29.108 599.646 29.304C599.646 29.4602 599.709 29.5923 599.834 29.7003C599.959 29.8082 600.173 29.8949 600.477 29.9602L601.662 30.1989C602.298 30.3295 602.773 30.5398 603.085 30.8295C603.398 31.1193 603.554 31.5 603.554 31.9716C603.554 32.4006 603.428 32.777 603.175 33.1009C602.925 33.4247 602.581 33.6776 602.143 33.8594C601.709 34.0384 601.207 34.1278 600.639 34.1278C599.773 34.1278 599.082 33.9474 598.568 33.5866C598.057 33.223 597.757 32.7287 597.669 32.1037L599.455 32.0099C599.509 32.2741 599.639 32.4759 599.847 32.6151C600.054 32.7514 600.32 32.8196 600.643 32.8196C600.962 32.8196 601.217 32.7585 601.411 32.6364C601.607 32.5114 601.706 32.3509 601.709 32.1548C601.706 31.9901 601.636 31.8551 601.5 31.75C601.364 31.642 601.153 31.5597 600.869 31.5028L599.736 31.277C599.097 31.1491 598.621 30.9276 598.308 30.6122C597.999 30.2969 597.844 29.8949 597.844 29.4062C597.844 28.9858 597.957 28.6236 598.185 28.3196C598.415 28.0156 598.737 27.7812 599.152 27.6165C599.57 27.4517 600.058 27.3693 600.618 27.3693C601.445 27.3693 602.095 27.544 602.57 27.8935C603.047 28.2429 603.325 28.7187 603.405 29.321Z" fill="#464246"/>
    <path d="M33.134 34.224C33.198 34.224 33.254 34.25 33.302 34.302L33.764 34.8C33.412 35.208 32.984 35.526 32.48 35.754C31.98 35.982 31.374 36.096 30.662 36.096C30.046 36.096 29.486 35.99 28.982 35.778C28.478 35.562 28.048 35.262 27.692 34.878C27.336 34.49 27.06 34.026 26.864 33.486C26.668 32.946 26.57 32.352 26.57 31.704C26.57 31.056 26.672 30.462 26.876 29.922C27.08 29.382 27.366 28.918 27.734 28.53C28.106 28.142 28.55 27.842 29.066 27.63C29.582 27.414 30.152 27.306 30.776 27.306C31.388 27.306 31.928 27.404 32.396 27.6C32.864 27.796 33.276 28.062 33.632 28.398L33.248 28.932C33.224 28.972 33.192 29.006 33.152 29.034C33.116 29.058 33.066 29.07 33.002 29.07C32.93 29.07 32.842 29.032 32.738 28.956C32.634 28.876 32.498 28.788 32.33 28.692C32.162 28.596 31.952 28.51 31.7 28.434C31.448 28.354 31.138 28.314 30.77 28.314C30.326 28.314 29.92 28.392 29.552 28.548C29.184 28.7 28.866 28.922 28.598 29.214C28.334 29.506 28.128 29.862 27.98 30.282C27.832 30.702 27.758 31.176 27.758 31.704C27.758 32.24 27.834 32.718 27.986 33.138C28.142 33.558 28.352 33.914 28.616 34.206C28.884 34.494 29.198 34.714 29.558 34.866C29.922 35.018 30.314 35.094 30.734 35.094C30.99 35.094 31.22 35.08 31.424 35.052C31.632 35.02 31.822 34.972 31.994 34.908C32.17 34.844 32.332 34.764 32.48 34.668C32.632 34.568 32.782 34.45 32.93 34.314C32.998 34.254 33.066 34.224 33.134 34.224ZM37.3064 29.826C37.7504 29.826 38.1504 29.9 38.5064 30.048C38.8624 30.196 39.1664 30.406 39.4184 30.678C39.6704 30.95 39.8624 31.28 39.9944 31.668C40.1304 32.052 40.1984 32.482 40.1984 32.958C40.1984 33.438 40.1304 33.87 39.9944 34.254C39.8624 34.638 39.6704 34.966 39.4184 35.238C39.1664 35.51 38.8624 35.72 38.5064 35.868C38.1504 36.012 37.7504 36.084 37.3064 36.084C36.8584 36.084 36.4544 36.012 36.0944 35.868C35.7384 35.72 35.4344 35.51 35.1824 35.238C34.9304 34.966 34.7364 34.638 34.6004 34.254C34.4684 33.87 34.4024 33.438 34.4024 32.958C34.4024 32.482 34.4684 32.052 34.6004 31.668C34.7364 31.28 34.9304 30.95 35.1824 30.678C35.4344 30.406 35.7384 30.196 36.0944 30.048C36.4544 29.9 36.8584 29.826 37.3064 29.826ZM37.3064 35.25C37.9064 35.25 38.3544 35.05 38.6504 34.65C38.9464 34.246 39.0944 33.684 39.0944 32.964C39.0944 32.24 38.9464 31.676 38.6504 31.272C38.3544 30.868 37.9064 30.666 37.3064 30.666C37.0024 30.666 36.7364 30.718 36.5084 30.822C36.2844 30.926 36.0964 31.076 35.9444 31.272C35.7964 31.468 35.6844 31.71 35.6084 31.998C35.5364 32.282 35.5004 32.604 35.5004 32.964C35.5004 33.684 35.6484 34.246 35.9444 34.65C36.2444 35.05 36.6984 35.25 37.3064 35.25ZM42.561 30.804C42.693 30.656 42.833 30.522 42.981 30.402C43.129 30.282 43.285 30.18 43.449 30.096C43.617 30.008 43.793 29.942 43.977 29.898C44.165 29.85 44.367 29.826 44.583 29.826C44.915 29.826 45.207 29.882 45.459 29.994C45.715 30.102 45.927 30.258 46.095 30.462C46.267 30.662 46.397 30.904 46.485 31.188C46.573 31.472 46.617 31.786 46.617 32.13V36H45.543V32.13C45.543 31.67 45.437 31.314 45.225 31.062C45.017 30.806 44.699 30.678 44.271 30.678C43.955 30.678 43.659 30.754 43.383 30.906C43.111 31.058 42.859 31.264 42.627 31.524V36H41.553V29.922H42.195C42.347 29.922 42.441 29.996 42.477 30.144L42.561 30.804ZM49.2524 30.804C49.3844 30.656 49.5244 30.522 49.6724 30.402C49.8204 30.282 49.9764 30.18 50.1404 30.096C50.3084 30.008 50.4844 29.942 50.6684 29.898C50.8564 29.85 51.0584 29.826 51.2744 29.826C51.6064 29.826 51.8984 29.882 52.1504 29.994C52.4064 30.102 52.6184 30.258 52.7864 30.462C52.9584 30.662 53.0884 30.904 53.1764 31.188C53.2644 31.472 53.3084 31.786 53.3084 32.13V36H52.2344V32.13C52.2344 31.67 52.1284 31.314 51.9164 31.062C51.7084 30.806 51.3904 30.678 50.9624 30.678C50.6464 30.678 50.3504 30.754 50.0744 30.906C49.8024 31.058 49.5504 31.264 49.3184 31.524V36H48.2444V29.922H48.8864C49.0384 29.922 49.1324 29.996 49.1684 30.144L49.2524 30.804ZM59.0038 32.298C59.0038 32.05 58.9678 31.824 58.8958 31.62C58.8278 31.412 58.7258 31.234 58.5898 31.086C58.4578 30.934 58.2958 30.818 58.1038 30.738C57.9118 30.654 57.6938 30.612 57.4498 30.612C56.9378 30.612 56.5318 30.762 56.2318 31.062C55.9358 31.358 55.7518 31.77 55.6798 32.298H59.0038ZM59.8678 35.148C59.7358 35.308 59.5778 35.448 59.3938 35.568C59.2098 35.684 59.0118 35.78 58.7998 35.856C58.5918 35.932 58.3758 35.988 58.1518 36.024C57.9278 36.064 57.7058 36.084 57.4858 36.084C57.0658 36.084 56.6778 36.014 56.3218 35.874C55.9698 35.73 55.6638 35.522 55.4038 35.25C55.1478 34.974 54.9478 34.634 54.8038 34.23C54.6598 33.826 54.5878 33.362 54.5878 32.838C54.5878 32.414 54.6518 32.018 54.7798 31.65C54.9118 31.282 55.0998 30.964 55.3438 30.696C55.5878 30.424 55.8858 30.212 56.2378 30.06C56.5898 29.904 56.9858 29.826 57.4258 29.826C57.7898 29.826 58.1258 29.888 58.4338 30.012C58.7458 30.132 59.0138 30.308 59.2378 30.54C59.4658 30.768 59.6438 31.052 59.7718 31.392C59.8998 31.728 59.9638 32.112 59.9638 32.544C59.9638 32.712 59.9458 32.824 59.9098 32.88C59.8738 32.936 59.8058 32.964 59.7058 32.964H55.6438C55.6558 33.348 55.7078 33.682 55.7998 33.966C55.8958 34.25 56.0278 34.488 56.1958 34.68C56.3638 34.868 56.5638 35.01 56.7958 35.106C57.0278 35.198 57.2878 35.244 57.5758 35.244C57.8438 35.244 58.0738 35.214 58.2658 35.154C58.4618 35.09 58.6298 35.022 58.7698 34.95C58.9098 34.878 59.0258 34.812 59.1178 34.752C59.2138 34.688 59.2958 34.656 59.3638 34.656C59.4518 34.656 59.5198 34.69 59.5678 34.758L59.8678 35.148ZM65.5057 31.002C65.4737 31.046 65.4417 31.08 65.4097 31.104C65.3777 31.128 65.3337 31.14 65.2777 31.14C65.2177 31.14 65.1517 31.116 65.0797 31.068C65.0077 31.016 64.9177 30.96 64.8097 30.9C64.7057 30.84 64.5757 30.786 64.4197 30.738C64.2677 30.686 64.0797 30.66 63.8557 30.66C63.5557 30.66 63.2917 30.714 63.0637 30.822C62.8357 30.926 62.6437 31.078 62.4877 31.278C62.3357 31.478 62.2197 31.72 62.1397 32.004C62.0637 32.288 62.0257 32.606 62.0257 32.958C62.0257 33.326 62.0677 33.654 62.1517 33.942C62.2357 34.226 62.3537 34.466 62.5057 34.662C62.6617 34.854 62.8477 35.002 63.0637 35.106C63.2837 35.206 63.5297 35.256 63.8017 35.256C64.0617 35.256 64.2757 35.226 64.4437 35.166C64.6117 35.102 64.7497 35.032 64.8577 34.956C64.9697 34.88 65.0617 34.812 65.1337 34.752C65.2097 34.688 65.2837 34.656 65.3557 34.656C65.4437 34.656 65.5117 34.69 65.5597 34.758L65.8597 35.148C65.7277 35.312 65.5777 35.452 65.4097 35.568C65.2417 35.684 65.0597 35.782 64.8637 35.862C64.6717 35.938 64.4697 35.994 64.2577 36.03C64.0457 36.066 63.8297 36.084 63.6097 36.084C63.2297 36.084 62.8757 36.014 62.5477 35.874C62.2237 35.734 61.9417 35.532 61.7017 35.268C61.4617 35 61.2737 34.672 61.1377 34.284C61.0017 33.896 60.9337 33.454 60.9337 32.958C60.9337 32.506 60.9957 32.088 61.1197 31.704C61.2477 31.32 61.4317 30.99 61.6717 30.714C61.9157 30.434 62.2137 30.216 62.5657 30.06C62.9217 29.904 63.3297 29.826 63.7897 29.826C64.2177 29.826 64.5937 29.896 64.9177 30.036C65.2457 30.172 65.5357 30.366 65.7877 30.618L65.5057 31.002ZM72.6462 36H71.5782V30.816H68.4462V34.464C68.4462 34.72 68.5082 34.91 68.6322 35.034C68.7562 35.158 68.9162 35.22 69.1122 35.22C69.2242 35.22 69.3202 35.206 69.4002 35.178C69.4842 35.146 69.5562 35.112 69.6162 35.076C69.6762 35.04 69.7262 35.008 69.7662 34.98C69.8102 34.948 69.8482 34.932 69.8802 34.932C69.9362 34.932 69.9862 34.966 70.0302 35.034L70.3422 35.544C70.1582 35.716 69.9362 35.852 69.6762 35.952C69.4162 36.048 69.1482 36.096 68.8722 36.096C68.3922 36.096 68.0222 35.962 67.7622 35.694C67.5062 35.426 67.3782 35.04 67.3782 34.536V30.816H66.6462C66.5822 30.816 66.5282 30.798 66.4842 30.762C66.4402 30.722 66.4182 30.662 66.4182 30.582V30.156L67.4142 30.024L67.6602 28.152C67.6722 28.092 67.6982 28.044 67.7382 28.008C67.7822 27.968 67.8382 27.948 67.9062 27.948H68.4462V30.042H72.6462V36ZM72.9102 27.972C72.9102 28.076 72.8882 28.174 72.8442 28.266C72.8042 28.354 72.7482 28.432 72.6762 28.5C72.6082 28.568 72.5282 28.622 72.4362 28.662C72.3442 28.702 72.2462 28.722 72.1422 28.722C72.0382 28.722 71.9402 28.702 71.8482 28.662C71.7602 28.622 71.6822 28.568 71.6142 28.5C71.5462 28.432 71.4922 28.354 71.4522 28.266C71.4122 28.174 71.3922 28.076 71.3922 27.972C71.3922 27.868 71.4122 27.77 71.4522 27.678C71.4922 27.582 71.5462 27.5 71.6142 27.432C71.6822 27.36 71.7602 27.304 71.8482 27.264C71.9402 27.224 72.0382 27.204 72.1422 27.204C72.2462 27.204 72.3442 27.224 72.4362 27.264C72.5282 27.304 72.6082 27.36 72.6762 27.432C72.7482 27.5 72.8042 27.582 72.8442 27.678C72.8882 27.77 72.9102 27.868 72.9102 27.972ZM76.9627 29.826C77.4067 29.826 77.8067 29.9 78.1627 30.048C78.5187 30.196 78.8227 30.406 79.0747 30.678C79.3267 30.95 79.5187 31.28 79.6507 31.668C79.7867 32.052 79.8547 32.482 79.8547 32.958C79.8547 33.438 79.7867 33.87 79.6507 34.254C79.5187 34.638 79.3267 34.966 79.0747 35.238C78.8227 35.51 78.5187 35.72 78.1627 35.868C77.8067 36.012 77.4067 36.084 76.9627 36.084C76.5147 36.084 76.1107 36.012 75.7507 35.868C75.3947 35.72 75.0907 35.51 74.8387 35.238C74.5867 34.966 74.3927 34.638 74.2567 34.254C74.1247 33.87 74.0587 33.438 74.0587 32.958C74.0587 32.482 74.1247 32.052 74.2567 31.668C74.3927 31.28 74.5867 30.95 74.8387 30.678C75.0907 30.406 75.3947 30.196 75.7507 30.048C76.1107 29.9 76.5147 29.826 76.9627 29.826ZM76.9627 35.25C77.5627 35.25 78.0107 35.05 78.3067 34.65C78.6027 34.246 78.7507 33.684 78.7507 32.964C78.7507 32.24 78.6027 31.676 78.3067 31.272C78.0107 30.868 77.5627 30.666 76.9627 30.666C76.6587 30.666 76.3927 30.718 76.1647 30.822C75.9407 30.926 75.7527 31.076 75.6007 31.272C75.4527 31.468 75.3407 31.71 75.2647 31.998C75.1927 32.282 75.1567 32.604 75.1567 32.964C75.1567 33.684 75.3047 34.246 75.6007 34.65C75.9007 35.05 76.3547 35.25 76.9627 35.25ZM82.2173 30.804C82.3493 30.656 82.4893 30.522 82.6373 30.402C82.7853 30.282 82.9413 30.18 83.1053 30.096C83.2733 30.008 83.4493 29.942 83.6333 29.898C83.8213 29.85 84.0233 29.826 84.2393 29.826C84.5713 29.826 84.8633 29.882 85.1153 29.994C85.3713 30.102 85.5833 30.258 85.7513 30.462C85.9233 30.662 86.0533 30.904 86.1413 31.188C86.2293 31.472 86.2733 31.786 86.2733 32.13V36H85.1993V32.13C85.1993 31.67 85.0933 31.314 84.8813 31.062C84.6733 30.806 84.3553 30.678 83.9273 30.678C83.6113 30.678 83.3153 30.754 83.0393 30.906C82.7673 31.058 82.5153 31.264 82.2833 31.524V36H81.2093V29.922H81.8513C82.0033 29.922 82.0973 29.996 82.1333 30.144L82.2173 30.804ZM91.4407 30.924C91.3927 31.012 91.3187 31.056 91.2187 31.056C91.1587 31.056 91.0907 31.034 91.0147 30.99C90.9387 30.946 90.8447 30.898 90.7327 30.846C90.6247 30.79 90.4947 30.74 90.3427 30.696C90.1907 30.648 90.0107 30.624 89.8027 30.624C89.6227 30.624 89.4607 30.648 89.3167 30.696C89.1727 30.74 89.0487 30.802 88.9447 30.882C88.8447 30.962 88.7667 31.056 88.7107 31.164C88.6587 31.268 88.6327 31.382 88.6327 31.506C88.6327 31.662 88.6767 31.792 88.7647 31.896C88.8567 32 88.9767 32.09 89.1247 32.166C89.2727 32.242 89.4407 32.31 89.6287 32.37C89.8167 32.426 90.0087 32.488 90.2047 32.556C90.4047 32.62 90.5987 32.692 90.7867 32.772C90.9747 32.852 91.1427 32.952 91.2907 33.072C91.4387 33.192 91.5567 33.34 91.6447 33.516C91.7367 33.688 91.7827 33.896 91.7827 34.14C91.7827 34.42 91.7327 34.68 91.6327 34.92C91.5327 35.156 91.3847 35.362 91.1887 35.538C90.9927 35.71 90.7527 35.846 90.4687 35.946C90.1847 36.046 89.8567 36.096 89.4847 36.096C89.0607 36.096 88.6767 36.028 88.3327 35.892C87.9887 35.752 87.6967 35.574 87.4567 35.358L87.7087 34.95C87.7407 34.898 87.7787 34.858 87.8227 34.83C87.8667 34.802 87.9227 34.788 87.9907 34.788C88.0627 34.788 88.1387 34.816 88.2187 34.872C88.2987 34.928 88.3947 34.99 88.5067 35.058C88.6227 35.126 88.7627 35.188 88.9267 35.244C89.0907 35.3 89.2947 35.328 89.5387 35.328C89.7467 35.328 89.9287 35.302 90.0847 35.25C90.2407 35.194 90.3707 35.12 90.4747 35.028C90.5787 34.936 90.6547 34.83 90.7027 34.71C90.7547 34.59 90.7807 34.462 90.7807 34.326C90.7807 34.158 90.7347 34.02 90.6427 33.912C90.5547 33.8 90.4367 33.706 90.2887 33.63C90.1407 33.55 89.9707 33.482 89.7787 33.426C89.5907 33.366 89.3967 33.304 89.1967 33.24C89.0007 33.176 88.8067 33.104 88.6147 33.024C88.4267 32.94 88.2587 32.836 88.1107 32.712C87.9627 32.588 87.8427 32.436 87.7507 32.256C87.6627 32.072 87.6187 31.85 87.6187 31.59C87.6187 31.358 87.6667 31.136 87.7627 30.924C87.8587 30.708 87.9987 30.52 88.1827 30.36C88.3667 30.196 88.5927 30.066 88.8607 29.97C89.1287 29.874 89.4347 29.826 89.7787 29.826C90.1787 29.826 90.5367 29.89 90.8527 30.018C91.1727 30.142 91.4487 30.314 91.6807 30.534L91.4407 30.924Z" fill="#FF767F"/>
</svg>
