<svg width="664" height="425" viewBox="0 0 664 425" fill="none" xmlns="http://www.w3.org/2000/svg">
    <rect x="0.5" y="0.5" width="663" height="424" rx="24.5" fill="white" stroke="#DFEAF2"/>
    <line x1="78.3283" y1="95.6228" x2="240.328" y2="236.623" stroke="#079FFF"/>
    <line x1="260.497" y1="59.0558" x2="240.497" y2="237.056" stroke="#079FFF"/>
    <line x1="118.75" y1="306.567" x2="239.75" y2="236.567" stroke="#079FFF"/>
    <line x1="360.662" y1="348.368" x2="239.662" y2="237.368" stroke="#079FFF"/>
    <line x1="400.317" y1="106.387" x2="240.317" y2="237.387" stroke="#079FFF"/>
    <line x1="585.778" y1="198.448" x2="399.778" y2="106.448" stroke="#079FFF"/>
    <line x1="586.056" y1="198.497" x2="240.056" y2="237.497" stroke="#FE414D" stroke-dasharray="6 6"/>
    <line x1="586.28" y1="198.414" x2="361.28" y2="350.414" stroke="#079FFF"/>
    <circle cx="240" cy="237" r="10" fill="#FFE63B"/>
    <circle cx="400" cy="106" r="10" fill="#079FFF"/>
    <circle cx="361" cy="348" r="10" fill="#079FFF"/>
    <circle cx="119" cy="307" r="10" fill="#079FFF"/>
    <circle cx="78" cy="96" r="10" fill="#079FFF"/>
    <circle cx="260" cy="59" r="10" fill="#079FFF"/>
    <circle cx="586" cy="195" r="10" fill="#079FFF"/>
    <path fill-rule="evenodd" clip-rule="evenodd" d="M568.235 30.4844C568.269 30.4495 568.311 30.4218 568.356 30.4029C568.402 30.384 568.451 30.3743 568.5 30.3743C568.549 30.3743 568.598 30.384 568.644 30.4029C568.689 30.4218 568.731 30.4495 568.766 30.4844L573 34.7197L577.235 30.4844C577.269 30.4496 577.311 30.4219 577.356 30.403C577.402 30.3842 577.451 30.3745 577.5 30.3745C577.549 30.3745 577.598 30.3842 577.644 30.403C577.689 30.4219 577.731 30.4496 577.766 30.4844C577.8 30.5193 577.828 30.5607 577.847 30.6063C577.866 30.6518 577.876 30.7006 577.876 30.7499C577.876 30.7992 577.866 30.8481 577.847 30.8936C577.828 30.9392 577.8 30.9806 577.766 31.0154L573.266 35.5154C573.231 35.5504 573.189 35.5781 573.144 35.597C573.098 35.6159 573.049 35.6256 573 35.6256C572.951 35.6256 572.902 35.6159 572.856 35.597C572.811 35.5781 572.769 35.5504 572.735 35.5154L568.235 31.0154C568.2 30.9806 568.172 30.9392 568.153 30.8937C568.134 30.8481 568.124 30.7993 568.124 30.7499C568.124 30.7006 568.134 30.6518 568.153 30.6062C568.172 30.5607 568.2 30.5193 568.235 30.4844Z" fill="#9F9A9F"/>
    <path d="M526.759 37V28.2727H532.537V29.794H528.604V31.8736H532.153V33.3949H528.604V37H526.759ZM533.744 37V30.4545H535.559V37H533.744ZM534.656 29.6108C534.386 29.6108 534.154 29.5213 533.961 29.3423C533.771 29.1605 533.676 28.9432 533.676 28.6903C533.676 28.4403 533.771 28.2259 533.961 28.0469C534.154 27.8651 534.386 27.7741 534.656 27.7741C534.926 27.7741 535.156 27.8651 535.346 28.0469C535.539 28.2259 535.636 28.4403 535.636 28.6903C535.636 28.9432 535.539 29.1605 535.346 29.3423C535.156 29.5213 534.926 29.6108 534.656 29.6108ZM538.829 28.2727V37H537.013V28.2727H538.829ZM543.765 30.4545V31.8182H539.823V30.4545H543.765ZM540.718 28.8864H542.533V34.9886C542.533 35.1562 542.559 35.2869 542.61 35.3807C542.661 35.4716 542.732 35.5355 542.823 35.5724C542.917 35.6094 543.025 35.6278 543.147 35.6278C543.232 35.6278 543.317 35.6207 543.402 35.6065C543.488 35.5895 543.553 35.5767 543.598 35.5682L543.884 36.919C543.793 36.9474 543.665 36.9801 543.5 37.017C543.336 37.0568 543.135 37.081 542.9 37.0895C542.462 37.1065 542.078 37.0483 541.749 36.9148C541.422 36.7812 541.168 36.5739 540.986 36.2926C540.804 36.0114 540.715 35.6562 540.718 35.2273V28.8864ZM547.86 37.1278C547.186 37.1278 546.607 36.9915 546.121 36.7188C545.638 36.4432 545.266 36.054 545.005 35.5511C544.743 35.0455 544.613 34.4474 544.613 33.7571C544.613 33.0838 544.743 32.4929 545.005 31.9844C545.266 31.4759 545.634 31.0795 546.108 30.7955C546.586 30.5114 547.145 30.3693 547.787 30.3693C548.219 30.3693 548.621 30.4389 548.993 30.5781C549.368 30.7145 549.695 30.9205 549.973 31.196C550.255 31.4716 550.473 31.8182 550.63 32.2358C550.786 32.6506 550.864 33.1364 550.864 33.6932V34.1918H545.337V33.0668H549.155C549.155 32.8054 549.098 32.5739 548.985 32.3722C548.871 32.1705 548.713 32.0128 548.512 31.8991C548.313 31.7827 548.081 31.7244 547.817 31.7244C547.542 31.7244 547.297 31.7884 547.084 31.9162C546.874 32.0412 546.709 32.2102 546.59 32.4233C546.471 32.6335 546.409 32.8679 546.407 33.1264V34.196C546.407 34.5199 546.466 34.7997 546.586 35.0355C546.708 35.2713 546.88 35.4531 547.101 35.581C547.323 35.7088 547.586 35.7727 547.89 35.7727C548.091 35.7727 548.276 35.7443 548.444 35.6875C548.611 35.6307 548.755 35.5455 548.874 35.4318C548.993 35.3182 549.084 35.179 549.147 35.0142L550.826 35.125C550.74 35.5284 550.566 35.8807 550.301 36.1818C550.04 36.4801 549.702 36.7131 549.287 36.8807C548.875 37.0455 548.4 37.1278 547.86 37.1278ZM552.049 37V30.4545H553.809V31.5966H553.877C553.996 31.1903 554.196 30.8835 554.478 30.6761C554.759 30.4659 555.083 30.3608 555.449 30.3608C555.54 30.3608 555.638 30.3665 555.743 30.3778C555.848 30.3892 555.941 30.4048 556.02 30.4247V32.0355C555.935 32.0099 555.817 31.9872 555.667 31.9673C555.516 31.9474 555.378 31.9375 555.253 31.9375C554.986 31.9375 554.748 31.9957 554.537 32.1122C554.33 32.2259 554.165 32.3849 554.043 32.5895C553.924 32.794 553.864 33.0298 553.864 33.2969V37H552.049ZM562.405 32.321L560.743 32.4233C560.714 32.2812 560.653 32.1534 560.56 32.0398C560.466 31.9233 560.342 31.831 560.189 31.7628C560.038 31.6918 559.858 31.6562 559.648 31.6562C559.366 31.6562 559.129 31.7159 558.936 31.8352C558.743 31.9517 558.646 32.108 558.646 32.304C558.646 32.4602 558.709 32.5923 558.834 32.7003C558.959 32.8082 559.173 32.8949 559.477 32.9602L560.662 33.1989C561.298 33.3295 561.773 33.5398 562.085 33.8295C562.398 34.1193 562.554 34.5 562.554 34.9716C562.554 35.4006 562.428 35.777 562.175 36.1009C561.925 36.4247 561.581 36.6776 561.143 36.8594C560.709 37.0384 560.207 37.1278 559.639 37.1278C558.773 37.1278 558.082 36.9474 557.568 36.5866C557.057 36.223 556.757 35.7287 556.669 35.1037L558.455 35.0099C558.509 35.2741 558.639 35.4759 558.847 35.6151C559.054 35.7514 559.32 35.8196 559.643 35.8196C559.962 35.8196 560.217 35.7585 560.411 35.6364C560.607 35.5114 560.706 35.3509 560.709 35.1548C560.706 34.9901 560.636 34.8551 560.5 34.75C560.364 34.642 560.153 34.5597 559.869 34.5028L558.736 34.277C558.097 34.1491 557.621 33.9276 557.308 33.6122C556.999 33.2969 556.844 32.8949 556.844 32.4062C556.844 31.9858 556.957 31.6236 557.185 31.3196C557.415 31.0156 557.737 30.7812 558.152 30.6165C558.57 30.4517 559.058 30.3693 559.618 30.3693C560.445 30.3693 561.095 30.544 561.57 30.8935C562.047 31.2429 562.325 31.7187 562.405 32.321Z" fill="#9F9A9F"/>
    <path d="M32.924 27.954C33.012 27.954 33.09 27.988 33.158 28.056L33.794 28.746C33.442 29.182 33.008 29.516 32.492 29.748C31.98 29.98 31.364 30.096 30.644 30.096C30 30.096 29.42 29.986 28.904 29.766C28.392 29.546 27.954 29.24 27.59 28.848C27.226 28.456 26.946 27.988 26.75 27.444C26.558 26.9 26.462 26.306 26.462 25.662C26.462 25.01 26.566 24.414 26.774 23.874C26.982 23.33 27.274 22.862 27.65 22.47C28.03 22.078 28.482 21.774 29.006 21.558C29.53 21.338 30.11 21.228 30.746 21.228C31.378 21.228 31.938 21.332 32.426 21.54C32.918 21.748 33.336 22.02 33.68 22.356L33.14 23.106C33.108 23.154 33.066 23.196 33.014 23.232C32.966 23.268 32.898 23.286 32.81 23.286C32.75 23.286 32.688 23.27 32.624 23.238C32.56 23.202 32.49 23.16 32.414 23.112C32.338 23.06 32.25 23.004 32.15 22.944C32.05 22.884 31.934 22.83 31.802 22.782C31.67 22.73 31.516 22.688 31.34 22.656C31.168 22.62 30.968 22.602 30.74 22.602C30.352 22.602 29.996 22.672 29.672 22.812C29.352 22.948 29.076 23.148 28.844 23.412C28.612 23.672 28.432 23.992 28.304 24.372C28.176 24.748 28.112 25.178 28.112 25.662C28.112 26.15 28.18 26.584 28.316 26.964C28.456 27.344 28.644 27.664 28.88 27.924C29.116 28.184 29.394 28.384 29.714 28.524C30.034 28.66 30.378 28.728 30.746 28.728C30.966 28.728 31.164 28.716 31.34 28.692C31.52 28.668 31.684 28.63 31.832 28.578C31.984 28.526 32.126 28.46 32.258 28.38C32.394 28.296 32.528 28.194 32.66 28.074C32.7 28.038 32.742 28.01 32.786 27.99C32.83 27.966 32.876 27.954 32.924 27.954ZM37.2607 23.748C37.7167 23.748 38.1307 23.822 38.5027 23.97C38.8787 24.118 39.1987 24.328 39.4627 24.6C39.7307 24.872 39.9367 25.204 40.0807 25.596C40.2247 25.988 40.2967 26.426 40.2967 26.91C40.2967 27.398 40.2247 27.838 40.0807 28.23C39.9367 28.622 39.7307 28.956 39.4627 29.232C39.1987 29.508 38.8787 29.72 38.5027 29.868C38.1307 30.016 37.7167 30.09 37.2607 30.09C36.8007 30.09 36.3827 30.016 36.0067 29.868C35.6307 29.72 35.3087 29.508 35.0407 29.232C34.7767 28.956 34.5707 28.622 34.4227 28.23C34.2787 27.838 34.2067 27.398 34.2067 26.91C34.2067 26.426 34.2787 25.988 34.4227 25.596C34.5707 25.204 34.7767 24.872 35.0407 24.6C35.3087 24.328 35.6307 24.118 36.0067 23.97C36.3827 23.822 36.8007 23.748 37.2607 23.748ZM37.2607 28.95C37.7727 28.95 38.1507 28.778 38.3947 28.434C38.6427 28.09 38.7667 27.586 38.7667 26.922C38.7667 26.258 38.6427 25.752 38.3947 25.404C38.1507 25.056 37.7727 24.882 37.2607 24.882C36.7407 24.882 36.3547 25.058 36.1027 25.41C35.8547 25.758 35.7307 26.262 35.7307 26.922C35.7307 27.582 35.8547 28.086 36.1027 28.434C36.3547 28.778 36.7407 28.95 37.2607 28.95ZM42.8133 24.6C42.9373 24.476 43.0673 24.362 43.2033 24.258C43.3433 24.15 43.4893 24.06 43.6413 23.988C43.7973 23.912 43.9633 23.854 44.1393 23.814C44.3153 23.77 44.5073 23.748 44.7153 23.748C45.0513 23.748 45.3493 23.806 45.6093 23.922C45.8693 24.034 46.0853 24.194 46.2573 24.402C46.4333 24.606 46.5653 24.852 46.6533 25.14C46.7453 25.424 46.7913 25.738 46.7913 26.082V30H45.3093V26.082C45.3093 25.706 45.2233 25.416 45.0513 25.212C44.8793 25.004 44.6173 24.9 44.2653 24.9C44.0093 24.9 43.7693 24.958 43.5453 25.074C43.3213 25.19 43.1093 25.348 42.9093 25.548V30H41.4273V23.844H42.3333C42.5253 23.844 42.6513 23.934 42.7113 24.114L42.8133 24.6ZM49.5868 24.6C49.7108 24.476 49.8408 24.362 49.9768 24.258C50.1168 24.15 50.2628 24.06 50.4148 23.988C50.5708 23.912 50.7368 23.854 50.9128 23.814C51.0888 23.77 51.2808 23.748 51.4888 23.748C51.8248 23.748 52.1228 23.806 52.3828 23.922C52.6428 24.034 52.8588 24.194 53.0308 24.402C53.2068 24.606 53.3388 24.852 53.4268 25.14C53.5188 25.424 53.5648 25.738 53.5648 26.082V30H52.0828V26.082C52.0828 25.706 51.9968 25.416 51.8248 25.212C51.6528 25.004 51.3908 24.9 51.0388 24.9C50.7828 24.9 50.5428 24.958 50.3188 25.074C50.0948 25.19 49.8828 25.348 49.6828 25.548V30H48.2008V23.844H49.1068C49.2988 23.844 49.4248 23.934 49.4848 24.114L49.5868 24.6ZM58.9402 26.214C58.9402 26.022 58.9122 25.842 58.8562 25.674C58.8042 25.502 58.7242 25.352 58.6162 25.224C58.5082 25.096 58.3702 24.996 58.2022 24.924C58.0382 24.848 57.8462 24.81 57.6262 24.81C57.1982 24.81 56.8602 24.932 56.6122 25.176C56.3682 25.42 56.2122 25.766 56.1442 26.214H58.9402ZM56.1142 27.108C56.1382 27.424 56.1942 27.698 56.2822 27.93C56.3702 28.158 56.4862 28.348 56.6302 28.5C56.7742 28.648 56.9442 28.76 57.1402 28.836C57.3402 28.908 57.5602 28.944 57.8002 28.944C58.0402 28.944 58.2462 28.916 58.4182 28.86C58.5942 28.804 58.7462 28.742 58.8742 28.674C59.0062 28.606 59.1202 28.544 59.2162 28.488C59.3162 28.432 59.4122 28.404 59.5042 28.404C59.6282 28.404 59.7202 28.45 59.7802 28.542L60.2062 29.082C60.0422 29.274 59.8582 29.436 59.6542 29.568C59.4502 29.696 59.2362 29.8 59.0122 29.88C58.7922 29.956 58.5662 30.01 58.3342 30.042C58.1062 30.074 57.8842 30.09 57.6682 30.09C57.2402 30.09 56.8422 30.02 56.4742 29.88C56.1062 29.736 55.7862 29.526 55.5142 29.25C55.2422 28.97 55.0282 28.626 54.8722 28.218C54.7162 27.806 54.6382 27.33 54.6382 26.79C54.6382 26.37 54.7062 25.976 54.8422 25.608C54.9782 25.236 55.1722 24.914 55.4242 24.642C55.6802 24.366 55.9902 24.148 56.3542 23.988C56.7222 23.828 57.1362 23.748 57.5962 23.748C57.9842 23.748 58.3422 23.81 58.6702 23.934C58.9982 24.058 59.2802 24.24 59.5162 24.48C59.7522 24.716 59.9362 25.008 60.0682 25.356C60.2042 25.7 60.2722 26.094 60.2722 26.538C60.2722 26.762 60.2482 26.914 60.2002 26.994C60.1522 27.07 60.0602 27.108 59.9242 27.108H56.1142ZM65.7943 25.146C65.7503 25.202 65.7063 25.246 65.6623 25.278C65.6223 25.31 65.5623 25.326 65.4823 25.326C65.4063 25.326 65.3323 25.304 65.2603 25.26C65.1883 25.212 65.1023 25.16 65.0023 25.104C64.9023 25.044 64.7823 24.992 64.6423 24.948C64.5063 24.9 64.3363 24.876 64.1323 24.876C63.8723 24.876 63.6443 24.924 63.4483 25.02C63.2523 25.112 63.0883 25.246 62.9563 25.422C62.8283 25.598 62.7323 25.812 62.6683 26.064C62.6043 26.312 62.5723 26.594 62.5723 26.91C62.5723 27.238 62.6063 27.53 62.6743 27.786C62.7463 28.042 62.8483 28.258 62.9803 28.434C63.1123 28.606 63.2723 28.738 63.4603 28.83C63.6483 28.918 63.8603 28.962 64.0963 28.962C64.3323 28.962 64.5223 28.934 64.6663 28.878C64.8143 28.818 64.9383 28.754 65.0383 28.686C65.1383 28.614 65.2243 28.55 65.2963 28.494C65.3723 28.434 65.4563 28.404 65.5483 28.404C65.6683 28.404 65.7583 28.45 65.8183 28.542L66.2443 29.082C66.0803 29.274 65.9023 29.436 65.7103 29.568C65.5183 29.696 65.3183 29.8 65.1103 29.88C64.9063 29.956 64.6943 30.01 64.4743 30.042C64.2583 30.074 64.0423 30.09 63.8263 30.09C63.4463 30.09 63.0883 30.02 62.7523 29.88C62.4163 29.736 62.1223 29.528 61.8703 29.256C61.6183 28.984 61.4183 28.652 61.2703 28.26C61.1263 27.864 61.0543 27.414 61.0543 26.91C61.0543 26.458 61.1183 26.04 61.2463 25.656C61.3783 25.268 61.5703 24.934 61.8223 24.654C62.0743 24.37 62.3863 24.148 62.7583 23.988C63.1303 23.828 63.5583 23.748 64.0423 23.748C64.5023 23.748 64.9043 23.822 65.2483 23.97C65.5963 24.118 65.9083 24.33 66.1843 24.606L65.7943 25.146ZM73.3834 30H71.9014V24.954H69.0454V28.29C69.0454 28.482 69.0914 28.632 69.1834 28.74C69.2794 28.848 69.4094 28.902 69.5734 28.902C69.6654 28.902 69.7414 28.892 69.8014 28.872C69.8654 28.848 69.9194 28.824 69.9634 28.8C70.0114 28.776 70.0534 28.754 70.0894 28.734C70.1254 28.71 70.1614 28.698 70.1974 28.698C70.2414 28.698 70.2774 28.71 70.3054 28.734C70.3334 28.754 70.3634 28.786 70.3954 28.83L70.8394 29.55C70.6234 29.73 70.3754 29.866 70.0954 29.958C69.8154 30.05 69.5254 30.096 69.2254 30.096C68.6894 30.096 68.2774 29.946 67.9894 29.646C67.7054 29.342 67.5634 28.924 67.5634 28.392V24.954H66.9334C66.8534 24.954 66.7854 24.928 66.7294 24.876C66.6734 24.824 66.6454 24.746 66.6454 24.642V24.054L67.6354 23.886L67.9474 22.212C67.9674 22.132 68.0054 22.07 68.0614 22.026C68.1174 21.982 68.1894 21.96 68.2774 21.96H69.0454V23.898H73.3834V30ZM73.6414 22.026C73.6414 22.154 73.6154 22.276 73.5634 22.392C73.5114 22.504 73.4414 22.602 73.3534 22.686C73.2694 22.77 73.1674 22.838 73.0474 22.89C72.9314 22.938 72.8074 22.962 72.6754 22.962C72.5474 22.962 72.4274 22.938 72.3154 22.89C72.2034 22.838 72.1054 22.77 72.0214 22.686C71.9374 22.602 71.8694 22.504 71.8174 22.392C71.7694 22.276 71.7454 22.154 71.7454 22.026C71.7454 21.894 71.7694 21.772 71.8174 21.66C71.8694 21.544 71.9374 21.444 72.0214 21.36C72.1054 21.272 72.2034 21.204 72.3154 21.156C72.4274 21.104 72.5474 21.078 72.6754 21.078C72.8074 21.078 72.9314 21.104 73.0474 21.156C73.1674 21.204 73.2694 21.272 73.3534 21.36C73.4414 21.444 73.5114 21.544 73.5634 21.66C73.6154 21.772 73.6414 21.894 73.6414 22.026ZM77.6201 23.748C78.0761 23.748 78.4901 23.822 78.8621 23.97C79.2381 24.118 79.5581 24.328 79.8221 24.6C80.0901 24.872 80.2961 25.204 80.4401 25.596C80.5841 25.988 80.6561 26.426 80.6561 26.91C80.6561 27.398 80.5841 27.838 80.4401 28.23C80.2961 28.622 80.0901 28.956 79.8221 29.232C79.5581 29.508 79.2381 29.72 78.8621 29.868C78.4901 30.016 78.0761 30.09 77.6201 30.09C77.1601 30.09 76.7421 30.016 76.3661 29.868C75.9901 29.72 75.6681 29.508 75.4001 29.232C75.1361 28.956 74.9301 28.622 74.7821 28.23C74.6381 27.838 74.5661 27.398 74.5661 26.91C74.5661 26.426 74.6381 25.988 74.7821 25.596C74.9301 25.204 75.1361 24.872 75.4001 24.6C75.6681 24.328 75.9901 24.118 76.3661 23.97C76.7421 23.822 77.1601 23.748 77.6201 23.748ZM77.6201 28.95C78.1321 28.95 78.5101 28.778 78.7541 28.434C79.0021 28.09 79.1261 27.586 79.1261 26.922C79.1261 26.258 79.0021 25.752 78.7541 25.404C78.5101 25.056 78.1321 24.882 77.6201 24.882C77.1001 24.882 76.7141 25.058 76.4621 25.41C76.2141 25.758 76.0901 26.262 76.0901 26.922C76.0901 27.582 76.2141 28.086 76.4621 28.434C76.7141 28.778 77.1001 28.95 77.6201 28.95ZM83.1727 24.6C83.2967 24.476 83.4267 24.362 83.5627 24.258C83.7027 24.15 83.8487 24.06 84.0007 23.988C84.1567 23.912 84.3227 23.854 84.4987 23.814C84.6747 23.77 84.8667 23.748 85.0747 23.748C85.4107 23.748 85.7087 23.806 85.9687 23.922C86.2287 24.034 86.4447 24.194 86.6167 24.402C86.7927 24.606 86.9247 24.852 87.0127 25.14C87.1047 25.424 87.1507 25.738 87.1507 26.082V30H85.6687V26.082C85.6687 25.706 85.5827 25.416 85.4107 25.212C85.2387 25.004 84.9767 24.9 84.6247 24.9C84.3687 24.9 84.1287 24.958 83.9047 25.074C83.6807 25.19 83.4687 25.348 83.2687 25.548V30H81.7867V23.844H82.6927C82.8847 23.844 83.0107 23.934 83.0707 24.114L83.1727 24.6ZM92.3161 25.044C92.2761 25.108 92.2341 25.154 92.1901 25.182C92.1461 25.206 92.0901 25.218 92.0221 25.218C91.9501 25.218 91.8721 25.198 91.7881 25.158C91.7081 25.118 91.6141 25.074 91.5061 25.026C91.3981 24.974 91.2741 24.928 91.1341 24.888C90.9981 24.848 90.8361 24.828 90.6481 24.828C90.3561 24.828 90.1261 24.89 89.9581 25.014C89.7941 25.138 89.7121 25.3 89.7121 25.5C89.7121 25.632 89.7541 25.744 89.8381 25.836C89.9261 25.924 90.0401 26.002 90.1801 26.07C90.3241 26.138 90.4861 26.2 90.6661 26.256C90.8461 26.308 91.0281 26.366 91.2121 26.43C91.4001 26.494 91.5841 26.568 91.7641 26.652C91.9441 26.732 92.1041 26.836 92.2441 26.964C92.3881 27.088 92.5021 27.238 92.5861 27.414C92.6741 27.59 92.7181 27.802 92.7181 28.05C92.7181 28.346 92.6641 28.62 92.5561 28.872C92.4521 29.12 92.2961 29.336 92.0881 29.52C91.8801 29.7 91.6221 29.842 91.3141 29.946C91.0101 30.046 90.6581 30.096 90.2581 30.096C90.0461 30.096 89.8381 30.076 89.6341 30.036C89.4341 30 89.2401 29.948 89.0521 29.88C88.8681 29.812 88.6961 29.732 88.5361 29.64C88.3801 29.548 88.2421 29.448 88.1221 29.34L88.4641 28.776C88.5081 28.708 88.5601 28.656 88.6201 28.62C88.6801 28.584 88.7561 28.566 88.8481 28.566C88.9401 28.566 89.0261 28.592 89.1061 28.644C89.1901 28.696 89.2861 28.752 89.3941 28.812C89.5021 28.872 89.6281 28.928 89.7721 28.98C89.9201 29.032 90.1061 29.058 90.3301 29.058C90.5061 29.058 90.6561 29.038 90.7801 28.998C90.9081 28.954 91.0121 28.898 91.0921 28.83C91.1761 28.762 91.2361 28.684 91.2721 28.596C91.3121 28.504 91.3321 28.41 91.3321 28.314C91.3321 28.17 91.2881 28.052 91.2001 27.96C91.1161 27.868 91.0021 27.788 90.8581 27.72C90.7181 27.652 90.5561 27.592 90.3721 27.54C90.1921 27.484 90.0061 27.424 89.8141 27.36C89.6261 27.296 89.4401 27.222 89.2561 27.138C89.0761 27.05 88.9141 26.94 88.7701 26.808C88.6301 26.676 88.5161 26.514 88.4281 26.322C88.3441 26.13 88.3021 25.898 88.3021 25.626C88.3021 25.374 88.3521 25.134 88.4521 24.906C88.5521 24.678 88.6981 24.48 88.8901 24.312C89.0861 24.14 89.3281 24.004 89.6161 23.904C89.9081 23.8 90.2441 23.748 90.6241 23.748C91.0481 23.748 91.4341 23.818 91.7821 23.958C92.1301 24.098 92.4201 24.282 92.6521 24.51L92.3161 25.044Z" fill="#FE414D"/>
    <path d="M70.625 115.27L69.745 112.865C69.7017 112.758 69.6567 112.632 69.61 112.485C69.5633 112.338 69.5167 112.18 69.47 112.01C69.4267 112.18 69.3817 112.34 69.335 112.49C69.2883 112.637 69.2433 112.765 69.2 112.875L68.325 115.27H70.625ZM73 118H71.96C71.8433 118 71.7483 117.972 71.675 117.915C71.6017 117.855 71.5467 117.782 71.51 117.695L70.97 116.22H67.975L67.435 117.695C67.4083 117.772 67.3567 117.842 67.28 117.905C67.2033 117.968 67.1083 118 66.995 118H65.945L68.79 110.77H70.16L73 118ZM74.6986 113.5C74.8019 113.397 74.9103 113.302 75.0236 113.215C75.1403 113.125 75.2619 113.05 75.3886 112.99C75.5186 112.927 75.6569 112.878 75.8036 112.845C75.9503 112.808 76.1103 112.79 76.2836 112.79C76.5636 112.79 76.8119 112.838 77.0286 112.935C77.2453 113.028 77.4253 113.162 77.5686 113.335C77.7153 113.505 77.8253 113.71 77.8986 113.95C77.9753 114.187 78.0136 114.448 78.0136 114.735V118H76.7786V114.735C76.7786 114.422 76.7069 114.18 76.5636 114.01C76.4203 113.837 76.2019 113.75 75.9086 113.75C75.6953 113.75 75.4953 113.798 75.3086 113.895C75.1219 113.992 74.9453 114.123 74.7786 114.29V118H73.5436V112.87H74.2986C74.4586 112.87 74.5636 112.945 74.6136 113.095L74.6986 113.5ZM80.3431 113.5C80.4465 113.397 80.5548 113.302 80.6681 113.215C80.7848 113.125 80.9065 113.05 81.0331 112.99C81.1631 112.927 81.3015 112.878 81.4481 112.845C81.5948 112.808 81.7548 112.79 81.9281 112.79C82.2081 112.79 82.4565 112.838 82.6731 112.935C82.8898 113.028 83.0698 113.162 83.2131 113.335C83.3598 113.505 83.4698 113.71 83.5431 113.95C83.6198 114.187 83.6581 114.448 83.6581 114.735V118H82.4231V114.735C82.4231 114.422 82.3515 114.18 82.2081 114.01C82.0648 113.837 81.8465 113.75 81.5531 113.75C81.3398 113.75 81.1398 113.798 80.9531 113.895C80.7665 113.992 80.5898 114.123 80.4231 114.29V118H79.1881V112.87H79.9431C80.1031 112.87 80.2081 112.945 80.2581 113.095L80.3431 113.5ZM87.5427 115.81C87.186 115.827 86.886 115.858 86.6427 115.905C86.3993 115.948 86.2043 116.005 86.0577 116.075C85.911 116.145 85.806 116.227 85.7427 116.32C85.6793 116.413 85.6477 116.515 85.6477 116.625C85.6477 116.842 85.711 116.997 85.8377 117.09C85.9677 117.183 86.136 117.23 86.3427 117.23C86.596 117.23 86.8143 117.185 86.9977 117.095C87.1843 117.002 87.366 116.862 87.5427 116.675V115.81ZM84.7127 113.585C85.3027 113.045 86.0127 112.775 86.8427 112.775C87.1427 112.775 87.411 112.825 87.6477 112.925C87.8843 113.022 88.0843 113.158 88.2477 113.335C88.411 113.508 88.5343 113.717 88.6177 113.96C88.7043 114.203 88.7477 114.47 88.7477 114.76V118H88.1877C88.071 118 87.981 117.983 87.9177 117.95C87.8543 117.913 87.8043 117.842 87.7677 117.735L87.6577 117.365C87.5277 117.482 87.401 117.585 87.2777 117.675C87.1543 117.762 87.026 117.835 86.8927 117.895C86.7593 117.955 86.616 118 86.4627 118.03C86.3127 118.063 86.146 118.08 85.9627 118.08C85.746 118.08 85.546 118.052 85.3627 117.995C85.1793 117.935 85.021 117.847 84.8877 117.73C84.7543 117.613 84.651 117.468 84.5777 117.295C84.5043 117.122 84.4677 116.92 84.4677 116.69C84.4677 116.56 84.4893 116.432 84.5327 116.305C84.576 116.175 84.646 116.052 84.7427 115.935C84.8427 115.818 84.971 115.708 85.1277 115.605C85.2843 115.502 85.476 115.412 85.7027 115.335C85.9327 115.258 86.1993 115.197 86.5027 115.15C86.806 115.1 87.1527 115.07 87.5427 115.06V114.76C87.5427 114.417 87.4693 114.163 87.3227 114C87.176 113.833 86.9643 113.75 86.6877 113.75C86.4877 113.75 86.321 113.773 86.1877 113.82C86.0577 113.867 85.9427 113.92 85.8427 113.98C85.7427 114.037 85.651 114.088 85.5677 114.135C85.4877 114.182 85.3977 114.205 85.2977 114.205C85.211 114.205 85.1377 114.183 85.0777 114.14C85.0177 114.093 84.9693 114.04 84.9327 113.98L84.7127 113.585Z" fill="#079FFF"/>
    <path d="M109.56 324.43C109.56 324.837 109.51 325.203 109.41 325.53C109.31 325.857 109.16 326.135 108.96 326.365C108.763 326.595 108.517 326.772 108.22 326.895C107.923 327.018 107.578 327.08 107.185 327.08C107.005 327.08 106.828 327.068 106.655 327.045C106.482 327.025 106.3 326.992 106.11 326.945C106.12 326.812 106.132 326.678 106.145 326.545C106.158 326.412 106.17 326.278 106.18 326.145C106.19 326.072 106.218 326.013 106.265 325.97C106.315 325.923 106.385 325.9 106.475 325.9C106.532 325.9 106.605 325.912 106.695 325.935C106.788 325.958 106.905 325.97 107.045 325.97C107.235 325.97 107.403 325.943 107.55 325.89C107.697 325.833 107.818 325.745 107.915 325.625C108.015 325.505 108.09 325.35 108.14 325.16C108.19 324.967 108.215 324.733 108.215 324.46V319.77H109.56V324.43ZM113.441 324.81C113.084 324.827 112.784 324.858 112.541 324.905C112.298 324.948 112.103 325.005 111.956 325.075C111.809 325.145 111.704 325.227 111.641 325.32C111.578 325.413 111.546 325.515 111.546 325.625C111.546 325.842 111.609 325.997 111.736 326.09C111.866 326.183 112.034 326.23 112.241 326.23C112.494 326.23 112.713 326.185 112.896 326.095C113.083 326.002 113.264 325.862 113.441 325.675V324.81ZM110.611 322.585C111.201 322.045 111.911 321.775 112.741 321.775C113.041 321.775 113.309 321.825 113.546 321.925C113.783 322.022 113.983 322.158 114.146 322.335C114.309 322.508 114.433 322.717 114.516 322.96C114.603 323.203 114.646 323.47 114.646 323.76V327H114.086C113.969 327 113.879 326.983 113.816 326.95C113.753 326.913 113.703 326.842 113.666 326.735L113.556 326.365C113.426 326.482 113.299 326.585 113.176 326.675C113.053 326.762 112.924 326.835 112.791 326.895C112.658 326.955 112.514 327 112.361 327.03C112.211 327.063 112.044 327.08 111.861 327.08C111.644 327.08 111.444 327.052 111.261 326.995C111.078 326.935 110.919 326.847 110.786 326.73C110.653 326.613 110.549 326.468 110.476 326.295C110.403 326.122 110.366 325.92 110.366 325.69C110.366 325.56 110.388 325.432 110.431 325.305C110.474 325.175 110.544 325.052 110.641 324.935C110.741 324.818 110.869 324.708 111.026 324.605C111.183 324.502 111.374 324.412 111.601 324.335C111.831 324.258 112.098 324.197 112.401 324.15C112.704 324.1 113.051 324.07 113.441 324.06V323.76C113.441 323.417 113.368 323.163 113.221 323C113.074 322.833 112.863 322.75 112.586 322.75C112.386 322.75 112.219 322.773 112.086 322.82C111.956 322.867 111.841 322.92 111.741 322.98C111.641 323.037 111.549 323.088 111.466 323.135C111.386 323.182 111.296 323.205 111.196 323.205C111.109 323.205 111.036 323.183 110.976 323.14C110.916 323.093 110.868 323.04 110.831 322.98L110.611 322.585ZM118.939 322.87C118.906 322.923 118.871 322.962 118.834 322.985C118.798 323.005 118.751 323.015 118.694 323.015C118.634 323.015 118.569 322.998 118.499 322.965C118.433 322.932 118.354 322.895 118.264 322.855C118.174 322.812 118.071 322.773 117.954 322.74C117.841 322.707 117.706 322.69 117.549 322.69C117.306 322.69 117.114 322.742 116.974 322.845C116.838 322.948 116.769 323.083 116.769 323.25C116.769 323.36 116.804 323.453 116.874 323.53C116.948 323.603 117.043 323.668 117.159 323.725C117.279 323.782 117.414 323.833 117.564 323.88C117.714 323.923 117.866 323.972 118.019 324.025C118.176 324.078 118.329 324.14 118.479 324.21C118.629 324.277 118.763 324.363 118.879 324.47C118.999 324.573 119.094 324.698 119.164 324.845C119.238 324.992 119.274 325.168 119.274 325.375C119.274 325.622 119.229 325.85 119.139 326.06C119.053 326.267 118.923 326.447 118.749 326.6C118.576 326.75 118.361 326.868 118.104 326.955C117.851 327.038 117.558 327.08 117.224 327.08C117.048 327.08 116.874 327.063 116.704 327.03C116.538 327 116.376 326.957 116.219 326.9C116.066 326.843 115.923 326.777 115.789 326.7C115.659 326.623 115.544 326.54 115.444 326.45L115.729 325.98C115.766 325.923 115.809 325.88 115.859 325.85C115.909 325.82 115.973 325.805 116.049 325.805C116.126 325.805 116.198 325.827 116.264 325.87C116.334 325.913 116.414 325.96 116.504 326.01C116.594 326.06 116.699 326.107 116.819 326.15C116.943 326.193 117.098 326.215 117.284 326.215C117.431 326.215 117.556 326.198 117.659 326.165C117.766 326.128 117.853 326.082 117.919 326.025C117.989 325.968 118.039 325.903 118.069 325.83C118.103 325.753 118.119 325.675 118.119 325.595C118.119 325.475 118.083 325.377 118.009 325.3C117.939 325.223 117.844 325.157 117.724 325.1C117.608 325.043 117.473 324.993 117.319 324.95C117.169 324.903 117.014 324.853 116.854 324.8C116.698 324.747 116.543 324.685 116.389 324.615C116.239 324.542 116.104 324.45 115.984 324.34C115.868 324.23 115.773 324.095 115.699 323.935C115.629 323.775 115.594 323.582 115.594 323.355C115.594 323.145 115.636 322.945 115.719 322.755C115.803 322.565 115.924 322.4 116.084 322.26C116.248 322.117 116.449 322.003 116.689 321.92C116.933 321.833 117.213 321.79 117.529 321.79C117.883 321.79 118.204 321.848 118.494 321.965C118.784 322.082 119.026 322.235 119.219 322.425L118.939 322.87ZM122.474 321.79C122.854 321.79 123.199 321.852 123.509 321.975C123.822 322.098 124.089 322.273 124.309 322.5C124.532 322.727 124.704 323.003 124.824 323.33C124.944 323.657 125.004 324.022 125.004 324.425C125.004 324.832 124.944 325.198 124.824 325.525C124.704 325.852 124.532 326.13 124.309 326.36C124.089 326.59 123.822 326.767 123.509 326.89C123.199 327.013 122.854 327.075 122.474 327.075C122.09 327.075 121.742 327.013 121.429 326.89C121.115 326.767 120.847 326.59 120.624 326.36C120.404 326.13 120.232 325.852 120.109 325.525C119.989 325.198 119.929 324.832 119.929 324.425C119.929 324.022 119.989 323.657 120.109 323.33C120.232 323.003 120.404 322.727 120.624 322.5C120.847 322.273 121.115 322.098 121.429 321.975C121.742 321.852 122.09 321.79 122.474 321.79ZM122.474 326.125C122.9 326.125 123.215 325.982 123.419 325.695C123.625 325.408 123.729 324.988 123.729 324.435C123.729 323.882 123.625 323.46 123.419 323.17C123.215 322.88 122.9 322.735 122.474 322.735C122.04 322.735 121.719 322.882 121.509 323.175C121.302 323.465 121.199 323.885 121.199 324.435C121.199 324.985 121.302 325.405 121.509 325.695C121.719 325.982 122.04 326.125 122.474 326.125ZM127.101 322.5C127.204 322.397 127.313 322.302 127.426 322.215C127.543 322.125 127.664 322.05 127.791 321.99C127.921 321.927 128.059 321.878 128.206 321.845C128.353 321.808 128.513 321.79 128.686 321.79C128.966 321.79 129.214 321.838 129.431 321.935C129.648 322.028 129.828 322.162 129.971 322.335C130.118 322.505 130.228 322.71 130.301 322.95C130.378 323.187 130.416 323.448 130.416 323.735V327H129.181V323.735C129.181 323.422 129.109 323.18 128.966 323.01C128.823 322.837 128.604 322.75 128.311 322.75C128.098 322.75 127.898 322.798 127.711 322.895C127.524 322.992 127.348 323.123 127.181 323.29V327H125.946V321.87H126.701C126.861 321.87 126.966 321.945 127.016 322.095L127.101 322.5Z" fill="#079FFF"/>
    <path d="M234.9 252.77V260H234.21C234.103 260 234.013 259.983 233.94 259.95C233.87 259.913 233.802 259.853 233.735 259.77L229.96 254.95C229.98 255.17 229.99 255.373 229.99 255.56V260H228.805V252.77H229.51C229.567 252.77 229.615 252.773 229.655 252.78C229.698 252.783 229.735 252.793 229.765 252.81C229.798 252.823 229.83 252.845 229.86 252.875C229.89 252.902 229.923 252.938 229.96 252.985L233.75 257.825C233.74 257.708 233.732 257.593 233.725 257.48C233.718 257.367 233.715 257.262 233.715 257.165V252.77H234.9ZM237.527 254.87V260H236.287V254.87H237.527ZM237.697 253.375C237.697 253.482 237.675 253.582 237.632 253.675C237.588 253.768 237.53 253.85 237.457 253.92C237.387 253.99 237.303 254.047 237.207 254.09C237.11 254.13 237.007 254.15 236.897 254.15C236.79 254.15 236.688 254.13 236.592 254.09C236.498 254.047 236.417 253.99 236.347 253.92C236.277 253.85 236.22 253.768 236.177 253.675C236.137 253.582 236.117 253.482 236.117 253.375C236.117 253.265 236.137 253.162 236.177 253.065C236.22 252.968 236.277 252.885 236.347 252.815C236.417 252.745 236.498 252.69 236.592 252.65C236.688 252.607 236.79 252.585 236.897 252.585C237.007 252.585 237.11 252.607 237.207 252.65C237.303 252.69 237.387 252.745 237.457 252.815C237.53 252.885 237.588 252.968 237.632 253.065C237.675 253.162 237.697 253.265 237.697 253.375ZM240.661 257.31C240.814 257.31 240.947 257.29 241.061 257.25C241.174 257.207 241.267 257.148 241.341 257.075C241.417 257.002 241.474 256.913 241.511 256.81C241.551 256.707 241.571 256.593 241.571 256.47C241.571 256.217 241.494 256.017 241.341 255.87C241.191 255.72 240.964 255.645 240.661 255.645C240.357 255.645 240.129 255.72 239.976 255.87C239.826 256.017 239.751 256.217 239.751 256.47C239.751 256.59 239.769 256.702 239.806 256.805C239.846 256.908 239.902 256.998 239.976 257.075C240.052 257.148 240.147 257.207 240.261 257.25C240.377 257.29 240.511 257.31 240.661 257.31ZM242.056 260.23C242.056 260.13 242.026 260.048 241.966 259.985C241.906 259.922 241.824 259.873 241.721 259.84C241.617 259.803 241.496 259.777 241.356 259.76C241.219 259.743 241.072 259.732 240.916 259.725C240.762 259.715 240.602 259.707 240.436 259.7C240.272 259.693 240.112 259.68 239.956 259.66C239.819 259.737 239.707 259.827 239.621 259.93C239.537 260.033 239.496 260.153 239.496 260.29C239.496 260.38 239.517 260.463 239.561 260.54C239.607 260.62 239.679 260.688 239.776 260.745C239.876 260.802 240.004 260.845 240.161 260.875C240.317 260.908 240.509 260.925 240.736 260.925C240.966 260.925 241.164 260.907 241.331 260.87C241.497 260.837 241.634 260.788 241.741 260.725C241.851 260.665 241.931 260.592 241.981 260.505C242.031 260.422 242.056 260.33 242.056 260.23ZM243.286 255.045V255.505C243.286 255.652 243.197 255.742 243.021 255.775L242.561 255.86C242.631 256.037 242.666 256.23 242.666 256.44C242.666 256.693 242.614 256.923 242.511 257.13C242.411 257.333 242.271 257.507 242.091 257.65C241.911 257.793 241.697 257.905 241.451 257.985C241.207 258.062 240.944 258.1 240.661 258.1C240.561 258.1 240.464 258.095 240.371 258.085C240.277 258.075 240.186 258.062 240.096 258.045C239.936 258.142 239.856 258.25 239.856 258.37C239.856 258.473 239.902 258.55 239.996 258.6C240.092 258.647 240.219 258.68 240.376 258.7C240.532 258.72 240.711 258.733 240.911 258.74C241.111 258.743 241.316 258.753 241.526 258.77C241.736 258.787 241.941 258.817 242.141 258.86C242.341 258.9 242.519 258.965 242.676 259.055C242.832 259.145 242.957 259.268 243.051 259.425C243.147 259.578 243.196 259.777 243.196 260.02C243.196 260.247 243.139 260.467 243.026 260.68C242.916 260.893 242.754 261.083 242.541 261.25C242.331 261.417 242.071 261.55 241.761 261.65C241.454 261.753 241.104 261.805 240.711 261.805C240.324 261.805 239.987 261.767 239.701 261.69C239.414 261.617 239.176 261.517 238.986 261.39C238.796 261.267 238.654 261.123 238.561 260.96C238.467 260.797 238.421 260.627 238.421 260.45C238.421 260.21 238.492 260.01 238.636 259.85C238.782 259.687 238.982 259.557 239.236 259.46C239.099 259.39 238.991 259.297 238.911 259.18C238.831 259.063 238.791 258.91 238.791 258.72C238.791 258.643 238.804 258.565 238.831 258.485C238.861 258.402 238.902 258.32 238.956 258.24C239.012 258.16 239.082 258.085 239.166 258.015C239.249 257.942 239.347 257.877 239.461 257.82C239.201 257.68 238.996 257.493 238.846 257.26C238.699 257.027 238.626 256.753 238.626 256.44C238.626 256.187 238.676 255.958 238.776 255.755C238.879 255.548 239.021 255.373 239.201 255.23C239.384 255.083 239.599 254.972 239.846 254.895C240.096 254.818 240.367 254.78 240.661 254.78C240.881 254.78 241.087 254.803 241.281 254.85C241.474 254.893 241.651 254.958 241.811 255.045H243.286ZM247.286 256.845C247.286 256.685 247.263 256.535 247.216 256.395C247.173 256.252 247.106 256.127 247.016 256.02C246.926 255.913 246.811 255.83 246.671 255.77C246.534 255.707 246.374 255.675 246.191 255.675C245.834 255.675 245.553 255.777 245.346 255.98C245.143 256.183 245.013 256.472 244.956 256.845H247.286ZM244.931 257.59C244.951 257.853 244.998 258.082 245.071 258.275C245.144 258.465 245.241 258.623 245.361 258.75C245.481 258.873 245.623 258.967 245.786 259.03C245.953 259.09 246.136 259.12 246.336 259.12C246.536 259.12 246.708 259.097 246.851 259.05C246.998 259.003 247.124 258.952 247.231 258.895C247.341 258.838 247.436 258.787 247.516 258.74C247.599 258.693 247.679 258.67 247.756 258.67C247.859 258.67 247.936 258.708 247.986 258.785L248.341 259.235C248.204 259.395 248.051 259.53 247.881 259.64C247.711 259.747 247.533 259.833 247.346 259.9C247.163 259.963 246.974 260.008 246.781 260.035C246.591 260.062 246.406 260.075 246.226 260.075C245.869 260.075 245.538 260.017 245.231 259.9C244.924 259.78 244.658 259.605 244.431 259.375C244.204 259.142 244.026 258.855 243.896 258.515C243.766 258.172 243.701 257.775 243.701 257.325C243.701 256.975 243.758 256.647 243.871 256.34C243.984 256.03 244.146 255.762 244.356 255.535C244.569 255.305 244.828 255.123 245.131 254.99C245.438 254.857 245.783 254.79 246.166 254.79C246.489 254.79 246.788 254.842 247.061 254.945C247.334 255.048 247.569 255.2 247.766 255.4C247.963 255.597 248.116 255.84 248.226 256.13C248.339 256.417 248.396 256.745 248.396 257.115C248.396 257.302 248.376 257.428 248.336 257.495C248.296 257.558 248.219 257.59 248.106 257.59H244.931ZM250.573 252.57V260H249.338V252.57H250.573Z" fill="#FFE63B"/>
    <path d="M256.307 36.77L253.387 44H252.172L249.252 36.77H250.332C250.448 36.77 250.543 36.7983 250.617 36.855C250.69 36.9117 250.745 36.985 250.782 37.075L252.487 41.485C252.543 41.6283 252.597 41.7867 252.647 41.96C252.7 42.13 252.75 42.3083 252.797 42.495C252.837 42.3083 252.88 42.13 252.927 41.96C252.973 41.7867 253.025 41.6283 253.082 41.485L254.777 37.075C254.803 36.9983 254.855 36.9283 254.932 36.865C255.012 36.8017 255.108 36.77 255.222 36.77H256.307ZM258.14 38.87V44H256.9V38.87H258.14ZM258.31 37.375C258.31 37.4817 258.288 37.5817 258.245 37.675C258.202 37.7683 258.143 37.85 258.07 37.92C258 37.99 257.917 38.0467 257.82 38.09C257.723 38.13 257.62 38.15 257.51 38.15C257.403 38.15 257.302 38.13 257.205 38.09C257.112 38.0467 257.03 37.99 256.96 37.92C256.89 37.85 256.833 37.7683 256.79 37.675C256.75 37.5817 256.73 37.4817 256.73 37.375C256.73 37.265 256.75 37.1617 256.79 37.065C256.833 36.9683 256.89 36.885 256.96 36.815C257.03 36.745 257.112 36.69 257.205 36.65C257.302 36.6067 257.403 36.585 257.51 36.585C257.62 36.585 257.723 36.6067 257.82 36.65C257.917 36.69 258 36.745 258.07 36.815C258.143 36.885 258.202 36.9683 258.245 37.065C258.288 37.1617 258.31 37.265 258.31 37.375ZM260.554 39.5C260.657 39.3967 260.766 39.3017 260.879 39.215C260.996 39.125 261.117 39.05 261.244 38.99C261.374 38.9267 261.512 38.8783 261.659 38.845C261.806 38.8083 261.966 38.79 262.139 38.79C262.419 38.79 262.667 38.8383 262.884 38.935C263.101 39.0283 263.281 39.1617 263.424 39.335C263.571 39.505 263.681 39.71 263.754 39.95C263.831 40.1867 263.869 40.4483 263.869 40.735V44H262.634V40.735C262.634 40.4217 262.562 40.18 262.419 40.01C262.276 39.8367 262.057 39.75 261.764 39.75C261.551 39.75 261.351 39.7983 261.164 39.895C260.977 39.9917 260.801 40.1233 260.634 40.29V44H259.399V38.87H260.154C260.314 38.87 260.419 38.945 260.469 39.095L260.554 39.5ZM266.324 38.87V44H265.084V38.87H266.324ZM266.494 37.375C266.494 37.4817 266.472 37.5817 266.429 37.675C266.385 37.7683 266.327 37.85 266.254 37.92C266.184 37.99 266.1 38.0467 266.004 38.09C265.907 38.13 265.804 38.15 265.694 38.15C265.587 38.15 265.485 38.13 265.389 38.09C265.295 38.0467 265.214 37.99 265.144 37.92C265.074 37.85 265.017 37.7683 264.974 37.675C264.934 37.5817 264.914 37.4817 264.914 37.375C264.914 37.265 264.934 37.1617 264.974 37.065C265.017 36.9683 265.074 36.885 265.144 36.815C265.214 36.745 265.295 36.69 265.389 36.65C265.485 36.6067 265.587 36.585 265.694 36.585C265.804 36.585 265.907 36.6067 266.004 36.65C266.1 36.69 266.184 36.745 266.254 36.815C266.327 36.885 266.385 36.9683 266.429 37.065C266.472 37.1617 266.494 37.265 266.494 37.375ZM269.293 44.08C268.846 44.08 268.503 43.955 268.263 43.705C268.026 43.4517 267.908 43.1033 267.908 42.66V39.795H267.383C267.316 39.795 267.259 39.7733 267.213 39.73C267.166 39.6867 267.143 39.6217 267.143 39.535V39.045L267.968 38.91L268.228 37.51C268.244 37.4433 268.276 37.3917 268.323 37.355C268.369 37.3183 268.429 37.3 268.503 37.3H269.143V38.915H270.513V39.795H269.143V42.575C269.143 42.735 269.181 42.86 269.258 42.95C269.338 43.04 269.446 43.085 269.583 43.085C269.659 43.085 269.723 43.0767 269.773 43.06C269.826 43.04 269.871 43.02 269.908 43C269.948 42.98 269.983 42.9617 270.013 42.945C270.043 42.925 270.073 42.915 270.103 42.915C270.139 42.915 270.169 42.925 270.193 42.945C270.216 42.9617 270.241 42.9883 270.268 43.025L270.638 43.625C270.458 43.775 270.251 43.8883 270.018 43.965C269.784 44.0417 269.543 44.08 269.293 44.08Z" fill="#079FFF"/>
    <path d="M384.012 89.43C384.012 89.8367 383.962 90.2033 383.862 90.53C383.762 90.8567 383.612 91.135 383.412 91.365C383.215 91.595 382.969 91.7717 382.672 91.895C382.375 92.0183 382.03 92.08 381.637 92.08C381.457 92.08 381.28 92.0683 381.107 92.045C380.934 92.025 380.752 91.9917 380.562 91.945C380.572 91.8117 380.584 91.6783 380.597 91.545C380.61 91.4117 380.622 91.2783 380.632 91.145C380.642 91.0717 380.67 91.0133 380.717 90.97C380.767 90.9233 380.837 90.9 380.927 90.9C380.984 90.9 381.057 90.9117 381.147 90.935C381.24 90.9583 381.357 90.97 381.497 90.97C381.687 90.97 381.855 90.9433 382.002 90.89C382.149 90.8333 382.27 90.745 382.367 90.625C382.467 90.505 382.542 90.35 382.592 90.16C382.642 89.9667 382.667 89.7333 382.667 89.46V84.77H384.012V89.43ZM387.893 89.81C387.537 89.8267 387.237 89.8583 386.993 89.905C386.75 89.9483 386.555 90.005 386.408 90.075C386.262 90.145 386.157 90.2267 386.093 90.32C386.03 90.4133 385.998 90.515 385.998 90.625C385.998 90.8417 386.062 90.9967 386.188 91.09C386.318 91.1833 386.487 91.23 386.693 91.23C386.947 91.23 387.165 91.185 387.348 91.095C387.535 91.0017 387.717 90.8617 387.893 90.675V89.81ZM385.063 87.585C385.653 87.045 386.363 86.775 387.193 86.775C387.493 86.775 387.762 86.825 387.998 86.925C388.235 87.0217 388.435 87.1583 388.598 87.335C388.762 87.5083 388.885 87.7167 388.968 87.96C389.055 88.2033 389.098 88.47 389.098 88.76V92H388.538C388.422 92 388.332 91.9833 388.268 91.95C388.205 91.9133 388.155 91.8417 388.118 91.735L388.008 91.365C387.878 91.4817 387.752 91.585 387.628 91.675C387.505 91.7617 387.377 91.835 387.243 91.895C387.11 91.955 386.967 92 386.813 92.03C386.663 92.0633 386.497 92.08 386.313 92.08C386.097 92.08 385.897 92.0517 385.713 91.995C385.53 91.935 385.372 91.8467 385.238 91.73C385.105 91.6133 385.002 91.4683 384.928 91.295C384.855 91.1217 384.818 90.92 384.818 90.69C384.818 90.56 384.84 90.4317 384.883 90.305C384.927 90.175 384.997 90.0517 385.093 89.935C385.193 89.8183 385.322 89.7083 385.478 89.605C385.635 89.5017 385.827 89.4117 386.053 89.335C386.283 89.2583 386.55 89.1967 386.853 89.15C387.157 89.1 387.503 89.07 387.893 89.06V88.76C387.893 88.4167 387.82 88.1633 387.673 88C387.527 87.8333 387.315 87.75 387.038 87.75C386.838 87.75 386.672 87.7733 386.538 87.82C386.408 87.8667 386.293 87.92 386.193 87.98C386.093 88.0367 386.002 88.0883 385.918 88.135C385.838 88.1817 385.748 88.205 385.648 88.205C385.562 88.205 385.488 88.1833 385.428 88.14C385.368 88.0933 385.32 88.04 385.283 87.98L385.063 87.585ZM393.391 87.87C393.358 87.9233 393.323 87.9617 393.286 87.985C393.25 88.005 393.203 88.015 393.146 88.015C393.086 88.015 393.021 87.9983 392.951 87.965C392.885 87.9317 392.806 87.895 392.716 87.855C392.626 87.8117 392.523 87.7733 392.406 87.74C392.293 87.7067 392.158 87.69 392.001 87.69C391.758 87.69 391.566 87.7417 391.426 87.845C391.29 87.9483 391.221 88.0833 391.221 88.25C391.221 88.36 391.256 88.4533 391.326 88.53C391.4 88.6033 391.495 88.6683 391.611 88.725C391.731 88.7817 391.866 88.8333 392.016 88.88C392.166 88.9233 392.318 88.9717 392.471 89.025C392.628 89.0783 392.781 89.14 392.931 89.21C393.081 89.2767 393.215 89.3633 393.331 89.47C393.451 89.5733 393.546 89.6983 393.616 89.845C393.69 89.9917 393.726 90.1683 393.726 90.375C393.726 90.6217 393.681 90.85 393.591 91.06C393.505 91.2667 393.375 91.4467 393.201 91.6C393.028 91.75 392.813 91.8683 392.556 91.955C392.303 92.0383 392.01 92.08 391.676 92.08C391.5 92.08 391.326 92.0633 391.156 92.03C390.99 92 390.828 91.9567 390.671 91.9C390.518 91.8433 390.375 91.7767 390.241 91.7C390.111 91.6233 389.996 91.54 389.896 91.45L390.181 90.98C390.218 90.9233 390.261 90.88 390.311 90.85C390.361 90.82 390.425 90.805 390.501 90.805C390.578 90.805 390.65 90.8267 390.716 90.87C390.786 90.9133 390.866 90.96 390.956 91.01C391.046 91.06 391.151 91.1067 391.271 91.15C391.395 91.1933 391.55 91.215 391.736 91.215C391.883 91.215 392.008 91.1983 392.111 91.165C392.218 91.1283 392.305 91.0817 392.371 91.025C392.441 90.9683 392.491 90.9033 392.521 90.83C392.555 90.7533 392.571 90.675 392.571 90.595C392.571 90.475 392.535 90.3767 392.461 90.3C392.391 90.2233 392.296 90.1567 392.176 90.1C392.06 90.0433 391.925 89.9933 391.771 89.95C391.621 89.9033 391.466 89.8533 391.306 89.8C391.15 89.7467 390.995 89.685 390.841 89.615C390.691 89.5417 390.556 89.45 390.436 89.34C390.32 89.23 390.225 89.095 390.151 88.935C390.081 88.775 390.046 88.5817 390.046 88.355C390.046 88.145 390.088 87.945 390.171 87.755C390.255 87.565 390.376 87.4 390.536 87.26C390.7 87.1167 390.901 87.0033 391.141 86.92C391.385 86.8333 391.665 86.79 391.981 86.79C392.335 86.79 392.656 86.8483 392.946 86.965C393.236 87.0817 393.478 87.235 393.671 87.425L393.391 87.87ZM394.656 92V86.87H395.411C395.571 86.87 395.676 86.945 395.726 87.095L395.806 87.475C395.896 87.375 395.989 87.2833 396.086 87.2C396.186 87.1167 396.291 87.045 396.401 86.985C396.514 86.925 396.634 86.8783 396.761 86.845C396.891 86.8083 397.033 86.79 397.186 86.79C397.509 86.79 397.774 86.8783 397.981 87.055C398.191 87.2283 398.348 87.46 398.451 87.75C398.531 87.58 398.631 87.435 398.751 87.315C398.871 87.1917 399.003 87.0917 399.146 87.015C399.289 86.9383 399.441 86.8817 399.601 86.845C399.764 86.8083 399.928 86.79 400.091 86.79C400.374 86.79 400.626 86.8333 400.846 86.92C401.066 87.0067 401.251 87.1333 401.401 87.3C401.551 87.4667 401.664 87.67 401.741 87.91C401.821 88.15 401.861 88.425 401.861 88.735V92H400.626V88.735C400.626 88.4083 400.554 88.1633 400.411 88C400.268 87.8333 400.058 87.75 399.781 87.75C399.654 87.75 399.536 87.7717 399.426 87.815C399.319 87.8583 399.224 87.9217 399.141 88.005C399.061 88.085 398.998 88.1867 398.951 88.31C398.904 88.4333 398.881 88.575 398.881 88.735V92H397.641V88.735C397.641 88.3917 397.571 88.1417 397.431 87.985C397.294 87.8283 397.093 87.75 396.826 87.75C396.646 87.75 396.478 87.795 396.321 87.885C396.168 87.9717 396.024 88.0917 395.891 88.245V92H394.656ZM407.558 86.87L404.763 93.41C404.726 93.4967 404.678 93.5617 404.618 93.605C404.561 93.6517 404.473 93.675 404.353 93.675H403.433L404.393 91.615L402.318 86.87H403.403C403.5 86.87 403.575 86.8933 403.628 86.94C403.685 86.9867 403.726 87.04 403.753 87.1L404.843 89.76C404.88 89.85 404.91 89.94 404.933 90.03C404.96 90.12 404.985 90.2117 405.008 90.305C405.038 90.2117 405.068 90.12 405.098 90.03C405.128 89.9367 405.161 89.845 405.198 89.755L406.228 87.1C406.255 87.0333 406.298 86.9783 406.358 86.935C406.421 86.8917 406.491 86.87 406.568 86.87H407.558ZM409.327 87.5C409.43 87.3967 409.538 87.3017 409.652 87.215C409.768 87.125 409.89 87.05 410.017 86.99C410.147 86.9267 410.285 86.8783 410.432 86.845C410.578 86.8083 410.738 86.79 410.912 86.79C411.192 86.79 411.44 86.8383 411.657 86.935C411.873 87.0283 412.053 87.1617 412.197 87.335C412.343 87.505 412.453 87.71 412.527 87.95C412.603 88.1867 412.642 88.4483 412.642 88.735V92H411.407V88.735C411.407 88.4217 411.335 88.18 411.192 88.01C411.048 87.8367 410.83 87.75 410.537 87.75C410.323 87.75 410.123 87.7983 409.937 87.895C409.75 87.9917 409.573 88.1233 409.407 88.29V92H408.172V86.87H408.927C409.087 86.87 409.192 86.945 409.242 87.095L409.327 87.5ZM417.121 88.845C417.121 88.685 417.098 88.535 417.051 88.395C417.008 88.2517 416.941 88.1267 416.851 88.02C416.761 87.9133 416.646 87.83 416.506 87.77C416.369 87.7067 416.209 87.675 416.026 87.675C415.669 87.675 415.388 87.7767 415.181 87.98C414.978 88.1833 414.848 88.4717 414.791 88.845H417.121ZM414.766 89.59C414.786 89.8533 414.833 90.0817 414.906 90.275C414.979 90.465 415.076 90.6233 415.196 90.75C415.316 90.8733 415.458 90.9667 415.621 91.03C415.788 91.09 415.971 91.12 416.171 91.12C416.371 91.12 416.543 91.0967 416.686 91.05C416.833 91.0033 416.959 90.9517 417.066 90.895C417.176 90.8383 417.271 90.7867 417.351 90.74C417.434 90.6933 417.514 90.67 417.591 90.67C417.694 90.67 417.771 90.7083 417.821 90.785L418.176 91.235C418.039 91.395 417.886 91.53 417.716 91.64C417.546 91.7467 417.368 91.8333 417.181 91.9C416.998 91.9633 416.809 92.0083 416.616 92.035C416.426 92.0617 416.241 92.075 416.061 92.075C415.704 92.075 415.373 92.0167 415.066 91.9C414.759 91.78 414.493 91.605 414.266 91.375C414.039 91.1417 413.861 90.855 413.731 90.515C413.601 90.1717 413.536 89.775 413.536 89.325C413.536 88.975 413.593 88.6467 413.706 88.34C413.819 88.03 413.981 87.7617 414.191 87.535C414.404 87.305 414.663 87.1233 414.966 86.99C415.273 86.8567 415.618 86.79 416.001 86.79C416.324 86.79 416.623 86.8417 416.896 86.945C417.169 87.0483 417.404 87.2 417.601 87.4C417.798 87.5967 417.951 87.84 418.061 88.13C418.174 88.4167 418.231 88.745 418.231 89.115C418.231 89.3017 418.211 89.4283 418.171 89.495C418.131 89.5583 418.054 89.59 417.941 89.59H414.766Z" fill="#079FFF"/>
    <path d="M574.086 176.085C574.046 176.155 574.002 176.207 573.956 176.24C573.912 176.27 573.857 176.285 573.791 176.285C573.721 176.285 573.644 176.26 573.561 176.21C573.481 176.157 573.384 176.098 573.271 176.035C573.157 175.972 573.024 175.915 572.871 175.865C572.721 175.812 572.542 175.785 572.336 175.785C572.149 175.785 571.986 175.808 571.846 175.855C571.706 175.898 571.587 175.96 571.491 176.04C571.397 176.12 571.327 176.217 571.281 176.33C571.234 176.44 571.211 176.562 571.211 176.695C571.211 176.865 571.257 177.007 571.351 177.12C571.447 177.233 571.574 177.33 571.731 177.41C571.887 177.49 572.066 177.562 572.266 177.625C572.466 177.688 572.671 177.757 572.881 177.83C573.091 177.9 573.296 177.983 573.496 178.08C573.696 178.173 573.874 178.293 574.031 178.44C574.187 178.583 574.312 178.76 574.406 178.97C574.502 179.18 574.551 179.435 574.551 179.735C574.551 180.062 574.494 180.368 574.381 180.655C574.271 180.938 574.107 181.187 573.891 181.4C573.677 181.61 573.416 181.777 573.106 181.9C572.796 182.02 572.441 182.08 572.041 182.08C571.811 182.08 571.584 182.057 571.361 182.01C571.137 181.967 570.922 181.903 570.716 181.82C570.512 181.737 570.321 181.637 570.141 181.52C569.961 181.403 569.801 181.273 569.661 181.13L570.056 180.485C570.089 180.438 570.132 180.4 570.186 180.37C570.239 180.337 570.296 180.32 570.356 180.32C570.439 180.32 570.529 180.355 570.626 180.425C570.722 180.492 570.837 180.567 570.971 180.65C571.104 180.733 571.259 180.81 571.436 180.88C571.616 180.947 571.831 180.98 572.081 180.98C572.464 180.98 572.761 180.89 572.971 180.71C573.181 180.527 573.286 180.265 573.286 179.925C573.286 179.735 573.237 179.58 573.141 179.46C573.047 179.34 572.922 179.24 572.766 179.16C572.609 179.077 572.431 179.007 572.231 178.95C572.031 178.893 571.827 178.832 571.621 178.765C571.414 178.698 571.211 178.618 571.011 178.525C570.811 178.432 570.632 178.31 570.476 178.16C570.319 178.01 570.192 177.823 570.096 177.6C570.002 177.373 569.956 177.095 569.956 176.765C569.956 176.502 570.007 176.245 570.111 175.995C570.217 175.745 570.371 175.523 570.571 175.33C570.771 175.137 571.017 174.982 571.311 174.865C571.604 174.748 571.941 174.69 572.321 174.69C572.747 174.69 573.141 174.757 573.501 174.89C573.861 175.023 574.167 175.21 574.421 175.45L574.086 176.085ZM579.935 176.87L577.14 183.41C577.103 183.497 577.055 183.562 576.995 183.605C576.938 183.652 576.85 183.675 576.73 183.675H575.81L576.77 181.615L574.695 176.87H575.78C575.877 176.87 575.952 176.893 576.005 176.94C576.062 176.987 576.103 177.04 576.13 177.1L577.22 179.76C577.257 179.85 577.287 179.94 577.31 180.03C577.337 180.12 577.362 180.212 577.385 180.305C577.415 180.212 577.445 180.12 577.475 180.03C577.505 179.937 577.538 179.845 577.575 179.755L578.605 177.1C578.632 177.033 578.675 176.978 578.735 176.935C578.798 176.892 578.868 176.87 578.945 176.87H579.935ZM583.612 178.18C583.472 178.01 583.319 177.89 583.152 177.82C582.989 177.75 582.812 177.715 582.622 177.715C582.436 177.715 582.267 177.75 582.117 177.82C581.967 177.89 581.839 177.997 581.732 178.14C581.626 178.28 581.544 178.46 581.487 178.68C581.431 178.897 581.402 179.153 581.402 179.45C581.402 179.75 581.426 180.005 581.472 180.215C581.522 180.422 581.592 180.592 581.682 180.725C581.772 180.855 581.882 180.95 582.012 181.01C582.142 181.067 582.287 181.095 582.447 181.095C582.704 181.095 582.922 181.042 583.102 180.935C583.282 180.828 583.452 180.677 583.612 180.48V178.18ZM584.847 174.57V182H584.092C583.929 182 583.826 181.925 583.782 181.775L583.677 181.28C583.471 181.517 583.232 181.708 582.962 181.855C582.696 182.002 582.384 182.075 582.027 182.075C581.747 182.075 581.491 182.017 581.257 181.9C581.024 181.783 580.822 181.615 580.652 181.395C580.486 181.172 580.356 180.897 580.262 180.57C580.172 180.243 580.127 179.87 580.127 179.45C580.127 179.07 580.179 178.717 580.282 178.39C580.386 178.063 580.534 177.78 580.727 177.54C580.921 177.3 581.152 177.113 581.422 176.98C581.692 176.843 581.996 176.775 582.332 176.775C582.619 176.775 582.864 176.82 583.067 176.91C583.271 177 583.452 177.122 583.612 177.275V174.57H584.847ZM587.221 177.5C587.324 177.397 587.433 177.302 587.546 177.215C587.663 177.125 587.784 177.05 587.911 176.99C588.041 176.927 588.179 176.878 588.326 176.845C588.473 176.808 588.633 176.79 588.806 176.79C589.086 176.79 589.334 176.838 589.551 176.935C589.768 177.028 589.948 177.162 590.091 177.335C590.238 177.505 590.348 177.71 590.421 177.95C590.498 178.187 590.536 178.448 590.536 178.735V182H589.301V178.735C589.301 178.422 589.229 178.18 589.086 178.01C588.943 177.837 588.724 177.75 588.431 177.75C588.218 177.75 588.018 177.798 587.831 177.895C587.644 177.992 587.468 178.123 587.301 178.29V182H586.066V176.87H586.821C586.981 176.87 587.086 176.945 587.136 177.095L587.221 177.5ZM595.016 178.845C595.016 178.685 594.992 178.535 594.946 178.395C594.902 178.252 594.836 178.127 594.746 178.02C594.656 177.913 594.541 177.83 594.401 177.77C594.264 177.707 594.104 177.675 593.921 177.675C593.564 177.675 593.282 177.777 593.076 177.98C592.872 178.183 592.742 178.472 592.686 178.845H595.016ZM592.661 179.59C592.681 179.853 592.727 180.082 592.801 180.275C592.874 180.465 592.971 180.623 593.091 180.75C593.211 180.873 593.352 180.967 593.516 181.03C593.682 181.09 593.866 181.12 594.066 181.12C594.266 181.12 594.437 181.097 594.581 181.05C594.727 181.003 594.854 180.952 594.961 180.895C595.071 180.838 595.166 180.787 595.246 180.74C595.329 180.693 595.409 180.67 595.486 180.67C595.589 180.67 595.666 180.708 595.716 180.785L596.071 181.235C595.934 181.395 595.781 181.53 595.611 181.64C595.441 181.747 595.262 181.833 595.076 181.9C594.892 181.963 594.704 182.008 594.511 182.035C594.321 182.062 594.136 182.075 593.956 182.075C593.599 182.075 593.267 182.017 592.961 181.9C592.654 181.78 592.387 181.605 592.161 181.375C591.934 181.142 591.756 180.855 591.626 180.515C591.496 180.172 591.431 179.775 591.431 179.325C591.431 178.975 591.487 178.647 591.601 178.34C591.714 178.03 591.876 177.762 592.086 177.535C592.299 177.305 592.557 177.123 592.861 176.99C593.167 176.857 593.512 176.79 593.896 176.79C594.219 176.79 594.517 176.842 594.791 176.945C595.064 177.048 595.299 177.2 595.496 177.4C595.692 177.597 595.846 177.84 595.956 178.13C596.069 178.417 596.126 178.745 596.126 179.115C596.126 179.302 596.106 179.428 596.066 179.495C596.026 179.558 595.949 179.59 595.836 179.59H592.661ZM601.566 176.87L598.771 183.41C598.734 183.497 598.686 183.562 598.626 183.605C598.569 183.652 598.481 183.675 598.361 183.675H597.441L598.401 181.615L596.326 176.87H597.411C597.508 176.87 597.583 176.893 597.636 176.94C597.693 176.987 597.734 177.04 597.761 177.1L598.851 179.76C598.888 179.85 598.918 179.94 598.941 180.03C598.968 180.12 598.993 180.212 599.016 180.305C599.046 180.212 599.076 180.12 599.106 180.03C599.136 179.937 599.169 179.845 599.206 179.755L600.236 177.1C600.263 177.033 600.306 176.978 600.366 176.935C600.429 176.892 600.499 176.87 600.576 176.87H601.566Z" fill="#079FFF"/>
    <path d="M356.797 366.27L355.917 363.865C355.874 363.758 355.829 363.632 355.782 363.485C355.735 363.338 355.689 363.18 355.642 363.01C355.599 363.18 355.554 363.34 355.507 363.49C355.46 363.637 355.415 363.765 355.372 363.875L354.497 366.27H356.797ZM359.172 369H358.132C358.015 369 357.92 368.972 357.847 368.915C357.774 368.855 357.719 368.782 357.682 368.695L357.142 367.22H354.147L353.607 368.695C353.58 368.772 353.529 368.842 353.452 368.905C353.375 368.968 353.28 369 353.167 369H352.117L354.962 361.77H356.332L359.172 369ZM360.87 364.5C360.974 364.397 361.082 364.302 361.195 364.215C361.312 364.125 361.434 364.05 361.56 363.99C361.69 363.927 361.829 363.878 361.975 363.845C362.122 363.808 362.282 363.79 362.455 363.79C362.735 363.79 362.984 363.838 363.2 363.935C363.417 364.028 363.597 364.162 363.74 364.335C363.887 364.505 363.997 364.71 364.07 364.95C364.147 365.187 364.185 365.448 364.185 365.735V369H362.95V365.735C362.95 365.422 362.879 365.18 362.735 365.01C362.592 364.837 362.374 364.75 362.08 364.75C361.867 364.75 361.667 364.798 361.48 364.895C361.294 364.992 361.117 365.123 360.95 365.29V369H359.715V363.87H360.47C360.63 363.87 360.735 363.945 360.785 364.095L360.87 364.5ZM368.07 366.81C367.713 366.827 367.413 366.858 367.17 366.905C366.927 366.948 366.732 367.005 366.585 367.075C366.438 367.145 366.333 367.227 366.27 367.32C366.207 367.413 366.175 367.515 366.175 367.625C366.175 367.842 366.238 367.997 366.365 368.09C366.495 368.183 366.663 368.23 366.87 368.23C367.123 368.23 367.342 368.185 367.525 368.095C367.712 368.002 367.893 367.862 368.07 367.675V366.81ZM365.24 364.585C365.83 364.045 366.54 363.775 367.37 363.775C367.67 363.775 367.938 363.825 368.175 363.925C368.412 364.022 368.612 364.158 368.775 364.335C368.938 364.508 369.062 364.717 369.145 364.96C369.232 365.203 369.275 365.47 369.275 365.76V369H368.715C368.598 369 368.508 368.983 368.445 368.95C368.382 368.913 368.332 368.842 368.295 368.735L368.185 368.365C368.055 368.482 367.928 368.585 367.805 368.675C367.682 368.762 367.553 368.835 367.42 368.895C367.287 368.955 367.143 369 366.99 369.03C366.84 369.063 366.673 369.08 366.49 369.08C366.273 369.08 366.073 369.052 365.89 368.995C365.707 368.935 365.548 368.847 365.415 368.73C365.282 368.613 365.178 368.468 365.105 368.295C365.032 368.122 364.995 367.92 364.995 367.69C364.995 367.56 365.017 367.432 365.06 367.305C365.103 367.175 365.173 367.052 365.27 366.935C365.37 366.818 365.498 366.708 365.655 366.605C365.812 366.502 366.003 366.412 366.23 366.335C366.46 366.258 366.727 366.197 367.03 366.15C367.333 366.1 367.68 366.07 368.07 366.06V365.76C368.07 365.417 367.997 365.163 367.85 365C367.703 364.833 367.492 364.75 367.215 364.75C367.015 364.75 366.848 364.773 366.715 364.82C366.585 364.867 366.47 364.92 366.37 364.98C366.27 365.037 366.178 365.088 366.095 365.135C366.015 365.182 365.925 365.205 365.825 365.205C365.738 365.205 365.665 365.183 365.605 365.14C365.545 365.093 365.497 365.04 365.46 364.98L365.24 364.585Z" fill="#079FFF"/>
    <path d="M632.641 43.9063C632.641 44.6657 632.475 45.416 632.154 46.1043C631.833 46.7927 631.366 47.4026 630.784 47.891C630.203 48.3795 629.521 48.7347 628.788 48.9318C628.054 49.1289 627.287 49.1631 626.539 49.0319C625.791 48.9007 625.08 48.6073 624.458 48.1725C623.835 47.7376 623.316 47.1716 622.935 46.5145C622.554 45.8573 622.322 45.1247 622.255 44.3683C622.188 43.6119 622.287 42.8499 622.545 42.1358L614.885 37.2145C614.153 37.9321 613.226 38.4177 612.22 38.6104C611.213 38.803 610.172 38.6942 609.227 38.2974C608.282 37.9007 607.476 37.2338 606.908 36.3803C606.341 35.5268 606.038 34.5248 606.038 33.5C606.038 32.4752 606.341 31.4732 606.908 30.6198C607.476 29.7663 608.282 29.0994 609.227 28.7026C610.172 28.3059 611.213 28.197 612.22 28.3897C613.226 28.5823 614.153 29.0679 614.885 29.7856L622.545 24.8715C622.107 23.6662 622.127 22.3415 622.604 21.1506C623.08 19.9597 623.978 18.986 625.127 18.4156C626.276 17.8453 627.595 17.7182 628.832 18.0588C630.068 18.3993 631.136 19.1835 631.831 20.2616C632.526 21.3397 632.799 22.636 632.599 23.9029C632.398 25.1698 631.738 26.3185 630.744 27.1293C629.75 27.9402 628.493 28.3564 627.211 28.2985C625.93 28.2406 624.715 27.7127 623.798 26.8155L616.138 31.7368C616.552 32.8808 616.552 34.1337 616.138 35.2778L623.798 40.1991C624.53 39.4833 625.456 38.9991 626.461 38.807C627.466 38.6149 628.506 38.7235 629.449 39.1192C630.393 39.5149 631.199 40.18 631.767 41.0315C632.334 41.883 632.638 42.8829 632.641 43.9063Z" fill="#464246"/>
</svg>
