<svg width="664" height="425" viewBox="0 0 664 425" fill="none" xmlns="http://www.w3.org/2000/svg">
    <rect x="0.5" y="0.5" width="663" height="424" rx="24.5" fill="white" stroke="#DFEAF2"/>
    <path d="M38.51 58.324L35.816 67H34.358L32.462 61.072C32.41 60.928 32.362 60.752 32.318 60.544C32.294 60.644 32.27 60.738 32.246 60.826C32.222 60.914 32.196 60.996 32.168 61.072L30.254 67H28.79L26.102 58.324H27.452C27.592 58.324 27.708 58.358 27.8 58.426C27.896 58.49 27.96 58.578 27.992 58.69L29.468 63.88C29.5 64.008 29.53 64.148 29.558 64.3C29.59 64.448 29.622 64.604 29.654 64.768C29.686 64.6 29.72 64.442 29.756 64.294C29.796 64.146 29.838 64.008 29.882 63.88L31.586 58.69C31.618 58.598 31.68 58.514 31.772 58.438C31.868 58.362 31.984 58.324 32.12 58.324H32.594C32.734 58.324 32.848 58.358 32.936 58.426C33.024 58.494 33.09 58.582 33.134 58.69L34.832 63.88C34.916 64.128 34.992 64.414 35.06 64.738C35.112 64.422 35.17 64.136 35.234 63.88L36.71 58.69C36.734 58.59 36.794 58.504 36.89 58.432C36.99 58.36 37.108 58.324 37.244 58.324H38.51ZM40.7296 61.504C40.9696 61.28 41.2336 61.098 41.5216 60.958C41.8096 60.818 42.1476 60.748 42.5356 60.748C42.8716 60.748 43.1696 60.806 43.4296 60.922C43.6896 61.034 43.9056 61.194 44.0776 61.402C44.2536 61.606 44.3856 61.852 44.4736 62.14C44.5656 62.424 44.6116 62.738 44.6116 63.082V67H43.1296V63.082C43.1296 62.706 43.0436 62.416 42.8716 62.212C42.6996 62.004 42.4376 61.9 42.0856 61.9C41.8296 61.9 41.5896 61.958 41.3656 62.074C41.1416 62.19 40.9296 62.348 40.7296 62.548V67H39.2476V58.084H40.7296V61.504ZM49.2731 64.372C48.8451 64.392 48.4851 64.43 48.1931 64.486C47.9011 64.538 47.6671 64.606 47.4911 64.69C47.3151 64.774 47.1891 64.872 47.1131 64.984C47.0371 65.096 46.9991 65.218 46.9991 65.35C46.9991 65.61 47.0751 65.796 47.2271 65.908C47.3831 66.02 47.5851 66.076 47.8331 66.076C48.1371 66.076 48.3991 66.022 48.6191 65.914C48.8431 65.802 49.0611 65.634 49.2731 65.41V64.372ZM45.8771 61.702C46.5851 61.054 47.4371 60.73 48.4331 60.73C48.7931 60.73 49.1151 60.79 49.3991 60.91C49.6831 61.026 49.9231 61.19 50.1191 61.402C50.3151 61.61 50.4631 61.86 50.5631 62.152C50.6671 62.444 50.7191 62.764 50.7191 63.112V67H50.0471C49.9071 67 49.7991 66.98 49.7231 66.94C49.6471 66.896 49.5871 66.81 49.5431 66.682L49.4111 66.238C49.2551 66.378 49.1031 66.502 48.9551 66.61C48.8071 66.714 48.6531 66.802 48.4931 66.874C48.3331 66.946 48.1611 67 47.9771 67.036C47.7971 67.076 47.5971 67.096 47.3771 67.096C47.1171 67.096 46.8771 67.062 46.6571 66.994C46.4371 66.922 46.2471 66.816 46.0871 66.676C45.9271 66.536 45.8031 66.362 45.7151 66.154C45.6271 65.946 45.5831 65.704 45.5831 65.428C45.5831 65.272 45.6091 65.118 45.6611 64.966C45.7131 64.81 45.7971 64.662 45.9131 64.522C46.0331 64.382 46.1871 64.25 46.3751 64.126C46.5631 64.002 46.7931 63.894 47.0651 63.802C47.3411 63.71 47.6611 63.636 48.0251 63.58C48.3891 63.52 48.8051 63.484 49.2731 63.472V63.112C49.2731 62.7 49.1851 62.396 49.0091 62.2C48.8331 62 48.5791 61.9 48.2471 61.9C48.0071 61.9 47.8071 61.928 47.6471 61.984C47.4911 62.04 47.3531 62.104 47.2331 62.176C47.1131 62.244 47.0031 62.306 46.9031 62.362C46.8071 62.418 46.6991 62.446 46.5791 62.446C46.4751 62.446 46.3871 62.42 46.3151 62.368C46.2431 62.312 46.1851 62.248 46.1411 62.176L45.8771 61.702ZM54.0848 67.096C53.5488 67.096 53.1368 66.946 52.8488 66.646C52.5648 66.342 52.4228 65.924 52.4228 65.392V61.954H51.7928C51.7128 61.954 51.6448 61.928 51.5888 61.876C51.5328 61.824 51.5048 61.746 51.5048 61.642V61.054L52.4948 60.892L52.8068 59.212C52.8268 59.132 52.8648 59.07 52.9208 59.026C52.9768 58.982 53.0488 58.96 53.1368 58.96H53.9048V60.898H55.5488V61.954H53.9048V65.29C53.9048 65.482 53.9508 65.632 54.0428 65.74C54.1388 65.848 54.2688 65.902 54.4328 65.902C54.5248 65.902 54.6008 65.892 54.6608 65.872C54.7248 65.848 54.7788 65.824 54.8228 65.8C54.8708 65.776 54.9128 65.754 54.9488 65.734C54.9848 65.71 55.0208 65.698 55.0568 65.698C55.1008 65.698 55.1368 65.71 55.1648 65.734C55.1928 65.754 55.2228 65.786 55.2548 65.83L55.6988 66.55C55.4828 66.73 55.2348 66.866 54.9548 66.958C54.6748 67.05 54.3848 67.096 54.0848 67.096ZM60.8976 61.504C61.1376 61.28 61.4016 61.098 61.6896 60.958C61.9776 60.818 62.3156 60.748 62.7036 60.748C63.0396 60.748 63.3376 60.806 63.5976 60.922C63.8576 61.034 64.0736 61.194 64.2456 61.402C64.4216 61.606 64.5536 61.852 64.6416 62.14C64.7336 62.424 64.7796 62.738 64.7796 63.082V67H63.2976V63.082C63.2976 62.706 63.2116 62.416 63.0396 62.212C62.8676 62.004 62.6056 61.9 62.2536 61.9C61.9976 61.9 61.7576 61.958 61.5336 62.074C61.3096 62.19 61.0976 62.348 60.8976 62.548V67H59.4156V58.084H60.8976V61.504ZM69.441 64.372C69.013 64.392 68.653 64.43 68.361 64.486C68.069 64.538 67.835 64.606 67.659 64.69C67.483 64.774 67.357 64.872 67.281 64.984C67.205 65.096 67.167 65.218 67.167 65.35C67.167 65.61 67.243 65.796 67.395 65.908C67.551 66.02 67.753 66.076 68.001 66.076C68.305 66.076 68.567 66.022 68.787 65.914C69.011 65.802 69.229 65.634 69.441 65.41V64.372ZM66.045 61.702C66.753 61.054 67.605 60.73 68.601 60.73C68.961 60.73 69.283 60.79 69.567 60.91C69.851 61.026 70.091 61.19 70.287 61.402C70.483 61.61 70.631 61.86 70.731 62.152C70.835 62.444 70.887 62.764 70.887 63.112V67H70.215C70.075 67 69.967 66.98 69.891 66.94C69.815 66.896 69.755 66.81 69.711 66.682L69.579 66.238C69.423 66.378 69.271 66.502 69.123 66.61C68.975 66.714 68.821 66.802 68.661 66.874C68.501 66.946 68.329 67 68.145 67.036C67.965 67.076 67.765 67.096 67.545 67.096C67.285 67.096 67.045 67.062 66.825 66.994C66.605 66.922 66.415 66.816 66.255 66.676C66.095 66.536 65.971 66.362 65.883 66.154C65.795 65.946 65.751 65.704 65.751 65.428C65.751 65.272 65.777 65.118 65.829 64.966C65.881 64.81 65.965 64.662 66.081 64.522C66.201 64.382 66.355 64.25 66.543 64.126C66.731 64.002 66.961 63.894 67.233 63.802C67.509 63.71 67.829 63.636 68.193 63.58C68.557 63.52 68.973 63.484 69.441 63.472V63.112C69.441 62.7 69.353 62.396 69.177 62.2C69.001 62 68.747 61.9 68.415 61.9C68.175 61.9 67.975 61.928 67.815 61.984C67.659 62.04 67.521 62.104 67.401 62.176C67.281 62.244 67.171 62.306 67.071 62.362C66.975 62.418 66.867 62.446 66.747 62.446C66.643 62.446 66.555 62.42 66.483 62.368C66.411 62.312 66.353 62.248 66.309 62.176L66.045 61.702ZM77.6922 60.844L75.2502 67H73.9062L71.4642 60.844H72.6882C72.8002 60.844 72.8922 60.87 72.9642 60.922C73.0402 60.974 73.0902 61.04 73.1142 61.12L74.3022 64.408C74.3662 64.6 74.4222 64.788 74.4702 64.972C74.5182 65.156 74.5602 65.34 74.5962 65.524C74.6362 65.34 74.6802 65.156 74.7282 64.972C74.7762 64.788 74.8342 64.6 74.9022 64.408L76.1142 61.12C76.1422 61.04 76.1922 60.974 76.2642 60.922C76.3362 60.87 76.4222 60.844 76.5222 60.844H77.6922ZM82.2605 63.214C82.2605 63.022 82.2325 62.842 82.1765 62.674C82.1245 62.502 82.0445 62.352 81.9365 62.224C81.8285 62.096 81.6905 61.996 81.5225 61.924C81.3585 61.848 81.1665 61.81 80.9465 61.81C80.5185 61.81 80.1805 61.932 79.9325 62.176C79.6885 62.42 79.5325 62.766 79.4645 63.214H82.2605ZM79.4345 64.108C79.4585 64.424 79.5145 64.698 79.6025 64.93C79.6905 65.158 79.8065 65.348 79.9505 65.5C80.0945 65.648 80.2645 65.76 80.4605 65.836C80.6605 65.908 80.8805 65.944 81.1205 65.944C81.3605 65.944 81.5665 65.916 81.7385 65.86C81.9145 65.804 82.0665 65.742 82.1945 65.674C82.3265 65.606 82.4405 65.544 82.5365 65.488C82.6365 65.432 82.7325 65.404 82.8245 65.404C82.9485 65.404 83.0405 65.45 83.1005 65.542L83.5265 66.082C83.3625 66.274 83.1785 66.436 82.9745 66.568C82.7705 66.696 82.5565 66.8 82.3325 66.88C82.1125 66.956 81.8865 67.01 81.6545 67.042C81.4265 67.074 81.2045 67.09 80.9885 67.09C80.5605 67.09 80.1625 67.02 79.7945 66.88C79.4265 66.736 79.1065 66.526 78.8345 66.25C78.5625 65.97 78.3485 65.626 78.1925 65.218C78.0365 64.806 77.9585 64.33 77.9585 63.79C77.9585 63.37 78.0265 62.976 78.1625 62.608C78.2985 62.236 78.4925 61.914 78.7445 61.642C79.0005 61.366 79.3105 61.148 79.6745 60.988C80.0425 60.828 80.4565 60.748 80.9165 60.748C81.3045 60.748 81.6625 60.81 81.9905 60.934C82.3185 61.058 82.6005 61.24 82.8365 61.48C83.0725 61.716 83.2565 62.008 83.3885 62.356C83.5245 62.7 83.5925 63.094 83.5925 63.538C83.5925 63.762 83.5685 63.914 83.5205 63.994C83.4725 64.07 83.3805 64.108 83.2445 64.108H79.4345ZM89.1046 65.404C89.2726 65.608 89.4546 65.752 89.6506 65.836C89.8506 65.92 90.0666 65.962 90.2986 65.962C90.5226 65.962 90.7246 65.92 90.9046 65.836C91.0846 65.752 91.2366 65.624 91.3606 65.452C91.4886 65.28 91.5866 65.064 91.6546 64.804C91.7226 64.54 91.7566 64.23 91.7566 63.874C91.7566 63.514 91.7266 63.21 91.6666 62.962C91.6106 62.71 91.5286 62.506 91.4206 62.35C91.3126 62.194 91.1806 62.08 91.0246 62.008C90.8726 61.936 90.6986 61.9 90.5026 61.9C90.1946 61.9 89.9326 61.966 89.7166 62.098C89.5006 62.226 89.2966 62.408 89.1046 62.644V65.404ZM89.0266 61.684C89.2786 61.4 89.5646 61.17 89.8846 60.994C90.2046 60.818 90.5806 60.73 91.0126 60.73C91.3486 60.73 91.6546 60.8 91.9306 60.94C92.2106 61.08 92.4506 61.284 92.6506 61.552C92.8546 61.816 93.0106 62.144 93.1186 62.536C93.2306 62.924 93.2866 63.37 93.2866 63.874C93.2866 64.334 93.2246 64.76 93.1006 65.152C92.9766 65.544 92.7986 65.884 92.5666 66.172C92.3386 66.46 92.0606 66.686 91.7326 66.85C91.4086 67.01 91.0446 67.09 90.6406 67.09C90.2966 67.09 90.0026 67.038 89.7586 66.934C89.5146 66.826 89.2966 66.678 89.1046 66.49V69.01H87.6226V60.844H88.5286C88.7206 60.844 88.8466 60.934 88.9066 61.114L89.0266 61.684ZM98.4089 63.214C98.4089 63.022 98.3809 62.842 98.3249 62.674C98.2729 62.502 98.1929 62.352 98.0849 62.224C97.9769 62.096 97.8389 61.996 97.6709 61.924C97.5069 61.848 97.3149 61.81 97.0949 61.81C96.6669 61.81 96.3289 61.932 96.0809 62.176C95.8369 62.42 95.6809 62.766 95.6129 63.214H98.4089ZM95.5829 64.108C95.6069 64.424 95.6629 64.698 95.7509 64.93C95.8389 65.158 95.9549 65.348 96.0989 65.5C96.2429 65.648 96.4129 65.76 96.6089 65.836C96.8089 65.908 97.0289 65.944 97.2689 65.944C97.5089 65.944 97.7149 65.916 97.8869 65.86C98.0629 65.804 98.2149 65.742 98.3429 65.674C98.4749 65.606 98.5889 65.544 98.6849 65.488C98.7849 65.432 98.8809 65.404 98.9729 65.404C99.0969 65.404 99.1889 65.45 99.2489 65.542L99.6749 66.082C99.5109 66.274 99.3269 66.436 99.1229 66.568C98.9189 66.696 98.7049 66.8 98.4809 66.88C98.2609 66.956 98.0349 67.01 97.8029 67.042C97.5749 67.074 97.3529 67.09 97.1369 67.09C96.7089 67.09 96.3109 67.02 95.9429 66.88C95.5749 66.736 95.2549 66.526 94.9829 66.25C94.7109 65.97 94.4969 65.626 94.3409 65.218C94.1849 64.806 94.1069 64.33 94.1069 63.79C94.1069 63.37 94.1749 62.976 94.3109 62.608C94.4469 62.236 94.6409 61.914 94.8929 61.642C95.1489 61.366 95.4589 61.148 95.8229 60.988C96.1909 60.828 96.6049 60.748 97.0649 60.748C97.4529 60.748 97.8109 60.81 98.1389 60.934C98.4669 61.058 98.7489 61.24 98.9849 61.48C99.2209 61.716 99.4049 62.008 99.5369 62.356C99.6729 62.7 99.7409 63.094 99.7409 63.538C99.7409 63.762 99.7169 63.914 99.6689 63.994C99.6209 64.07 99.5289 64.108 99.3929 64.108H95.5829ZM103.577 60.748C104.033 60.748 104.447 60.822 104.819 60.97C105.195 61.118 105.515 61.328 105.779 61.6C106.047 61.872 106.253 62.204 106.397 62.596C106.541 62.988 106.613 63.426 106.613 63.91C106.613 64.398 106.541 64.838 106.397 65.23C106.253 65.622 106.047 65.956 105.779 66.232C105.515 66.508 105.195 66.72 104.819 66.868C104.447 67.016 104.033 67.09 103.577 67.09C103.117 67.09 102.699 67.016 102.323 66.868C101.947 66.72 101.625 66.508 101.357 66.232C101.093 65.956 100.887 65.622 100.739 65.23C100.595 64.838 100.523 64.398 100.523 63.91C100.523 63.426 100.595 62.988 100.739 62.596C100.887 62.204 101.093 61.872 101.357 61.6C101.625 61.328 101.947 61.118 102.323 60.97C102.699 60.822 103.117 60.748 103.577 60.748ZM103.577 65.95C104.089 65.95 104.467 65.778 104.711 65.434C104.959 65.09 105.083 64.586 105.083 63.922C105.083 63.258 104.959 62.752 104.711 62.404C104.467 62.056 104.089 61.882 103.577 61.882C103.057 61.882 102.671 62.058 102.419 62.41C102.171 62.758 102.047 63.262 102.047 63.922C102.047 64.582 102.171 65.086 102.419 65.434C102.671 65.778 103.057 65.95 103.577 65.95ZM109.226 65.404C109.394 65.608 109.576 65.752 109.772 65.836C109.972 65.92 110.188 65.962 110.42 65.962C110.644 65.962 110.846 65.92 111.026 65.836C111.206 65.752 111.358 65.624 111.482 65.452C111.61 65.28 111.708 65.064 111.776 64.804C111.844 64.54 111.878 64.23 111.878 63.874C111.878 63.514 111.848 63.21 111.788 62.962C111.732 62.71 111.65 62.506 111.542 62.35C111.434 62.194 111.302 62.08 111.146 62.008C110.994 61.936 110.82 61.9 110.624 61.9C110.316 61.9 110.054 61.966 109.838 62.098C109.622 62.226 109.418 62.408 109.226 62.644V65.404ZM109.148 61.684C109.4 61.4 109.686 61.17 110.006 60.994C110.326 60.818 110.702 60.73 111.134 60.73C111.47 60.73 111.776 60.8 112.052 60.94C112.332 61.08 112.572 61.284 112.772 61.552C112.976 61.816 113.132 62.144 113.24 62.536C113.352 62.924 113.408 63.37 113.408 63.874C113.408 64.334 113.346 64.76 113.222 65.152C113.098 65.544 112.92 65.884 112.688 66.172C112.46 66.46 112.182 66.686 111.854 66.85C111.53 67.01 111.166 67.09 110.762 67.09C110.418 67.09 110.124 67.038 109.88 66.934C109.636 66.826 109.418 66.678 109.226 66.49V69.01H107.744V60.844H108.65C108.842 60.844 108.968 60.934 109.028 61.114L109.148 61.684ZM116.064 58.084V67H114.582V58.084H116.064ZM121.507 63.214C121.507 63.022 121.479 62.842 121.423 62.674C121.371 62.502 121.291 62.352 121.183 62.224C121.075 62.096 120.937 61.996 120.769 61.924C120.605 61.848 120.413 61.81 120.193 61.81C119.765 61.81 119.427 61.932 119.179 62.176C118.935 62.42 118.779 62.766 118.711 63.214H121.507ZM118.681 64.108C118.705 64.424 118.761 64.698 118.849 64.93C118.937 65.158 119.053 65.348 119.197 65.5C119.341 65.648 119.511 65.76 119.707 65.836C119.907 65.908 120.127 65.944 120.367 65.944C120.607 65.944 120.813 65.916 120.985 65.86C121.161 65.804 121.313 65.742 121.441 65.674C121.573 65.606 121.687 65.544 121.783 65.488C121.883 65.432 121.979 65.404 122.071 65.404C122.195 65.404 122.287 65.45 122.347 65.542L122.773 66.082C122.609 66.274 122.425 66.436 122.221 66.568C122.017 66.696 121.803 66.8 121.579 66.88C121.359 66.956 121.133 67.01 120.901 67.042C120.673 67.074 120.451 67.09 120.235 67.09C119.807 67.09 119.409 67.02 119.041 66.88C118.673 66.736 118.353 66.526 118.081 66.25C117.809 65.97 117.595 65.626 117.439 65.218C117.283 64.806 117.205 64.33 117.205 63.79C117.205 63.37 117.273 62.976 117.409 62.608C117.545 62.236 117.739 61.914 117.991 61.642C118.247 61.366 118.557 61.148 118.921 60.988C119.289 60.828 119.703 60.748 120.163 60.748C120.551 60.748 120.909 60.81 121.237 60.934C121.565 61.058 121.847 61.24 122.083 61.48C122.319 61.716 122.503 62.008 122.635 62.356C122.771 62.7 122.839 63.094 122.839 63.538C122.839 63.762 122.815 63.914 122.767 63.994C122.719 64.07 122.627 64.108 122.491 64.108H118.681ZM128.351 65.404C128.519 65.608 128.701 65.752 128.897 65.836C129.097 65.92 129.307 65.962 129.527 65.962C129.755 65.962 129.959 65.922 130.139 65.842C130.323 65.758 130.479 65.63 130.607 65.458C130.735 65.282 130.833 65.06 130.901 64.792C130.969 64.52 131.003 64.196 131.003 63.82C131.003 63.144 130.891 62.656 130.667 62.356C130.443 62.052 130.121 61.9 129.701 61.9C129.417 61.9 129.169 61.966 128.957 62.098C128.745 62.226 128.543 62.408 128.351 62.644V65.404ZM128.351 61.6C128.599 61.34 128.873 61.134 129.173 60.982C129.477 60.826 129.823 60.748 130.211 60.748C130.567 60.748 130.887 60.818 131.171 60.958C131.459 61.098 131.703 61.3 131.903 61.564C132.107 61.824 132.263 62.14 132.371 62.512C132.479 62.884 132.533 63.302 132.533 63.766C132.533 64.266 132.471 64.72 132.347 65.128C132.223 65.536 132.045 65.886 131.813 66.178C131.585 66.466 131.309 66.69 130.985 66.85C130.661 67.01 130.301 67.09 129.905 67.09C129.713 67.09 129.539 67.07 129.383 67.03C129.227 66.994 129.083 66.942 128.951 66.874C128.819 66.806 128.697 66.724 128.585 66.628C128.477 66.528 128.373 66.418 128.273 66.298L128.207 66.712C128.183 66.816 128.141 66.89 128.081 66.934C128.025 66.978 127.947 67 127.847 67H126.869V58.084H128.351V61.6ZM137.643 63.214C137.643 63.022 137.615 62.842 137.559 62.674C137.507 62.502 137.427 62.352 137.319 62.224C137.211 62.096 137.073 61.996 136.905 61.924C136.741 61.848 136.549 61.81 136.329 61.81C135.901 61.81 135.563 61.932 135.315 62.176C135.071 62.42 134.915 62.766 134.847 63.214H137.643ZM134.817 64.108C134.841 64.424 134.897 64.698 134.985 64.93C135.073 65.158 135.189 65.348 135.333 65.5C135.477 65.648 135.647 65.76 135.843 65.836C136.043 65.908 136.263 65.944 136.503 65.944C136.743 65.944 136.949 65.916 137.121 65.86C137.297 65.804 137.449 65.742 137.577 65.674C137.709 65.606 137.823 65.544 137.919 65.488C138.019 65.432 138.115 65.404 138.207 65.404C138.331 65.404 138.423 65.45 138.483 65.542L138.909 66.082C138.745 66.274 138.561 66.436 138.357 66.568C138.153 66.696 137.939 66.8 137.715 66.88C137.495 66.956 137.269 67.01 137.037 67.042C136.809 67.074 136.587 67.09 136.371 67.09C135.943 67.09 135.545 67.02 135.177 66.88C134.809 66.736 134.489 66.526 134.217 66.25C133.945 65.97 133.731 65.626 133.575 65.218C133.419 64.806 133.341 64.33 133.341 63.79C133.341 63.37 133.409 62.976 133.545 62.608C133.681 62.236 133.875 61.914 134.127 61.642C134.383 61.366 134.693 61.148 135.057 60.988C135.425 60.828 135.839 60.748 136.299 60.748C136.687 60.748 137.045 60.81 137.373 60.934C137.701 61.058 137.983 61.24 138.219 61.48C138.455 61.716 138.639 62.008 138.771 62.356C138.907 62.7 138.975 63.094 138.975 63.538C138.975 63.762 138.951 63.914 138.903 63.994C138.855 64.07 138.763 64.108 138.627 64.108H134.817ZM144.053 63.214C144.053 63.022 144.025 62.842 143.969 62.674C143.917 62.502 143.837 62.352 143.729 62.224C143.621 62.096 143.483 61.996 143.315 61.924C143.151 61.848 142.959 61.81 142.739 61.81C142.311 61.81 141.973 61.932 141.725 62.176C141.481 62.42 141.325 62.766 141.257 63.214H144.053ZM141.227 64.108C141.251 64.424 141.307 64.698 141.395 64.93C141.483 65.158 141.599 65.348 141.743 65.5C141.887 65.648 142.057 65.76 142.253 65.836C142.453 65.908 142.673 65.944 142.913 65.944C143.153 65.944 143.359 65.916 143.531 65.86C143.707 65.804 143.859 65.742 143.987 65.674C144.119 65.606 144.233 65.544 144.329 65.488C144.429 65.432 144.525 65.404 144.617 65.404C144.741 65.404 144.833 65.45 144.893 65.542L145.319 66.082C145.155 66.274 144.971 66.436 144.767 66.568C144.563 66.696 144.349 66.8 144.125 66.88C143.905 66.956 143.679 67.01 143.447 67.042C143.219 67.074 142.997 67.09 142.781 67.09C142.353 67.09 141.955 67.02 141.587 66.88C141.219 66.736 140.899 66.526 140.627 66.25C140.355 65.97 140.141 65.626 139.985 65.218C139.829 64.806 139.751 64.33 139.751 63.79C139.751 63.37 139.819 62.976 139.955 62.608C140.091 62.236 140.285 61.914 140.537 61.642C140.793 61.366 141.103 61.148 141.467 60.988C141.835 60.828 142.249 60.748 142.709 60.748C143.097 60.748 143.455 60.81 143.783 60.934C144.111 61.058 144.393 61.24 144.629 61.48C144.865 61.716 145.049 62.008 145.181 62.356C145.317 62.7 145.385 63.094 145.385 63.538C145.385 63.762 145.361 63.914 145.313 63.994C145.265 64.07 145.173 64.108 145.037 64.108H141.227ZM147.884 61.6C148.008 61.476 148.138 61.362 148.274 61.258C148.414 61.15 148.56 61.06 148.712 60.988C148.868 60.912 149.034 60.854 149.21 60.814C149.386 60.77 149.578 60.748 149.786 60.748C150.122 60.748 150.42 60.806 150.68 60.922C150.94 61.034 151.156 61.194 151.328 61.402C151.504 61.606 151.636 61.852 151.724 62.14C151.816 62.424 151.862 62.738 151.862 63.082V67H150.38V63.082C150.38 62.706 150.294 62.416 150.122 62.212C149.95 62.004 149.688 61.9 149.336 61.9C149.08 61.9 148.84 61.958 148.616 62.074C148.392 62.19 148.18 62.348 147.98 62.548V67H146.498V60.844H147.404C147.596 60.844 147.722 60.934 147.782 61.114L147.884 61.6ZM161.493 60.844V67H160.587C160.391 67 160.267 66.91 160.215 66.73L160.113 66.238C159.861 66.494 159.583 66.702 159.279 66.862C158.975 67.018 158.617 67.096 158.205 67.096C157.869 67.096 157.571 67.04 157.311 66.928C157.055 66.812 156.839 66.65 156.663 66.442C156.487 66.234 156.353 65.988 156.261 65.704C156.173 65.416 156.129 65.1 156.129 64.756V60.844H157.611V64.756C157.611 65.132 157.697 65.424 157.869 65.632C158.045 65.836 158.307 65.938 158.655 65.938C158.911 65.938 159.151 65.882 159.375 65.77C159.599 65.654 159.811 65.496 160.011 65.296V60.844H161.493ZM164.444 65.404C164.612 65.608 164.794 65.752 164.99 65.836C165.19 65.92 165.406 65.962 165.638 65.962C165.862 65.962 166.064 65.92 166.244 65.836C166.424 65.752 166.576 65.624 166.7 65.452C166.828 65.28 166.926 65.064 166.994 64.804C167.062 64.54 167.096 64.23 167.096 63.874C167.096 63.514 167.066 63.21 167.006 62.962C166.95 62.71 166.868 62.506 166.76 62.35C166.652 62.194 166.52 62.08 166.364 62.008C166.212 61.936 166.038 61.9 165.842 61.9C165.534 61.9 165.272 61.966 165.056 62.098C164.84 62.226 164.636 62.408 164.444 62.644V65.404ZM164.366 61.684C164.618 61.4 164.904 61.17 165.224 60.994C165.544 60.818 165.92 60.73 166.352 60.73C166.688 60.73 166.994 60.8 167.27 60.94C167.55 61.08 167.79 61.284 167.99 61.552C168.194 61.816 168.35 62.144 168.458 62.536C168.57 62.924 168.626 63.37 168.626 63.874C168.626 64.334 168.564 64.76 168.44 65.152C168.316 65.544 168.138 65.884 167.906 66.172C167.678 66.46 167.4 66.686 167.072 66.85C166.748 67.01 166.384 67.09 165.98 67.09C165.636 67.09 165.342 67.038 165.098 66.934C164.854 66.826 164.636 66.678 164.444 66.49V69.01H162.962V60.844H163.868C164.06 60.844 164.186 60.934 164.246 61.114L164.366 61.684ZM174.753 67.096C174.217 67.096 173.805 66.946 173.517 66.646C173.233 66.342 173.091 65.924 173.091 65.392V61.954H172.461C172.381 61.954 172.313 61.928 172.257 61.876C172.201 61.824 172.173 61.746 172.173 61.642V61.054L173.163 60.892L173.475 59.212C173.495 59.132 173.533 59.07 173.589 59.026C173.645 58.982 173.717 58.96 173.805 58.96H174.573V60.898H176.217V61.954H174.573V65.29C174.573 65.482 174.619 65.632 174.711 65.74C174.807 65.848 174.937 65.902 175.101 65.902C175.193 65.902 175.269 65.892 175.329 65.872C175.393 65.848 175.447 65.824 175.491 65.8C175.539 65.776 175.581 65.754 175.617 65.734C175.653 65.71 175.689 65.698 175.725 65.698C175.769 65.698 175.805 65.71 175.833 65.734C175.861 65.754 175.891 65.786 175.923 65.83L176.367 66.55C176.151 66.73 175.903 66.866 175.623 66.958C175.343 67.05 175.053 67.096 174.753 67.096ZM179.843 60.748C180.299 60.748 180.713 60.822 181.085 60.97C181.461 61.118 181.781 61.328 182.045 61.6C182.313 61.872 182.519 62.204 182.663 62.596C182.807 62.988 182.879 63.426 182.879 63.91C182.879 64.398 182.807 64.838 182.663 65.23C182.519 65.622 182.313 65.956 182.045 66.232C181.781 66.508 181.461 66.72 181.085 66.868C180.713 67.016 180.299 67.09 179.843 67.09C179.383 67.09 178.965 67.016 178.589 66.868C178.213 66.72 177.891 66.508 177.623 66.232C177.359 65.956 177.153 65.622 177.005 65.23C176.861 64.838 176.789 64.398 176.789 63.91C176.789 63.426 176.861 62.988 177.005 62.596C177.153 62.204 177.359 61.872 177.623 61.6C177.891 61.328 178.213 61.118 178.589 60.97C178.965 60.822 179.383 60.748 179.843 60.748ZM179.843 65.95C180.355 65.95 180.733 65.778 180.977 65.434C181.225 65.09 181.349 64.586 181.349 63.922C181.349 63.258 181.225 62.752 180.977 62.404C180.733 62.056 180.355 61.882 179.843 61.882C179.323 61.882 178.937 62.058 178.685 62.41C178.437 62.758 178.313 63.262 178.313 63.922C178.313 64.582 178.437 65.086 178.685 65.434C178.937 65.778 179.323 65.95 179.843 65.95Z" fill="#FE414D"/>
    <path d="M28.262 34.35V37.356H31.796V38.304H28.262V42H27.098V33.402H32.396V34.35H28.262ZM37.1718 38.298C37.1718 38.05 37.1358 37.824 37.0638 37.62C36.9958 37.412 36.8938 37.234 36.7578 37.086C36.6258 36.934 36.4638 36.818 36.2718 36.738C36.0798 36.654 35.8618 36.612 35.6178 36.612C35.1058 36.612 34.6998 36.762 34.3998 37.062C34.1038 37.358 33.9198 37.77 33.8478 38.298H37.1718ZM38.0358 41.148C37.9038 41.308 37.7458 41.448 37.5618 41.568C37.3778 41.684 37.1798 41.78 36.9678 41.856C36.7598 41.932 36.5438 41.988 36.3198 42.024C36.0958 42.064 35.8738 42.084 35.6538 42.084C35.2338 42.084 34.8458 42.014 34.4898 41.874C34.1378 41.73 33.8318 41.522 33.5718 41.25C33.3158 40.974 33.1158 40.634 32.9718 40.23C32.8278 39.826 32.7558 39.362 32.7558 38.838C32.7558 38.414 32.8198 38.018 32.9478 37.65C33.0798 37.282 33.2678 36.964 33.5118 36.696C33.7558 36.424 34.0538 36.212 34.4058 36.06C34.7578 35.904 35.1538 35.826 35.5938 35.826C35.9578 35.826 36.2938 35.888 36.6018 36.012C36.9138 36.132 37.1818 36.308 37.4058 36.54C37.6338 36.768 37.8118 37.052 37.9398 37.392C38.0678 37.728 38.1318 38.112 38.1318 38.544C38.1318 38.712 38.1138 38.824 38.0778 38.88C38.0418 38.936 37.9738 38.964 37.8738 38.964H33.8118C33.8238 39.348 33.8758 39.682 33.9678 39.966C34.0638 40.25 34.1958 40.488 34.3638 40.68C34.5318 40.868 34.7318 41.01 34.9638 41.106C35.1958 41.198 35.4558 41.244 35.7438 41.244C36.0118 41.244 36.2418 41.214 36.4338 41.154C36.6298 41.09 36.7978 41.022 36.9378 40.95C37.0778 40.878 37.1938 40.812 37.2858 40.752C37.3818 40.688 37.4638 40.656 37.5318 40.656C37.6198 40.656 37.6878 40.69 37.7358 40.758L38.0358 41.148ZM43.5117 38.298C43.5117 38.05 43.4757 37.824 43.4037 37.62C43.3357 37.412 43.2337 37.234 43.0977 37.086C42.9657 36.934 42.8037 36.818 42.6117 36.738C42.4197 36.654 42.2017 36.612 41.9577 36.612C41.4457 36.612 41.0397 36.762 40.7397 37.062C40.4437 37.358 40.2597 37.77 40.1877 38.298H43.5117ZM44.3757 41.148C44.2437 41.308 44.0857 41.448 43.9017 41.568C43.7177 41.684 43.5197 41.78 43.3077 41.856C43.0997 41.932 42.8837 41.988 42.6597 42.024C42.4357 42.064 42.2137 42.084 41.9937 42.084C41.5737 42.084 41.1857 42.014 40.8297 41.874C40.4777 41.73 40.1717 41.522 39.9117 41.25C39.6557 40.974 39.4557 40.634 39.3117 40.23C39.1677 39.826 39.0957 39.362 39.0957 38.838C39.0957 38.414 39.1597 38.018 39.2877 37.65C39.4197 37.282 39.6077 36.964 39.8517 36.696C40.0957 36.424 40.3937 36.212 40.7457 36.06C41.0977 35.904 41.4937 35.826 41.9337 35.826C42.2977 35.826 42.6337 35.888 42.9417 36.012C43.2537 36.132 43.5217 36.308 43.7457 36.54C43.9737 36.768 44.1517 37.052 44.2797 37.392C44.4077 37.728 44.4717 38.112 44.4717 38.544C44.4717 38.712 44.4537 38.824 44.4177 38.88C44.3817 38.936 44.3137 38.964 44.2137 38.964H40.1517C40.1637 39.348 40.2157 39.682 40.3077 39.966C40.4037 40.25 40.5357 40.488 40.7037 40.68C40.8717 40.868 41.0717 41.01 41.3037 41.106C41.5357 41.198 41.7957 41.244 42.0837 41.244C42.3517 41.244 42.5817 41.214 42.7737 41.154C42.9697 41.09 43.1377 41.022 43.2777 40.95C43.4177 40.878 43.5337 40.812 43.6257 40.752C43.7217 40.688 43.8037 40.656 43.8717 40.656C43.9597 40.656 44.0277 40.69 44.0757 40.758L44.3757 41.148ZM49.7435 37.368C49.5435 37.1 49.3275 36.914 49.0955 36.81C48.8635 36.702 48.6035 36.648 48.3155 36.648C47.7515 36.648 47.3175 36.85 47.0135 37.254C46.7095 37.658 46.5575 38.234 46.5575 38.982C46.5575 39.378 46.5915 39.718 46.6595 40.002C46.7275 40.282 46.8275 40.514 46.9595 40.698C47.0915 40.878 47.2535 41.01 47.4455 41.094C47.6375 41.178 47.8555 41.22 48.0995 41.22C48.4515 41.22 48.7575 41.14 49.0175 40.98C49.2815 40.82 49.5235 40.594 49.7435 40.302V37.368ZM50.8115 33.162V42H50.1755C50.0235 42 49.9275 41.926 49.8875 41.778L49.7915 41.04C49.5315 41.352 49.2355 41.604 48.9035 41.796C48.5715 41.988 48.1875 42.084 47.7515 42.084C47.4035 42.084 47.0875 42.018 46.8035 41.886C46.5195 41.75 46.2775 41.552 46.0775 41.292C45.8775 41.032 45.7235 40.708 45.6155 40.32C45.5075 39.932 45.4535 39.486 45.4535 38.982C45.4535 38.534 45.5135 38.118 45.6335 37.734C45.7535 37.346 45.9255 37.01 46.1495 36.726C46.3735 36.442 46.6475 36.22 46.9715 36.06C47.2995 35.896 47.6675 35.814 48.0755 35.814C48.4475 35.814 48.7655 35.878 49.0295 36.006C49.2975 36.13 49.5355 36.304 49.7435 36.528V33.162H50.8115ZM52.3183 41.34C52.3183 41.236 52.3363 41.138 52.3723 41.046C52.4123 40.954 52.4643 40.874 52.5283 40.806C52.5963 40.738 52.6763 40.684 52.7683 40.644C52.8603 40.604 52.9583 40.584 53.0623 40.584C53.1663 40.584 53.2643 40.604 53.3563 40.644C53.4483 40.684 53.5283 40.738 53.5963 40.806C53.6643 40.874 53.7183 40.954 53.7583 41.046C53.7983 41.138 53.8183 41.236 53.8183 41.34C53.8183 41.448 53.7983 41.548 53.7583 41.64C53.7183 41.728 53.6643 41.806 53.5963 41.874C53.5283 41.942 53.4483 41.994 53.3563 42.03C53.2643 42.07 53.1663 42.09 53.0623 42.09C52.9583 42.09 52.8603 42.07 52.7683 42.03C52.6763 41.994 52.5963 41.942 52.5283 41.874C52.4643 41.806 52.4123 41.728 52.3723 41.64C52.3363 41.548 52.3183 41.448 52.3183 41.34ZM55.1543 41.34C55.1543 41.236 55.1723 41.138 55.2083 41.046C55.2483 40.954 55.3003 40.874 55.3643 40.806C55.4323 40.738 55.5123 40.684 55.6043 40.644C55.6963 40.604 55.7943 40.584 55.8983 40.584C56.0023 40.584 56.1003 40.604 56.1923 40.644C56.2843 40.684 56.3643 40.738 56.4323 40.806C56.5003 40.874 56.5543 40.954 56.5943 41.046C56.6343 41.138 56.6543 41.236 56.6543 41.34C56.6543 41.448 56.6343 41.548 56.5943 41.64C56.5543 41.728 56.5003 41.806 56.4323 41.874C56.3643 41.942 56.2843 41.994 56.1923 42.03C56.1003 42.07 56.0023 42.09 55.8983 42.09C55.7943 42.09 55.6963 42.07 55.6043 42.03C55.5123 41.994 55.4323 41.942 55.3643 41.874C55.3003 41.806 55.2483 41.728 55.2083 41.64C55.1723 41.548 55.1543 41.448 55.1543 41.34ZM57.9902 41.34C57.9902 41.236 58.0082 41.138 58.0442 41.046C58.0842 40.954 58.1362 40.874 58.2002 40.806C58.2682 40.738 58.3482 40.684 58.4402 40.644C58.5322 40.604 58.6302 40.584 58.7342 40.584C58.8382 40.584 58.9362 40.604 59.0282 40.644C59.1202 40.684 59.2002 40.738 59.2682 40.806C59.3362 40.874 59.3902 40.954 59.4302 41.046C59.4702 41.138 59.4902 41.236 59.4902 41.34C59.4902 41.448 59.4702 41.548 59.4302 41.64C59.3902 41.728 59.3362 41.806 59.2682 41.874C59.2002 41.942 59.1202 41.994 59.0282 42.03C58.9362 42.07 58.8382 42.09 58.7342 42.09C58.6302 42.09 58.5322 42.07 58.4402 42.03C58.3482 41.994 58.2682 41.942 58.2002 41.874C58.1362 41.806 58.0842 41.728 58.0442 41.64C58.0082 41.548 57.9902 41.448 57.9902 41.34Z" fill="#FF767F"/>
    <path fill-rule="evenodd" clip-rule="evenodd" d="M609.234 28.4844C609.269 28.4495 609.311 28.4218 609.356 28.4029C609.402 28.384 609.451 28.3743 609.5 28.3743C609.549 28.3743 609.598 28.384 609.644 28.4029C609.689 28.4218 609.731 28.4495 609.765 28.4844L614 32.7197L618.234 28.4844C618.269 28.4496 618.311 28.4219 618.356 28.403C618.402 28.3842 618.451 28.3745 618.5 28.3745C618.549 28.3745 618.598 28.3842 618.644 28.403C618.689 28.4219 618.731 28.4496 618.765 28.4844C618.8 28.5193 618.828 28.5607 618.847 28.6063C618.866 28.6518 618.875 28.7006 618.875 28.7499C618.875 28.7992 618.866 28.8481 618.847 28.8936C618.828 28.9392 618.8 28.9806 618.765 29.0154L614.265 33.5154C614.231 33.5504 614.189 33.5781 614.144 33.597C614.098 33.6159 614.049 33.6256 614 33.6256C613.951 33.6256 613.902 33.6159 613.856 33.597C613.811 33.5781 613.769 33.5504 613.734 33.5154L609.234 29.0154C609.2 28.9806 609.172 28.9392 609.153 28.8937C609.134 28.8481 609.124 28.7993 609.124 28.7499C609.124 28.7006 609.134 28.6518 609.153 28.6062C609.172 28.5607 609.2 28.5193 609.234 28.4844Z" fill="#464246"/>
    <path d="M567.759 35V26.2727H573.537V27.794H569.604V29.8736H573.153V31.3949H569.604V35H567.759ZM574.744 35V28.4545H576.559V35H574.744ZM575.656 27.6108C575.386 27.6108 575.154 27.5213 574.961 27.3423C574.771 27.1605 574.676 26.9432 574.676 26.6903C574.676 26.4403 574.771 26.2259 574.961 26.0469C575.154 25.8651 575.386 25.7741 575.656 25.7741C575.926 25.7741 576.156 25.8651 576.346 26.0469C576.539 26.2259 576.636 26.4403 576.636 26.6903C576.636 26.9432 576.539 27.1605 576.346 27.3423C576.156 27.5213 575.926 27.6108 575.656 27.6108ZM579.829 26.2727V35H578.013V26.2727H579.829ZM584.765 28.4545V29.8182H580.823V28.4545H584.765ZM581.718 26.8864H583.533V32.9886C583.533 33.1562 583.559 33.2869 583.61 33.3807C583.661 33.4716 583.732 33.5355 583.823 33.5724C583.917 33.6094 584.025 33.6278 584.147 33.6278C584.232 33.6278 584.317 33.6207 584.402 33.6065C584.488 33.5895 584.553 33.5767 584.598 33.5682L584.884 34.919C584.793 34.9474 584.665 34.9801 584.5 35.017C584.336 35.0568 584.135 35.081 583.9 35.0895C583.462 35.1065 583.078 35.0483 582.749 34.9148C582.422 34.7812 582.168 34.5739 581.986 34.2926C581.804 34.0114 581.715 33.6562 581.718 33.2273V26.8864ZM588.86 35.1278C588.186 35.1278 587.607 34.9915 587.121 34.7188C586.638 34.4432 586.266 34.054 586.005 33.5511C585.743 33.0455 585.613 32.4474 585.613 31.7571C585.613 31.0838 585.743 30.4929 586.005 29.9844C586.266 29.4759 586.634 29.0795 587.108 28.7955C587.586 28.5114 588.145 28.3693 588.787 28.3693C589.219 28.3693 589.621 28.4389 589.993 28.5781C590.368 28.7145 590.695 28.9205 590.973 29.196C591.255 29.4716 591.473 29.8182 591.63 30.2358C591.786 30.6506 591.864 31.1364 591.864 31.6932V32.1918H586.337V31.0668H590.155C590.155 30.8054 590.098 30.5739 589.985 30.3722C589.871 30.1705 589.713 30.0128 589.512 29.8991C589.313 29.7827 589.081 29.7244 588.817 29.7244C588.542 29.7244 588.297 29.7884 588.084 29.9162C587.874 30.0412 587.709 30.2102 587.59 30.4233C587.471 30.6335 587.409 30.8679 587.407 31.1264V32.196C587.407 32.5199 587.466 32.7997 587.586 33.0355C587.708 33.2713 587.88 33.4531 588.101 33.581C588.323 33.7088 588.586 33.7727 588.89 33.7727C589.091 33.7727 589.276 33.7443 589.444 33.6875C589.611 33.6307 589.755 33.5455 589.874 33.4318C589.993 33.3182 590.084 33.179 590.147 33.0142L591.826 33.125C591.74 33.5284 591.566 33.8807 591.301 34.1818C591.04 34.4801 590.702 34.7131 590.287 34.8807C589.875 35.0455 589.4 35.1278 588.86 35.1278ZM593.049 35V28.4545H594.809V29.5966H594.877C594.996 29.1903 595.196 28.8835 595.478 28.6761C595.759 28.4659 596.083 28.3608 596.449 28.3608C596.54 28.3608 596.638 28.3665 596.743 28.3778C596.848 28.3892 596.941 28.4048 597.02 28.4247V30.0355C596.935 30.0099 596.817 29.9872 596.667 29.9673C596.516 29.9474 596.378 29.9375 596.253 29.9375C595.986 29.9375 595.748 29.9957 595.537 30.1122C595.33 30.2259 595.165 30.3849 595.043 30.5895C594.924 30.794 594.864 31.0298 594.864 31.2969V35H593.049ZM603.405 30.321L601.743 30.4233C601.714 30.2812 601.653 30.1534 601.56 30.0398C601.466 29.9233 601.342 29.831 601.189 29.7628C601.038 29.6918 600.858 29.6562 600.648 29.6562C600.366 29.6562 600.129 29.7159 599.936 29.8352C599.743 29.9517 599.646 30.108 599.646 30.304C599.646 30.4602 599.709 30.5923 599.834 30.7003C599.959 30.8082 600.173 30.8949 600.477 30.9602L601.662 31.1989C602.298 31.3295 602.773 31.5398 603.085 31.8295C603.398 32.1193 603.554 32.5 603.554 32.9716C603.554 33.4006 603.428 33.777 603.175 34.1009C602.925 34.4247 602.581 34.6776 602.143 34.8594C601.709 35.0384 601.207 35.1278 600.639 35.1278C599.773 35.1278 599.082 34.9474 598.568 34.5866C598.057 34.223 597.757 33.7287 597.669 33.1037L599.455 33.0099C599.509 33.2741 599.639 33.4759 599.847 33.6151C600.054 33.7514 600.32 33.8196 600.643 33.8196C600.962 33.8196 601.217 33.7585 601.411 33.6364C601.607 33.5114 601.706 33.3509 601.709 33.1548C601.706 32.9901 601.636 32.8551 601.5 32.75C601.364 32.642 601.153 32.5597 600.869 32.5028L599.736 32.277C599.097 32.1491 598.621 31.9276 598.308 31.6122C597.999 31.2969 597.844 30.8949 597.844 30.4062C597.844 29.9858 597.957 29.6236 598.185 29.3196C598.415 29.0156 598.737 28.7812 599.152 28.6165C599.57 28.4517 600.058 28.3693 600.618 28.3693C601.445 28.3693 602.095 28.544 602.57 28.8935C603.047 29.2429 603.325 29.7187 603.405 30.321Z" fill="#464246"/>
</svg>
