<svg width="664" height="425" viewBox="0 0 664 425" fill="none" xmlns="http://www.w3.org/2000/svg">
    <rect x="0.5" y="0.5" width="663" height="424" rx="24.5" fill="white" stroke="#DFEAF2"/>
    <path d="M31.586 34.608V37.176H34.838V38.466H31.586V42H29.966V33.324H35.438V34.608H31.586ZM39.9558 38.214C39.9558 38.022 39.9278 37.842 39.8718 37.674C39.8198 37.502 39.7398 37.352 39.6318 37.224C39.5238 37.096 39.3858 36.996 39.2178 36.924C39.0538 36.848 38.8618 36.81 38.6418 36.81C38.2138 36.81 37.8758 36.932 37.6278 37.176C37.3838 37.42 37.2278 37.766 37.1598 38.214H39.9558ZM37.1298 39.108C37.1538 39.424 37.2098 39.698 37.2978 39.93C37.3858 40.158 37.5018 40.348 37.6458 40.5C37.7898 40.648 37.9598 40.76 38.1558 40.836C38.3558 40.908 38.5758 40.944 38.8158 40.944C39.0558 40.944 39.2618 40.916 39.4338 40.86C39.6098 40.804 39.7618 40.742 39.8898 40.674C40.0218 40.606 40.1358 40.544 40.2318 40.488C40.3318 40.432 40.4278 40.404 40.5198 40.404C40.6438 40.404 40.7358 40.45 40.7958 40.542L41.2218 41.082C41.0578 41.274 40.8738 41.436 40.6698 41.568C40.4658 41.696 40.2518 41.8 40.0278 41.88C39.8078 41.956 39.5818 42.01 39.3498 42.042C39.1218 42.074 38.8998 42.09 38.6838 42.09C38.2558 42.09 37.8578 42.02 37.4898 41.88C37.1218 41.736 36.8018 41.526 36.5298 41.25C36.2578 40.97 36.0438 40.626 35.8878 40.218C35.7318 39.806 35.6538 39.33 35.6538 38.79C35.6538 38.37 35.7218 37.976 35.8578 37.608C35.9938 37.236 36.1878 36.914 36.4398 36.642C36.6958 36.366 37.0058 36.148 37.3698 35.988C37.7378 35.828 38.1518 35.748 38.6118 35.748C38.9998 35.748 39.3578 35.81 39.6858 35.934C40.0138 36.058 40.2958 36.24 40.5318 36.48C40.7678 36.716 40.9518 37.008 41.0838 37.356C41.2198 37.7 41.2878 38.094 41.2878 38.538C41.2878 38.762 41.2638 38.914 41.2158 38.994C41.1678 39.07 41.0758 39.108 40.9398 39.108H37.1298ZM46.366 38.214C46.366 38.022 46.338 37.842 46.282 37.674C46.23 37.502 46.15 37.352 46.042 37.224C45.934 37.096 45.796 36.996 45.628 36.924C45.464 36.848 45.272 36.81 45.052 36.81C44.624 36.81 44.286 36.932 44.038 37.176C43.794 37.42 43.638 37.766 43.57 38.214H46.366ZM43.54 39.108C43.564 39.424 43.62 39.698 43.708 39.93C43.796 40.158 43.912 40.348 44.056 40.5C44.2 40.648 44.37 40.76 44.566 40.836C44.766 40.908 44.986 40.944 45.226 40.944C45.466 40.944 45.672 40.916 45.844 40.86C46.02 40.804 46.172 40.742 46.3 40.674C46.432 40.606 46.546 40.544 46.642 40.488C46.742 40.432 46.838 40.404 46.93 40.404C47.054 40.404 47.146 40.45 47.206 40.542L47.632 41.082C47.468 41.274 47.284 41.436 47.08 41.568C46.876 41.696 46.662 41.8 46.438 41.88C46.218 41.956 45.992 42.01 45.76 42.042C45.532 42.074 45.31 42.09 45.094 42.09C44.666 42.09 44.268 42.02 43.9 41.88C43.532 41.736 43.212 41.526 42.94 41.25C42.668 40.97 42.454 40.626 42.298 40.218C42.142 39.806 42.064 39.33 42.064 38.79C42.064 38.37 42.132 37.976 42.268 37.608C42.404 37.236 42.598 36.914 42.85 36.642C43.106 36.366 43.416 36.148 43.78 35.988C44.148 35.828 44.562 35.748 45.022 35.748C45.41 35.748 45.768 35.81 46.096 35.934C46.424 36.058 46.706 36.24 46.942 36.48C47.178 36.716 47.362 37.008 47.494 37.356C47.63 37.7 47.698 38.094 47.698 38.538C47.698 38.762 47.674 38.914 47.626 38.994C47.578 39.07 47.486 39.108 47.35 39.108H43.54ZM52.6741 37.416C52.5061 37.212 52.3221 37.068 52.1221 36.984C51.9261 36.9 51.7141 36.858 51.4861 36.858C51.2621 36.858 51.0601 36.9 50.8801 36.984C50.7001 37.068 50.5461 37.196 50.4181 37.368C50.2901 37.536 50.1921 37.752 50.1241 38.016C50.0561 38.276 50.0221 38.584 50.0221 38.94C50.0221 39.3 50.0501 39.606 50.1061 39.858C50.1661 40.106 50.2501 40.31 50.3581 40.47C50.4661 40.626 50.5981 40.74 50.7541 40.812C50.9101 40.88 51.0841 40.914 51.2761 40.914C51.5841 40.914 51.8461 40.85 52.0621 40.722C52.2781 40.594 52.4821 40.412 52.6741 40.176V37.416ZM54.1561 33.084V42H53.2501C53.0541 42 52.9301 41.91 52.8781 41.73L52.7521 41.136C52.5041 41.42 52.2181 41.65 51.8941 41.826C51.5741 42.002 51.2001 42.09 50.7721 42.09C50.4361 42.09 50.1281 42.02 49.8481 41.88C49.5681 41.74 49.3261 41.538 49.1221 41.274C48.9221 41.006 48.7661 40.676 48.6541 40.284C48.5461 39.892 48.4921 39.444 48.4921 38.94C48.4921 38.484 48.5541 38.06 48.6781 37.668C48.8021 37.276 48.9801 36.936 49.2121 36.648C49.4441 36.36 49.7221 36.136 50.0461 35.976C50.3701 35.812 50.7341 35.73 51.1381 35.73C51.4821 35.73 51.7761 35.784 52.0201 35.892C52.2641 36 52.4821 36.146 52.6741 36.33V33.084H54.1561Z" fill="#FE414D"/>
    <path fill-rule="evenodd" clip-rule="evenodd" d="M570.235 31.4847C570.269 31.4498 570.311 31.4221 570.356 31.4031C570.402 31.3842 570.451 31.3745 570.5 31.3745C570.549 31.3745 570.598 31.3842 570.644 31.4031C570.689 31.4221 570.731 31.4498 570.766 31.4847L575 35.7199L579.235 31.4847C579.269 31.4498 579.311 31.4222 579.356 31.4033C579.402 31.3844 579.451 31.3747 579.5 31.3747C579.549 31.3747 579.598 31.3844 579.644 31.4033C579.689 31.4222 579.731 31.4498 579.766 31.4847C579.8 31.5195 579.828 31.5609 579.847 31.6065C579.866 31.652 579.876 31.7009 579.876 31.7502C579.876 31.7995 579.866 31.8483 579.847 31.8939C579.828 31.9394 579.8 31.9808 579.766 32.0157L575.266 36.5157C575.231 36.5506 575.189 36.5783 575.144 36.5972C575.098 36.6161 575.049 36.6259 575 36.6259C574.951 36.6259 574.902 36.6161 574.856 36.5972C574.811 36.5783 574.769 36.5506 574.735 36.5157L570.235 32.0157C570.2 31.9808 570.172 31.9395 570.153 31.8939C570.134 31.8483 570.124 31.7995 570.124 31.7502C570.124 31.7009 570.134 31.652 570.153 31.6065C570.172 31.5609 570.2 31.5195 570.235 31.4847V31.4847Z" fill="#9F9A9F"/>
    <path d="M528.759 38V29.2727H534.537V30.794H530.604V32.8736H534.153V34.3949H530.604V38H528.759ZM535.744 38V31.4545H537.559V38H535.744ZM536.656 30.6108C536.386 30.6108 536.154 30.5213 535.961 30.3423C535.771 30.1605 535.676 29.9432 535.676 29.6903C535.676 29.4403 535.771 29.2259 535.961 29.0469C536.154 28.8651 536.386 28.7741 536.656 28.7741C536.926 28.7741 537.156 28.8651 537.346 29.0469C537.539 29.2259 537.636 29.4403 537.636 29.6903C537.636 29.9432 537.539 30.1605 537.346 30.3423C537.156 30.5213 536.926 30.6108 536.656 30.6108ZM540.829 29.2727V38H539.013V29.2727H540.829ZM545.765 31.4545V32.8182H541.823V31.4545H545.765ZM542.718 29.8864H544.533V35.9886C544.533 36.1562 544.559 36.2869 544.61 36.3807C544.661 36.4716 544.732 36.5355 544.823 36.5724C544.917 36.6094 545.025 36.6278 545.147 36.6278C545.232 36.6278 545.317 36.6207 545.402 36.6065C545.488 36.5895 545.553 36.5767 545.598 36.5682L545.884 37.919C545.793 37.9474 545.665 37.9801 545.5 38.017C545.336 38.0568 545.135 38.081 544.9 38.0895C544.462 38.1065 544.078 38.0483 543.749 37.9148C543.422 37.7812 543.168 37.5739 542.986 37.2926C542.804 37.0114 542.715 36.6562 542.718 36.2273V29.8864ZM549.86 38.1278C549.186 38.1278 548.607 37.9915 548.121 37.7188C547.638 37.4432 547.266 37.054 547.005 36.5511C546.743 36.0455 546.613 35.4474 546.613 34.7571C546.613 34.0838 546.743 33.4929 547.005 32.9844C547.266 32.4759 547.634 32.0795 548.108 31.7955C548.586 31.5114 549.145 31.3693 549.787 31.3693C550.219 31.3693 550.621 31.4389 550.993 31.5781C551.368 31.7145 551.695 31.9205 551.973 32.196C552.255 32.4716 552.473 32.8182 552.63 33.2358C552.786 33.6506 552.864 34.1364 552.864 34.6932V35.1918H547.337V34.0668H551.155C551.155 33.8054 551.098 33.5739 550.985 33.3722C550.871 33.1705 550.713 33.0128 550.512 32.8991C550.313 32.7827 550.081 32.7244 549.817 32.7244C549.542 32.7244 549.297 32.7884 549.084 32.9162C548.874 33.0412 548.709 33.2102 548.59 33.4233C548.471 33.6335 548.409 33.8679 548.407 34.1264V35.196C548.407 35.5199 548.466 35.7997 548.586 36.0355C548.708 36.2713 548.88 36.4531 549.101 36.581C549.323 36.7088 549.586 36.7727 549.89 36.7727C550.091 36.7727 550.276 36.7443 550.444 36.6875C550.611 36.6307 550.755 36.5455 550.874 36.4318C550.993 36.3182 551.084 36.179 551.147 36.0142L552.826 36.125C552.74 36.5284 552.566 36.8807 552.301 37.1818C552.04 37.4801 551.702 37.7131 551.287 37.8807C550.875 38.0455 550.4 38.1278 549.86 38.1278ZM554.049 38V31.4545H555.809V32.5966H555.877C555.996 32.1903 556.196 31.8835 556.478 31.6761C556.759 31.4659 557.083 31.3608 557.449 31.3608C557.54 31.3608 557.638 31.3665 557.743 31.3778C557.848 31.3892 557.941 31.4048 558.02 31.4247V33.0355C557.935 33.0099 557.817 32.9872 557.667 32.9673C557.516 32.9474 557.378 32.9375 557.253 32.9375C556.986 32.9375 556.748 32.9957 556.537 33.1122C556.33 33.2259 556.165 33.3849 556.043 33.5895C555.924 33.794 555.864 34.0298 555.864 34.2969V38H554.049ZM564.405 33.321L562.743 33.4233C562.714 33.2812 562.653 33.1534 562.56 33.0398C562.466 32.9233 562.342 32.831 562.189 32.7628C562.038 32.6918 561.858 32.6562 561.648 32.6562C561.366 32.6562 561.129 32.7159 560.936 32.8352C560.743 32.9517 560.646 33.108 560.646 33.304C560.646 33.4602 560.709 33.5923 560.834 33.7003C560.959 33.8082 561.173 33.8949 561.477 33.9602L562.662 34.1989C563.298 34.3295 563.773 34.5398 564.085 34.8295C564.398 35.1193 564.554 35.5 564.554 35.9716C564.554 36.4006 564.428 36.777 564.175 37.1009C563.925 37.4247 563.581 37.6776 563.143 37.8594C562.709 38.0384 562.207 38.1278 561.639 38.1278C560.773 38.1278 560.082 37.9474 559.568 37.5866C559.057 37.223 558.757 36.7287 558.669 36.1037L560.455 36.0099C560.509 36.2741 560.639 36.4759 560.847 36.6151C561.054 36.7514 561.32 36.8196 561.643 36.8196C561.962 36.8196 562.217 36.7585 562.411 36.6364C562.607 36.5114 562.706 36.3509 562.709 36.1548C562.706 35.9901 562.636 35.8551 562.5 35.75C562.364 35.642 562.153 35.5597 561.869 35.5028L560.736 35.277C560.097 35.1491 559.621 34.9276 559.308 34.6122C558.999 34.2969 558.844 33.8949 558.844 33.4062C558.844 32.9858 558.957 32.6236 559.185 32.3196C559.415 32.0156 559.737 31.7812 560.152 31.6165C560.57 31.4517 561.058 31.3693 561.618 31.3693C562.445 31.3693 563.095 31.544 563.57 31.8935C564.047 32.2429 564.325 32.7187 564.405 33.321Z" fill="#9F9A9F"/>
    <path d="M619.067 36.3728C619.275 36.4653 619.495 36.5 619.703 36.5C620.177 36.5 620.64 36.3034 620.975 35.945L623.681 33.0312H627.219C629.127 33.0312 630.688 31.4703 630.688 29.5625V23.7812C630.688 21.8734 629.127 20.3125 627.219 20.3125H617.969C616.061 20.3125 614.5 21.8734 614.5 23.7812V29.5509C614.5 31.4587 616.061 33.0197 617.969 33.0197V34.7541C617.969 35.4825 618.397 36.1069 619.067 36.3728ZM608.141 38.8125C604.949 38.8125 602.359 36.2225 602.359 33.0312C602.359 29.84 604.949 27.25 608.141 27.25C611.332 27.25 613.922 29.84 613.922 33.0312C613.922 36.2225 611.332 38.8125 608.141 38.8125ZM608.141 52.6759C604.788 52.6759 602.221 51.7509 600.486 49.9379C598.254 47.6081 598.306 44.6365 598.311 44.344V44.3243C598.313 42.5819 599.769 41.125 601.573 41.125H614.708C616.5 41.125 617.969 42.5807 617.969 44.3822V44.3937C617.973 44.6042 618.038 47.5965 615.795 49.9495C614.061 51.7637 611.494 52.6875 608.141 52.6875V52.6759Z" fill="#464246"/>
</svg>
