<svg width="26" height="26" viewBox="0 0 26 26" fill="none" xmlns="http://www.w3.org/2000/svg">
    <path d="M23.7467 7.17167C23.6368 6.90695 23.4264 6.6966 23.1617 6.58667C23.0314 6.53116 22.8916 6.50171 22.75 6.5H17.3333C17.046 6.5 16.7705 6.61414 16.5673 6.8173C16.3642 7.02047 16.25 7.29602 16.25 7.58333C16.25 7.87065 16.3642 8.1462 16.5673 8.34937C16.7705 8.55253 17.046 8.66667 17.3333 8.66667H20.1392L14.0833 14.7225L10.5192 11.1475C10.4185 11.046 10.2987 10.9654 10.1666 10.9104C10.0346 10.8554 9.89303 10.8271 9.75002 10.8271C9.607 10.8271 9.4654 10.8554 9.33339 10.9104C9.20138 10.9654 9.08156 11.046 8.98085 11.1475L2.48085 17.6475C2.37931 17.7482 2.29872 17.868 2.24372 18C2.18872 18.1321 2.1604 18.2737 2.1604 18.4167C2.1604 18.5597 2.18872 18.7013 2.24372 18.8333C2.29872 18.9653 2.37931 19.0851 2.48085 19.1858C2.58156 19.2874 2.70138 19.368 2.83339 19.423C2.9654 19.478 3.107 19.5063 3.25002 19.5063C3.39303 19.5063 3.53463 19.478 3.66664 19.423C3.79865 19.368 3.91847 19.2874 4.01918 19.1858L9.75002 13.4442L13.3142 17.0192C13.4149 17.1207 13.5347 17.2013 13.6667 17.2563C13.7987 17.3113 13.9403 17.3396 14.0833 17.3396C14.2264 17.3396 14.368 17.3113 14.5 17.2563C14.632 17.2013 14.7518 17.1207 14.8525 17.0192L21.6667 10.1942V13C21.6667 13.2873 21.7808 13.5629 21.984 13.766C22.1871 13.9692 22.4627 14.0833 22.75 14.0833C23.0373 14.0833 23.3129 13.9692 23.516 13.766C23.7192 13.5629 23.8333 13.2873 23.8333 13V7.58333C23.8316 7.44177 23.8022 7.30191 23.7467 7.17167Z" fill="#464246"/>
</svg>
