<svg width="350" height="126" viewBox="0 0 350 126" fill="none" xmlns="http://www.w3.org/2000/svg">
    <rect x="0.5" y="0.5" width="349" height="125" rx="24.5" fill="white" stroke="#DFEAF2"/>
    <path d="M23.924 58.954C24.012 58.954 24.09 58.988 24.158 59.056L24.794 59.746C24.442 60.182 24.008 60.516 23.492 60.748C22.98 60.98 22.364 61.096 21.644 61.096C21 61.096 20.42 60.986 19.904 60.766C19.392 60.546 18.954 60.24 18.59 59.848C18.226 59.456 17.946 58.988 17.75 58.444C17.558 57.9 17.462 57.306 17.462 56.662C17.462 56.01 17.566 55.414 17.774 54.874C17.982 54.33 18.274 53.862 18.65 53.47C19.03 53.078 19.482 52.774 20.006 52.558C20.53 52.338 21.11 52.228 21.746 52.228C22.378 52.228 22.938 52.332 23.426 52.54C23.918 52.748 24.336 53.02 24.68 53.356L24.14 54.106C24.108 54.154 24.066 54.196 24.014 54.232C23.966 54.268 23.898 54.286 23.81 54.286C23.75 54.286 23.688 54.27 23.624 54.238C23.56 54.202 23.49 54.16 23.414 54.112C23.338 54.06 23.25 54.004 23.15 53.944C23.05 53.884 22.934 53.83 22.802 53.782C22.67 53.73 22.516 53.688 22.34 53.656C22.168 53.62 21.968 53.602 21.74 53.602C21.352 53.602 20.996 53.672 20.672 53.812C20.352 53.948 20.076 54.148 19.844 54.412C19.612 54.672 19.432 54.992 19.304 55.372C19.176 55.748 19.112 56.178 19.112 56.662C19.112 57.15 19.18 57.584 19.316 57.964C19.456 58.344 19.644 58.664 19.88 58.924C20.116 59.184 20.394 59.384 20.714 59.524C21.034 59.66 21.378 59.728 21.746 59.728C21.966 59.728 22.164 59.716 22.34 59.692C22.52 59.668 22.684 59.63 22.832 59.578C22.984 59.526 23.126 59.46 23.258 59.38C23.394 59.296 23.528 59.194 23.66 59.074C23.7 59.038 23.742 59.01 23.786 58.99C23.83 58.966 23.876 58.954 23.924 58.954ZM28.2607 54.748C28.7167 54.748 29.1307 54.822 29.5027 54.97C29.8787 55.118 30.1987 55.328 30.4627 55.6C30.7307 55.872 30.9367 56.204 31.0807 56.596C31.2247 56.988 31.2967 57.426 31.2967 57.91C31.2967 58.398 31.2247 58.838 31.0807 59.23C30.9367 59.622 30.7307 59.956 30.4627 60.232C30.1987 60.508 29.8787 60.72 29.5027 60.868C29.1307 61.016 28.7167 61.09 28.2607 61.09C27.8007 61.09 27.3827 61.016 27.0067 60.868C26.6307 60.72 26.3087 60.508 26.0407 60.232C25.7767 59.956 25.5707 59.622 25.4227 59.23C25.2787 58.838 25.2067 58.398 25.2067 57.91C25.2067 57.426 25.2787 56.988 25.4227 56.596C25.5707 56.204 25.7767 55.872 26.0407 55.6C26.3087 55.328 26.6307 55.118 27.0067 54.97C27.3827 54.822 27.8007 54.748 28.2607 54.748ZM28.2607 59.95C28.7727 59.95 29.1507 59.778 29.3947 59.434C29.6427 59.09 29.7667 58.586 29.7667 57.922C29.7667 57.258 29.6427 56.752 29.3947 56.404C29.1507 56.056 28.7727 55.882 28.2607 55.882C27.7407 55.882 27.3547 56.058 27.1027 56.41C26.8547 56.758 26.7307 57.262 26.7307 57.922C26.7307 58.582 26.8547 59.086 27.1027 59.434C27.3547 59.778 27.7407 59.95 28.2607 59.95ZM32.4273 61V54.844H33.3333C33.5253 54.844 33.6513 54.934 33.7113 55.114L33.8073 55.57C33.9153 55.45 34.0273 55.34 34.1433 55.24C34.2633 55.14 34.3893 55.054 34.5213 54.982C34.6573 54.91 34.8013 54.854 34.9533 54.814C35.1093 54.77 35.2793 54.748 35.4633 54.748C35.8513 54.748 36.1693 54.854 36.4173 55.066C36.6693 55.274 36.8573 55.552 36.9813 55.9C37.0773 55.696 37.1973 55.522 37.3413 55.378C37.4853 55.23 37.6433 55.11 37.8153 55.018C37.9873 54.926 38.1693 54.858 38.3613 54.814C38.5573 54.77 38.7533 54.748 38.9493 54.748C39.2893 54.748 39.5913 54.8 39.8553 54.904C40.1193 55.008 40.3413 55.16 40.5213 55.36C40.7013 55.56 40.8373 55.804 40.9293 56.092C41.0253 56.38 41.0733 56.71 41.0733 57.082V61H39.5913V57.082C39.5913 56.69 39.5053 56.396 39.3333 56.2C39.1613 56 38.9093 55.9 38.5773 55.9C38.4253 55.9 38.2833 55.926 38.1513 55.978C38.0233 56.03 37.9093 56.106 37.8093 56.206C37.7133 56.302 37.6373 56.424 37.5813 56.572C37.5253 56.72 37.4973 56.89 37.4973 57.082V61H36.0093V57.082C36.0093 56.67 35.9253 56.37 35.7573 56.182C35.5933 55.994 35.3513 55.9 35.0313 55.9C34.8153 55.9 34.6133 55.954 34.4253 56.062C34.2413 56.166 34.0693 56.31 33.9093 56.494V61H32.4273ZM42.482 61V54.844H43.388C43.58 54.844 43.706 54.934 43.766 55.114L43.862 55.57C43.97 55.45 44.082 55.34 44.198 55.24C44.318 55.14 44.444 55.054 44.576 54.982C44.712 54.91 44.856 54.854 45.008 54.814C45.164 54.77 45.334 54.748 45.518 54.748C45.906 54.748 46.224 54.854 46.472 55.066C46.724 55.274 46.912 55.552 47.036 55.9C47.132 55.696 47.252 55.522 47.396 55.378C47.54 55.23 47.698 55.11 47.87 55.018C48.042 54.926 48.224 54.858 48.416 54.814C48.612 54.77 48.808 54.748 49.004 54.748C49.344 54.748 49.646 54.8 49.91 54.904C50.174 55.008 50.396 55.16 50.576 55.36C50.756 55.56 50.892 55.804 50.984 56.092C51.08 56.38 51.128 56.71 51.128 57.082V61H49.646V57.082C49.646 56.69 49.56 56.396 49.388 56.2C49.216 56 48.964 55.9 48.632 55.9C48.48 55.9 48.338 55.926 48.206 55.978C48.078 56.03 47.964 56.106 47.864 56.206C47.768 56.302 47.692 56.424 47.636 56.572C47.58 56.72 47.552 56.89 47.552 57.082V61H46.064V57.082C46.064 56.67 45.98 56.37 45.812 56.182C45.648 55.994 45.406 55.9 45.086 55.9C44.87 55.9 44.668 55.954 44.48 56.062C44.296 56.166 44.124 56.31 43.964 56.494V61H42.482ZM55.2607 54.748C55.7167 54.748 56.1307 54.822 56.5027 54.97C56.8787 55.118 57.1987 55.328 57.4627 55.6C57.7307 55.872 57.9367 56.204 58.0807 56.596C58.2247 56.988 58.2967 57.426 58.2967 57.91C58.2967 58.398 58.2247 58.838 58.0807 59.23C57.9367 59.622 57.7307 59.956 57.4627 60.232C57.1987 60.508 56.8787 60.72 56.5027 60.868C56.1307 61.016 55.7167 61.09 55.2607 61.09C54.8007 61.09 54.3827 61.016 54.0067 60.868C53.6307 60.72 53.3087 60.508 53.0407 60.232C52.7767 59.956 52.5707 59.622 52.4227 59.23C52.2787 58.838 52.2067 58.398 52.2067 57.91C52.2067 57.426 52.2787 56.988 52.4227 56.596C52.5707 56.204 52.7767 55.872 53.0407 55.6C53.3087 55.328 53.6307 55.118 54.0067 54.97C54.3827 54.822 54.8007 54.748 55.2607 54.748ZM55.2607 59.95C55.7727 59.95 56.1507 59.778 56.3947 59.434C56.6427 59.09 56.7667 58.586 56.7667 57.922C56.7667 57.258 56.6427 56.752 56.3947 56.404C56.1507 56.056 55.7727 55.882 55.2607 55.882C54.7407 55.882 54.3547 56.058 54.1027 56.41C53.8547 56.758 53.7307 57.262 53.7307 57.922C53.7307 58.582 53.8547 59.086 54.1027 59.434C54.3547 59.778 54.7407 59.95 55.2607 59.95ZM60.8133 55.6C60.9373 55.476 61.0673 55.362 61.2033 55.258C61.3433 55.15 61.4893 55.06 61.6413 54.988C61.7973 54.912 61.9633 54.854 62.1393 54.814C62.3153 54.77 62.5073 54.748 62.7153 54.748C63.0513 54.748 63.3493 54.806 63.6093 54.922C63.8693 55.034 64.0853 55.194 64.2573 55.402C64.4333 55.606 64.5653 55.852 64.6533 56.14C64.7453 56.424 64.7913 56.738 64.7913 57.082V61H63.3093V57.082C63.3093 56.706 63.2233 56.416 63.0513 56.212C62.8793 56.004 62.6173 55.9 62.2653 55.9C62.0093 55.9 61.7693 55.958 61.5453 56.074C61.3213 56.19 61.1093 56.348 60.9093 56.548V61H59.4273V54.844H60.3333C60.5253 54.844 60.6513 54.934 60.7113 55.114L60.8133 55.6ZM67.7008 52.084V61H66.2188V52.084H67.7008ZM74.7693 54.844L71.4153 62.692C71.3713 62.796 71.3133 62.874 71.2413 62.926C71.1733 62.982 71.0673 63.01 70.9233 63.01H69.8193L70.9713 60.538L68.4813 54.844H69.7833C69.8993 54.844 69.9893 54.872 70.0533 54.928C70.1213 54.984 70.1713 55.048 70.2033 55.12L71.5113 58.312C71.5553 58.42 71.5913 58.528 71.6193 58.636C71.6513 58.744 71.6813 58.854 71.7093 58.966C71.7453 58.854 71.7813 58.744 71.8173 58.636C71.8533 58.524 71.8933 58.414 71.9373 58.306L73.1733 55.12C73.2053 55.04 73.2573 54.974 73.3293 54.922C73.4053 54.87 73.4893 54.844 73.5813 54.844H74.7693ZM83.4227 54.844V61H82.5167C82.3207 61 82.1967 60.91 82.1447 60.73L82.0427 60.238C81.7907 60.494 81.5127 60.702 81.2087 60.862C80.9047 61.018 80.5467 61.096 80.1347 61.096C79.7987 61.096 79.5007 61.04 79.2407 60.928C78.9847 60.812 78.7687 60.65 78.5927 60.442C78.4167 60.234 78.2827 59.988 78.1907 59.704C78.1027 59.416 78.0587 59.1 78.0587 58.756V54.844H79.5407V58.756C79.5407 59.132 79.6267 59.424 79.7987 59.632C79.9747 59.836 80.2367 59.938 80.5847 59.938C80.8407 59.938 81.0807 59.882 81.3047 59.77C81.5287 59.654 81.7407 59.496 81.9407 59.296V54.844H83.4227ZM88.6482 56.044C88.6082 56.108 88.5662 56.154 88.5222 56.182C88.4782 56.206 88.4222 56.218 88.3542 56.218C88.2822 56.218 88.2042 56.198 88.1202 56.158C88.0402 56.118 87.9462 56.074 87.8382 56.026C87.7302 55.974 87.6062 55.928 87.4662 55.888C87.3302 55.848 87.1682 55.828 86.9802 55.828C86.6882 55.828 86.4582 55.89 86.2902 56.014C86.1262 56.138 86.0442 56.3 86.0442 56.5C86.0442 56.632 86.0862 56.744 86.1702 56.836C86.2582 56.924 86.3722 57.002 86.5122 57.07C86.6562 57.138 86.8182 57.2 86.9982 57.256C87.1782 57.308 87.3602 57.366 87.5442 57.43C87.7322 57.494 87.9162 57.568 88.0962 57.652C88.2762 57.732 88.4362 57.836 88.5762 57.964C88.7202 58.088 88.8342 58.238 88.9182 58.414C89.0062 58.59 89.0502 58.802 89.0502 59.05C89.0502 59.346 88.9962 59.62 88.8882 59.872C88.7842 60.12 88.6282 60.336 88.4202 60.52C88.2122 60.7 87.9542 60.842 87.6462 60.946C87.3422 61.046 86.9902 61.096 86.5902 61.096C86.3782 61.096 86.1702 61.076 85.9662 61.036C85.7662 61 85.5722 60.948 85.3842 60.88C85.2002 60.812 85.0282 60.732 84.8682 60.64C84.7122 60.548 84.5742 60.448 84.4542 60.34L84.7962 59.776C84.8402 59.708 84.8922 59.656 84.9522 59.62C85.0122 59.584 85.0882 59.566 85.1802 59.566C85.2722 59.566 85.3582 59.592 85.4382 59.644C85.5222 59.696 85.6182 59.752 85.7262 59.812C85.8342 59.872 85.9602 59.928 86.1042 59.98C86.2522 60.032 86.4382 60.058 86.6622 60.058C86.8382 60.058 86.9882 60.038 87.1122 59.998C87.2402 59.954 87.3442 59.898 87.4242 59.83C87.5082 59.762 87.5682 59.684 87.6042 59.596C87.6442 59.504 87.6642 59.41 87.6642 59.314C87.6642 59.17 87.6202 59.052 87.5322 58.96C87.4482 58.868 87.3342 58.788 87.1902 58.72C87.0502 58.652 86.8882 58.592 86.7042 58.54C86.5242 58.484 86.3382 58.424 86.1462 58.36C85.9582 58.296 85.7722 58.222 85.5882 58.138C85.4082 58.05 85.2462 57.94 85.1022 57.808C84.9622 57.676 84.8482 57.514 84.7602 57.322C84.6762 57.13 84.6342 56.898 84.6342 56.626C84.6342 56.374 84.6842 56.134 84.7842 55.906C84.8842 55.678 85.0302 55.48 85.2222 55.312C85.4182 55.14 85.6602 55.004 85.9482 54.904C86.2402 54.8 86.5762 54.748 86.9562 54.748C87.3802 54.748 87.7662 54.818 88.1142 54.958C88.4622 55.098 88.7522 55.282 88.9842 55.51L88.6482 56.044ZM94.1316 57.214C94.1316 57.022 94.1036 56.842 94.0476 56.674C93.9956 56.502 93.9156 56.352 93.8076 56.224C93.6996 56.096 93.5616 55.996 93.3936 55.924C93.2296 55.848 93.0376 55.81 92.8176 55.81C92.3896 55.81 92.0516 55.932 91.8036 56.176C91.5596 56.42 91.4036 56.766 91.3356 57.214H94.1316ZM91.3056 58.108C91.3296 58.424 91.3856 58.698 91.4736 58.93C91.5616 59.158 91.6776 59.348 91.8216 59.5C91.9656 59.648 92.1356 59.76 92.3316 59.836C92.5316 59.908 92.7516 59.944 92.9916 59.944C93.2316 59.944 93.4376 59.916 93.6096 59.86C93.7856 59.804 93.9376 59.742 94.0656 59.674C94.1976 59.606 94.3116 59.544 94.4076 59.488C94.5076 59.432 94.6036 59.404 94.6956 59.404C94.8196 59.404 94.9116 59.45 94.9716 59.542L95.3976 60.082C95.2336 60.274 95.0496 60.436 94.8456 60.568C94.6416 60.696 94.4276 60.8 94.2036 60.88C93.9836 60.956 93.7576 61.01 93.5256 61.042C93.2976 61.074 93.0756 61.09 92.8596 61.09C92.4316 61.09 92.0336 61.02 91.6656 60.88C91.2976 60.736 90.9776 60.526 90.7056 60.25C90.4336 59.97 90.2196 59.626 90.0636 59.218C89.9076 58.806 89.8296 58.33 89.8296 57.79C89.8296 57.37 89.8976 56.976 90.0336 56.608C90.1696 56.236 90.3636 55.914 90.6156 55.642C90.8716 55.366 91.1816 55.148 91.5456 54.988C91.9136 54.828 92.3276 54.748 92.7876 54.748C93.1756 54.748 93.5336 54.81 93.8616 54.934C94.1896 55.058 94.4716 55.24 94.7076 55.48C94.9436 55.716 95.1276 56.008 95.2596 56.356C95.3956 56.7 95.4636 57.094 95.4636 57.538C95.4636 57.762 95.4396 57.914 95.3916 57.994C95.3436 58.07 95.2516 58.108 95.1156 58.108H91.3056ZM100.44 56.416C100.272 56.212 100.088 56.068 99.8878 55.984C99.6918 55.9 99.4798 55.858 99.2518 55.858C99.0278 55.858 98.8258 55.9 98.6458 55.984C98.4658 56.068 98.3118 56.196 98.1838 56.368C98.0558 56.536 97.9578 56.752 97.8898 57.016C97.8218 57.276 97.7878 57.584 97.7878 57.94C97.7878 58.3 97.8158 58.606 97.8718 58.858C97.9318 59.106 98.0158 59.31 98.1238 59.47C98.2318 59.626 98.3638 59.74 98.5198 59.812C98.6758 59.88 98.8498 59.914 99.0418 59.914C99.3498 59.914 99.6118 59.85 99.8278 59.722C100.044 59.594 100.248 59.412 100.44 59.176V56.416ZM101.922 52.084V61H101.016C100.82 61 100.696 60.91 100.644 60.73L100.518 60.136C100.27 60.42 99.9838 60.65 99.6598 60.826C99.3398 61.002 98.9658 61.09 98.5378 61.09C98.2018 61.09 97.8938 61.02 97.6138 60.88C97.3338 60.74 97.0918 60.538 96.8878 60.274C96.6878 60.006 96.5318 59.676 96.4198 59.284C96.3118 58.892 96.2578 58.444 96.2578 57.94C96.2578 57.484 96.3198 57.06 96.4438 56.668C96.5678 56.276 96.7458 55.936 96.9778 55.648C97.2098 55.36 97.4878 55.136 97.8118 54.976C98.1358 54.812 98.4998 54.73 98.9038 54.73C99.2478 54.73 99.5418 54.784 99.7858 54.892C100.03 55 100.248 55.146 100.44 55.33V52.084H101.922ZM106.74 61V55.96L106.206 55.876C106.09 55.852 105.996 55.812 105.924 55.756C105.856 55.696 105.822 55.612 105.822 55.504V54.898H106.74V54.7C106.74 54.324 106.802 53.976 106.926 53.656C107.05 53.332 107.238 53.052 107.49 52.816C107.742 52.58 108.06 52.396 108.444 52.264C108.832 52.128 109.288 52.06 109.812 52.06C109.98 52.06 110.15 52.07 110.322 52.09C110.498 52.106 110.65 52.134 110.778 52.174L110.73 52.942C110.722 53.034 110.672 53.09 110.58 53.11C110.488 53.126 110.374 53.134 110.238 53.134C109.85 53.134 109.524 53.168 109.26 53.236C109 53.304 108.788 53.406 108.624 53.542C108.464 53.674 108.348 53.842 108.276 54.046C108.208 54.246 108.174 54.48 108.174 54.748V54.898H111.99V61H110.508V55.954H108.222V61H106.74ZM115.009 52.084V61H113.527V52.084H115.009ZM120.452 57.214C120.452 57.022 120.424 56.842 120.368 56.674C120.316 56.502 120.236 56.352 120.128 56.224C120.02 56.096 119.882 55.996 119.714 55.924C119.55 55.848 119.358 55.81 119.138 55.81C118.71 55.81 118.372 55.932 118.124 56.176C117.88 56.42 117.724 56.766 117.656 57.214H120.452ZM117.626 58.108C117.65 58.424 117.706 58.698 117.794 58.93C117.882 59.158 117.998 59.348 118.142 59.5C118.286 59.648 118.456 59.76 118.652 59.836C118.852 59.908 119.072 59.944 119.312 59.944C119.552 59.944 119.758 59.916 119.93 59.86C120.106 59.804 120.258 59.742 120.386 59.674C120.518 59.606 120.632 59.544 120.728 59.488C120.828 59.432 120.924 59.404 121.016 59.404C121.14 59.404 121.232 59.45 121.292 59.542L121.718 60.082C121.554 60.274 121.37 60.436 121.166 60.568C120.962 60.696 120.748 60.8 120.524 60.88C120.304 60.956 120.078 61.01 119.846 61.042C119.618 61.074 119.396 61.09 119.18 61.09C118.752 61.09 118.354 61.02 117.986 60.88C117.618 60.736 117.298 60.526 117.026 60.25C116.754 59.97 116.54 59.626 116.384 59.218C116.228 58.806 116.15 58.33 116.15 57.79C116.15 57.37 116.218 56.976 116.354 56.608C116.49 56.236 116.684 55.914 116.936 55.642C117.192 55.366 117.502 55.148 117.866 54.988C118.234 54.828 118.648 54.748 119.108 54.748C119.496 54.748 119.854 54.81 120.182 54.934C120.51 55.058 120.792 55.24 121.028 55.48C121.264 55.716 121.448 56.008 121.58 56.356C121.716 56.7 121.784 57.094 121.784 57.538C121.784 57.762 121.76 57.914 121.712 57.994C121.664 58.07 121.572 58.108 121.436 58.108H117.626ZM126.652 56.044C126.612 56.108 126.57 56.154 126.526 56.182C126.482 56.206 126.426 56.218 126.358 56.218C126.286 56.218 126.208 56.198 126.124 56.158C126.044 56.118 125.95 56.074 125.842 56.026C125.734 55.974 125.61 55.928 125.47 55.888C125.334 55.848 125.172 55.828 124.984 55.828C124.692 55.828 124.462 55.89 124.294 56.014C124.13 56.138 124.048 56.3 124.048 56.5C124.048 56.632 124.09 56.744 124.174 56.836C124.262 56.924 124.376 57.002 124.516 57.07C124.66 57.138 124.822 57.2 125.002 57.256C125.182 57.308 125.364 57.366 125.548 57.43C125.736 57.494 125.92 57.568 126.1 57.652C126.28 57.732 126.44 57.836 126.58 57.964C126.724 58.088 126.838 58.238 126.922 58.414C127.01 58.59 127.054 58.802 127.054 59.05C127.054 59.346 127 59.62 126.892 59.872C126.788 60.12 126.632 60.336 126.424 60.52C126.216 60.7 125.958 60.842 125.65 60.946C125.346 61.046 124.994 61.096 124.594 61.096C124.382 61.096 124.174 61.076 123.97 61.036C123.77 61 123.576 60.948 123.388 60.88C123.204 60.812 123.032 60.732 122.872 60.64C122.716 60.548 122.578 60.448 122.458 60.34L122.8 59.776C122.844 59.708 122.896 59.656 122.956 59.62C123.016 59.584 123.092 59.566 123.184 59.566C123.276 59.566 123.362 59.592 123.442 59.644C123.526 59.696 123.622 59.752 123.73 59.812C123.838 59.872 123.964 59.928 124.108 59.98C124.256 60.032 124.442 60.058 124.666 60.058C124.842 60.058 124.992 60.038 125.116 59.998C125.244 59.954 125.348 59.898 125.428 59.83C125.512 59.762 125.572 59.684 125.608 59.596C125.648 59.504 125.668 59.41 125.668 59.314C125.668 59.17 125.624 59.052 125.536 58.96C125.452 58.868 125.338 58.788 125.194 58.72C125.054 58.652 124.892 58.592 124.708 58.54C124.528 58.484 124.342 58.424 124.15 58.36C123.962 58.296 123.776 58.222 123.592 58.138C123.412 58.05 123.25 57.94 123.106 57.808C122.966 57.676 122.852 57.514 122.764 57.322C122.68 57.13 122.638 56.898 122.638 56.626C122.638 56.374 122.688 56.134 122.788 55.906C122.888 55.678 123.034 55.48 123.226 55.312C123.422 55.14 123.664 55.004 123.952 54.904C124.244 54.8 124.58 54.748 124.96 54.748C125.384 54.748 125.77 54.818 126.118 54.958C126.466 55.098 126.756 55.282 126.988 55.51L126.652 56.044ZM128.146 62.47C128.074 62.41 128.038 62.336 128.038 62.248C128.038 62.216 128.048 62.18 128.068 62.14C128.092 62.1 128.12 62.064 128.152 62.032C128.196 61.984 128.25 61.924 128.314 61.852C128.378 61.784 128.442 61.704 128.506 61.612C128.57 61.524 128.628 61.426 128.68 61.318C128.736 61.214 128.778 61.102 128.806 60.982C128.678 60.982 128.562 60.96 128.458 60.916C128.354 60.868 128.264 60.804 128.188 60.724C128.116 60.644 128.058 60.55 128.014 60.442C127.974 60.334 127.954 60.216 127.954 60.088C127.954 59.976 127.974 59.872 128.014 59.776C128.058 59.676 128.118 59.59 128.194 59.518C128.27 59.442 128.362 59.384 128.47 59.344C128.578 59.3 128.696 59.278 128.824 59.278C128.976 59.278 129.108 59.306 129.22 59.362C129.336 59.414 129.43 59.488 129.502 59.584C129.578 59.676 129.634 59.784 129.67 59.908C129.71 60.028 129.73 60.156 129.73 60.292C129.73 60.484 129.7 60.686 129.64 60.898C129.584 61.11 129.5 61.322 129.388 61.534C129.276 61.746 129.136 61.952 128.968 62.152C128.804 62.352 128.616 62.536 128.404 62.704L128.146 62.47ZM137.152 58.372C136.724 58.392 136.364 58.43 136.072 58.486C135.78 58.538 135.546 58.606 135.37 58.69C135.194 58.774 135.068 58.872 134.992 58.984C134.916 59.096 134.878 59.218 134.878 59.35C134.878 59.61 134.954 59.796 135.106 59.908C135.262 60.02 135.464 60.076 135.712 60.076C136.016 60.076 136.278 60.022 136.498 59.914C136.722 59.802 136.94 59.634 137.152 59.41V58.372ZM133.756 55.702C134.464 55.054 135.316 54.73 136.312 54.73C136.672 54.73 136.994 54.79 137.278 54.91C137.562 55.026 137.802 55.19 137.998 55.402C138.194 55.61 138.342 55.86 138.442 56.152C138.546 56.444 138.598 56.764 138.598 57.112V61H137.926C137.786 61 137.678 60.98 137.602 60.94C137.526 60.896 137.466 60.81 137.422 60.682L137.29 60.238C137.134 60.378 136.982 60.502 136.834 60.61C136.686 60.714 136.532 60.802 136.372 60.874C136.212 60.946 136.04 61 135.856 61.036C135.676 61.076 135.476 61.096 135.256 61.096C134.996 61.096 134.756 61.062 134.536 60.994C134.316 60.922 134.126 60.816 133.966 60.676C133.806 60.536 133.682 60.362 133.594 60.154C133.506 59.946 133.462 59.704 133.462 59.428C133.462 59.272 133.488 59.118 133.54 58.966C133.592 58.81 133.676 58.662 133.792 58.522C133.912 58.382 134.066 58.25 134.254 58.126C134.442 58.002 134.672 57.894 134.944 57.802C135.22 57.71 135.54 57.636 135.904 57.58C136.268 57.52 136.684 57.484 137.152 57.472V57.112C137.152 56.7 137.064 56.396 136.888 56.2C136.712 56 136.458 55.9 136.126 55.9C135.886 55.9 135.686 55.928 135.526 55.984C135.37 56.04 135.232 56.104 135.112 56.176C134.992 56.244 134.882 56.306 134.782 56.362C134.686 56.418 134.578 56.446 134.458 56.446C134.354 56.446 134.266 56.42 134.194 56.368C134.122 56.312 134.064 56.248 134.02 56.176L133.756 55.702ZM141.392 55.912C141.584 55.544 141.812 55.256 142.076 55.048C142.34 54.836 142.652 54.73 143.012 54.73C143.296 54.73 143.524 54.792 143.696 54.916L143.6 56.026C143.58 56.098 143.55 56.15 143.51 56.182C143.474 56.21 143.424 56.224 143.36 56.224C143.3 56.224 143.21 56.214 143.09 56.194C142.974 56.174 142.86 56.164 142.748 56.164C142.584 56.164 142.438 56.188 142.31 56.236C142.182 56.284 142.066 56.354 141.962 56.446C141.862 56.534 141.772 56.642 141.692 56.77C141.616 56.898 141.544 57.044 141.476 57.208V61H139.994V54.844H140.864C141.016 54.844 141.122 54.872 141.182 54.928C141.242 54.98 141.282 55.076 141.302 55.216L141.392 55.912ZM150.68 61H149.198V55.954H146.342V59.29C146.342 59.482 146.388 59.632 146.48 59.74C146.576 59.848 146.706 59.902 146.87 59.902C146.962 59.902 147.038 59.892 147.098 59.872C147.162 59.848 147.216 59.824 147.26 59.8C147.308 59.776 147.35 59.754 147.386 59.734C147.422 59.71 147.458 59.698 147.494 59.698C147.538 59.698 147.574 59.71 147.602 59.734C147.63 59.754 147.66 59.786 147.692 59.83L148.136 60.55C147.92 60.73 147.672 60.866 147.392 60.958C147.112 61.05 146.822 61.096 146.522 61.096C145.986 61.096 145.574 60.946 145.286 60.646C145.002 60.342 144.86 59.924 144.86 59.392V55.954H144.23C144.15 55.954 144.082 55.928 144.026 55.876C143.97 55.824 143.942 55.746 143.942 55.642V55.054L144.932 54.886L145.244 53.212C145.264 53.132 145.302 53.07 145.358 53.026C145.414 52.982 145.486 52.96 145.574 52.96H146.342V54.898H150.68V61ZM150.938 53.026C150.938 53.154 150.912 53.276 150.86 53.392C150.808 53.504 150.738 53.602 150.65 53.686C150.566 53.77 150.464 53.838 150.344 53.89C150.228 53.938 150.104 53.962 149.972 53.962C149.844 53.962 149.724 53.938 149.612 53.89C149.5 53.838 149.402 53.77 149.318 53.686C149.234 53.602 149.166 53.504 149.114 53.392C149.066 53.276 149.042 53.154 149.042 53.026C149.042 52.894 149.066 52.772 149.114 52.66C149.166 52.544 149.234 52.444 149.318 52.36C149.402 52.272 149.5 52.204 149.612 52.156C149.724 52.104 149.844 52.078 149.972 52.078C150.104 52.078 150.228 52.104 150.344 52.156C150.464 52.204 150.566 52.272 150.65 52.36C150.738 52.444 150.808 52.544 150.86 52.66C150.912 52.772 150.938 52.894 150.938 53.026ZM152.625 61V55.96L152.091 55.876C151.975 55.852 151.881 55.812 151.809 55.756C151.741 55.696 151.707 55.612 151.707 55.504V54.898H152.625V54.442C152.625 54.09 152.677 53.774 152.781 53.494C152.889 53.214 153.041 52.976 153.237 52.78C153.437 52.584 153.679 52.434 153.963 52.33C154.247 52.226 154.567 52.174 154.923 52.174C155.207 52.174 155.471 52.212 155.715 52.288L155.685 53.032C155.681 53.088 155.665 53.134 155.637 53.17C155.609 53.202 155.571 53.228 155.523 53.248C155.479 53.264 155.427 53.276 155.367 53.284C155.307 53.288 155.243 53.29 155.175 53.29C154.999 53.29 154.841 53.31 154.701 53.35C154.565 53.386 154.449 53.452 154.353 53.548C154.257 53.64 154.183 53.764 154.131 53.92C154.083 54.072 154.059 54.262 154.059 54.49V54.898H155.661V55.954H154.107V61H152.625ZM159.722 58.372C159.294 58.392 158.934 58.43 158.642 58.486C158.35 58.538 158.116 58.606 157.94 58.69C157.764 58.774 157.638 58.872 157.562 58.984C157.486 59.096 157.448 59.218 157.448 59.35C157.448 59.61 157.524 59.796 157.676 59.908C157.832 60.02 158.034 60.076 158.282 60.076C158.586 60.076 158.848 60.022 159.068 59.914C159.292 59.802 159.51 59.634 159.722 59.41V58.372ZM156.326 55.702C157.034 55.054 157.886 54.73 158.882 54.73C159.242 54.73 159.564 54.79 159.848 54.91C160.132 55.026 160.372 55.19 160.568 55.402C160.764 55.61 160.912 55.86 161.012 56.152C161.116 56.444 161.168 56.764 161.168 57.112V61H160.496C160.356 61 160.248 60.98 160.172 60.94C160.096 60.896 160.036 60.81 159.992 60.682L159.86 60.238C159.704 60.378 159.552 60.502 159.404 60.61C159.256 60.714 159.102 60.802 158.942 60.874C158.782 60.946 158.61 61 158.426 61.036C158.246 61.076 158.046 61.096 157.826 61.096C157.566 61.096 157.326 61.062 157.106 60.994C156.886 60.922 156.696 60.816 156.536 60.676C156.376 60.536 156.252 60.362 156.164 60.154C156.076 59.946 156.032 59.704 156.032 59.428C156.032 59.272 156.058 59.118 156.11 58.966C156.162 58.81 156.246 58.662 156.362 58.522C156.482 58.382 156.636 58.25 156.824 58.126C157.012 58.002 157.242 57.894 157.514 57.802C157.79 57.71 158.11 57.636 158.474 57.58C158.838 57.52 159.254 57.484 159.722 57.472V57.112C159.722 56.7 159.634 56.396 159.458 56.2C159.282 56 159.028 55.9 158.696 55.9C158.456 55.9 158.256 55.928 158.096 55.984C157.94 56.04 157.802 56.104 157.682 56.176C157.562 56.244 157.452 56.306 157.352 56.362C157.256 56.418 157.148 56.446 157.028 56.446C156.924 56.446 156.836 56.42 156.764 56.368C156.692 56.312 156.634 56.248 156.59 56.176L156.326 55.702ZM166.974 56.146C166.93 56.202 166.886 56.246 166.842 56.278C166.802 56.31 166.742 56.326 166.662 56.326C166.586 56.326 166.512 56.304 166.44 56.26C166.368 56.212 166.282 56.16 166.182 56.104C166.082 56.044 165.962 55.992 165.822 55.948C165.686 55.9 165.516 55.876 165.312 55.876C165.052 55.876 164.824 55.924 164.628 56.02C164.432 56.112 164.268 56.246 164.136 56.422C164.008 56.598 163.912 56.812 163.848 57.064C163.784 57.312 163.752 57.594 163.752 57.91C163.752 58.238 163.786 58.53 163.854 58.786C163.926 59.042 164.028 59.258 164.16 59.434C164.292 59.606 164.452 59.738 164.64 59.83C164.828 59.918 165.04 59.962 165.276 59.962C165.512 59.962 165.702 59.934 165.846 59.878C165.994 59.818 166.118 59.754 166.218 59.686C166.318 59.614 166.404 59.55 166.476 59.494C166.552 59.434 166.636 59.404 166.728 59.404C166.848 59.404 166.938 59.45 166.998 59.542L167.424 60.082C167.26 60.274 167.082 60.436 166.89 60.568C166.698 60.696 166.498 60.8 166.29 60.88C166.086 60.956 165.874 61.01 165.654 61.042C165.438 61.074 165.222 61.09 165.006 61.09C164.626 61.09 164.268 61.02 163.932 60.88C163.596 60.736 163.302 60.528 163.05 60.256C162.798 59.984 162.598 59.652 162.45 59.26C162.306 58.864 162.234 58.414 162.234 57.91C162.234 57.458 162.298 57.04 162.426 56.656C162.558 56.268 162.75 55.934 163.002 55.654C163.254 55.37 163.566 55.148 163.938 54.988C164.31 54.828 164.738 54.748 165.222 54.748C165.682 54.748 166.084 54.822 166.428 54.97C166.776 55.118 167.088 55.33 167.364 55.606L166.974 56.146ZM170.405 61.096C169.869 61.096 169.457 60.946 169.169 60.646C168.885 60.342 168.743 59.924 168.743 59.392V55.954H168.113C168.033 55.954 167.965 55.928 167.909 55.876C167.853 55.824 167.825 55.746 167.825 55.642V55.054L168.815 54.892L169.127 53.212C169.147 53.132 169.185 53.07 169.241 53.026C169.297 52.982 169.369 52.96 169.457 52.96H170.225V54.898H171.869V55.954H170.225V59.29C170.225 59.482 170.271 59.632 170.363 59.74C170.459 59.848 170.589 59.902 170.753 59.902C170.845 59.902 170.921 59.892 170.981 59.872C171.045 59.848 171.099 59.824 171.143 59.8C171.191 59.776 171.233 59.754 171.269 59.734C171.305 59.71 171.341 59.698 171.377 59.698C171.421 59.698 171.457 59.71 171.485 59.734C171.513 59.754 171.543 59.786 171.575 59.83L172.019 60.55C171.803 60.73 171.555 60.866 171.275 60.958C170.995 61.05 170.705 61.096 170.405 61.096ZM176.574 56.044C176.534 56.108 176.492 56.154 176.448 56.182C176.404 56.206 176.348 56.218 176.28 56.218C176.208 56.218 176.13 56.198 176.046 56.158C175.966 56.118 175.872 56.074 175.764 56.026C175.656 55.974 175.532 55.928 175.392 55.888C175.256 55.848 175.094 55.828 174.906 55.828C174.614 55.828 174.384 55.89 174.216 56.014C174.052 56.138 173.97 56.3 173.97 56.5C173.97 56.632 174.012 56.744 174.096 56.836C174.184 56.924 174.298 57.002 174.438 57.07C174.582 57.138 174.744 57.2 174.924 57.256C175.104 57.308 175.286 57.366 175.47 57.43C175.658 57.494 175.842 57.568 176.022 57.652C176.202 57.732 176.362 57.836 176.502 57.964C176.646 58.088 176.76 58.238 176.844 58.414C176.932 58.59 176.976 58.802 176.976 59.05C176.976 59.346 176.922 59.62 176.814 59.872C176.71 60.12 176.554 60.336 176.346 60.52C176.138 60.7 175.88 60.842 175.572 60.946C175.268 61.046 174.916 61.096 174.516 61.096C174.304 61.096 174.096 61.076 173.892 61.036C173.692 61 173.498 60.948 173.31 60.88C173.126 60.812 172.954 60.732 172.794 60.64C172.638 60.548 172.5 60.448 172.38 60.34L172.722 59.776C172.766 59.708 172.818 59.656 172.878 59.62C172.938 59.584 173.014 59.566 173.106 59.566C173.198 59.566 173.284 59.592 173.364 59.644C173.448 59.696 173.544 59.752 173.652 59.812C173.76 59.872 173.886 59.928 174.03 59.98C174.178 60.032 174.364 60.058 174.588 60.058C174.764 60.058 174.914 60.038 175.038 59.998C175.166 59.954 175.27 59.898 175.35 59.83C175.434 59.762 175.494 59.684 175.53 59.596C175.57 59.504 175.59 59.41 175.59 59.314C175.59 59.17 175.546 59.052 175.458 58.96C175.374 58.868 175.26 58.788 175.116 58.72C174.976 58.652 174.814 58.592 174.63 58.54C174.45 58.484 174.264 58.424 174.072 58.36C173.884 58.296 173.698 58.222 173.514 58.138C173.334 58.05 173.172 57.94 173.028 57.808C172.888 57.676 172.774 57.514 172.686 57.322C172.602 57.13 172.56 56.898 172.56 56.626C172.56 56.374 172.61 56.134 172.71 55.906C172.81 55.678 172.956 55.48 173.148 55.312C173.344 55.14 173.586 55.004 173.874 54.904C174.166 54.8 174.502 54.748 174.882 54.748C175.306 54.748 175.692 54.818 176.04 54.958C176.388 55.098 176.678 55.282 176.91 55.51L176.574 56.044ZM178.067 62.47C177.995 62.41 177.959 62.336 177.959 62.248C177.959 62.216 177.969 62.18 177.989 62.14C178.013 62.1 178.041 62.064 178.073 62.032C178.117 61.984 178.171 61.924 178.235 61.852C178.299 61.784 178.363 61.704 178.427 61.612C178.491 61.524 178.549 61.426 178.601 61.318C178.657 61.214 178.699 61.102 178.727 60.982C178.599 60.982 178.483 60.96 178.379 60.916C178.275 60.868 178.185 60.804 178.109 60.724C178.037 60.644 177.979 60.55 177.935 60.442C177.895 60.334 177.875 60.216 177.875 60.088C177.875 59.976 177.895 59.872 177.935 59.776C177.979 59.676 178.039 59.59 178.115 59.518C178.191 59.442 178.283 59.384 178.391 59.344C178.499 59.3 178.617 59.278 178.745 59.278C178.897 59.278 179.029 59.306 179.141 59.362C179.257 59.414 179.351 59.488 179.423 59.584C179.499 59.676 179.555 59.784 179.591 59.908C179.631 60.028 179.651 60.156 179.651 60.292C179.651 60.484 179.621 60.686 179.561 60.898C179.505 61.11 179.421 61.322 179.309 61.534C179.197 61.746 179.057 61.952 178.889 62.152C178.725 62.352 178.537 62.536 178.325 62.704L178.067 62.47ZM192.366 54.844L190.41 61H189.222C189.086 61 188.992 60.912 188.94 60.736L187.836 57.178C187.8 57.058 187.766 56.94 187.734 56.824C187.706 56.704 187.682 56.584 187.662 56.464C187.638 56.584 187.61 56.706 187.578 56.83C187.55 56.95 187.518 57.07 187.482 57.19L186.36 60.736C186.312 60.912 186.206 61 186.042 61H184.902L182.952 54.844H184.134C184.242 54.844 184.334 54.87 184.41 54.922C184.486 54.974 184.536 55.04 184.56 55.12L185.442 58.408C185.486 58.588 185.524 58.764 185.556 58.936C185.592 59.108 185.622 59.28 185.646 59.452C185.69 59.28 185.736 59.108 185.784 58.936C185.836 58.764 185.89 58.588 185.946 58.408L186.966 55.108C186.99 55.028 187.036 54.962 187.104 54.91C187.176 54.858 187.262 54.832 187.362 54.832H188.016C188.12 54.832 188.208 54.858 188.28 54.91C188.356 54.962 188.406 55.028 188.43 55.108L189.42 58.408C189.472 58.588 189.52 58.766 189.564 58.942C189.612 59.114 189.658 59.286 189.702 59.458C189.754 59.118 189.828 58.768 189.924 58.408L190.83 55.12C190.858 55.04 190.908 54.974 190.98 54.922C191.052 54.87 191.138 54.844 191.238 54.844H192.366ZM197.069 57.214C197.069 57.022 197.041 56.842 196.985 56.674C196.933 56.502 196.853 56.352 196.745 56.224C196.637 56.096 196.499 55.996 196.331 55.924C196.167 55.848 195.975 55.81 195.755 55.81C195.327 55.81 194.989 55.932 194.741 56.176C194.497 56.42 194.341 56.766 194.273 57.214H197.069ZM194.243 58.108C194.267 58.424 194.323 58.698 194.411 58.93C194.499 59.158 194.615 59.348 194.759 59.5C194.903 59.648 195.073 59.76 195.269 59.836C195.469 59.908 195.689 59.944 195.929 59.944C196.169 59.944 196.375 59.916 196.547 59.86C196.723 59.804 196.875 59.742 197.003 59.674C197.135 59.606 197.249 59.544 197.345 59.488C197.445 59.432 197.541 59.404 197.633 59.404C197.757 59.404 197.849 59.45 197.909 59.542L198.335 60.082C198.171 60.274 197.987 60.436 197.783 60.568C197.579 60.696 197.365 60.8 197.141 60.88C196.921 60.956 196.695 61.01 196.463 61.042C196.235 61.074 196.013 61.09 195.797 61.09C195.369 61.09 194.971 61.02 194.603 60.88C194.235 60.736 193.915 60.526 193.643 60.25C193.371 59.97 193.157 59.626 193.001 59.218C192.845 58.806 192.767 58.33 192.767 57.79C192.767 57.37 192.835 56.976 192.971 56.608C193.107 56.236 193.301 55.914 193.553 55.642C193.809 55.366 194.119 55.148 194.483 54.988C194.851 54.828 195.265 54.748 195.725 54.748C196.113 54.748 196.471 54.81 196.799 54.934C197.127 55.058 197.409 55.24 197.645 55.48C197.881 55.716 198.065 56.008 198.197 56.356C198.333 56.7 198.401 57.094 198.401 57.538C198.401 57.762 198.377 57.914 198.329 57.994C198.281 58.07 198.189 58.108 198.053 58.108H194.243ZM200.995 59.404C201.163 59.608 201.345 59.752 201.541 59.836C201.741 59.92 201.951 59.962 202.171 59.962C202.399 59.962 202.603 59.922 202.783 59.842C202.967 59.758 203.123 59.63 203.251 59.458C203.379 59.282 203.477 59.06 203.545 58.792C203.613 58.52 203.647 58.196 203.647 57.82C203.647 57.144 203.535 56.656 203.311 56.356C203.087 56.052 202.765 55.9 202.345 55.9C202.061 55.9 201.813 55.966 201.601 56.098C201.389 56.226 201.187 56.408 200.995 56.644V59.404ZM200.995 55.6C201.243 55.34 201.517 55.134 201.817 54.982C202.121 54.826 202.467 54.748 202.855 54.748C203.211 54.748 203.531 54.818 203.815 54.958C204.103 55.098 204.347 55.3 204.547 55.564C204.751 55.824 204.907 56.14 205.015 56.512C205.123 56.884 205.177 57.302 205.177 57.766C205.177 58.266 205.115 58.72 204.991 59.128C204.867 59.536 204.689 59.886 204.457 60.178C204.229 60.466 203.953 60.69 203.629 60.85C203.305 61.01 202.945 61.09 202.549 61.09C202.357 61.09 202.183 61.07 202.027 61.03C201.871 60.994 201.727 60.942 201.595 60.874C201.463 60.806 201.341 60.724 201.229 60.628C201.121 60.528 201.017 60.418 200.917 60.298L200.851 60.712C200.827 60.816 200.785 60.89 200.725 60.934C200.669 60.978 200.591 61 200.491 61H199.513V52.084H200.995V55.6ZM210.078 56.044C210.038 56.108 209.996 56.154 209.952 56.182C209.908 56.206 209.852 56.218 209.784 56.218C209.712 56.218 209.634 56.198 209.55 56.158C209.47 56.118 209.376 56.074 209.268 56.026C209.16 55.974 209.036 55.928 208.896 55.888C208.76 55.848 208.598 55.828 208.41 55.828C208.118 55.828 207.888 55.89 207.72 56.014C207.556 56.138 207.474 56.3 207.474 56.5C207.474 56.632 207.516 56.744 207.6 56.836C207.688 56.924 207.802 57.002 207.942 57.07C208.086 57.138 208.248 57.2 208.428 57.256C208.608 57.308 208.79 57.366 208.974 57.43C209.162 57.494 209.346 57.568 209.526 57.652C209.706 57.732 209.866 57.836 210.006 57.964C210.15 58.088 210.264 58.238 210.348 58.414C210.436 58.59 210.48 58.802 210.48 59.05C210.48 59.346 210.426 59.62 210.318 59.872C210.214 60.12 210.058 60.336 209.85 60.52C209.642 60.7 209.384 60.842 209.076 60.946C208.772 61.046 208.42 61.096 208.02 61.096C207.808 61.096 207.6 61.076 207.396 61.036C207.196 61 207.002 60.948 206.814 60.88C206.63 60.812 206.458 60.732 206.298 60.64C206.142 60.548 206.004 60.448 205.884 60.34L206.226 59.776C206.27 59.708 206.322 59.656 206.382 59.62C206.442 59.584 206.518 59.566 206.61 59.566C206.702 59.566 206.788 59.592 206.868 59.644C206.952 59.696 207.048 59.752 207.156 59.812C207.264 59.872 207.39 59.928 207.534 59.98C207.682 60.032 207.868 60.058 208.092 60.058C208.268 60.058 208.418 60.038 208.542 59.998C208.67 59.954 208.774 59.898 208.854 59.83C208.938 59.762 208.998 59.684 209.034 59.596C209.074 59.504 209.094 59.41 209.094 59.314C209.094 59.17 209.05 59.052 208.962 58.96C208.878 58.868 208.764 58.788 208.62 58.72C208.48 58.652 208.318 58.592 208.134 58.54C207.954 58.484 207.768 58.424 207.576 58.36C207.388 58.296 207.202 58.222 207.018 58.138C206.838 58.05 206.676 57.94 206.532 57.808C206.392 57.676 206.278 57.514 206.19 57.322C206.106 57.13 206.064 56.898 206.064 56.626C206.064 56.374 206.114 56.134 206.214 55.906C206.314 55.678 206.46 55.48 206.652 55.312C206.848 55.14 207.09 55.004 207.378 54.904C207.67 54.8 208.006 54.748 208.386 54.748C208.81 54.748 209.196 54.818 209.544 54.958C209.892 55.098 210.182 55.282 210.414 55.51L210.078 56.044ZM213.131 54.844V61H211.643V54.844H213.131ZM213.335 53.05C213.335 53.178 213.309 53.298 213.257 53.41C213.205 53.522 213.135 53.62 213.047 53.704C212.963 53.788 212.863 53.856 212.747 53.908C212.631 53.956 212.507 53.98 212.375 53.98C212.247 53.98 212.125 53.956 212.009 53.908C211.897 53.856 211.799 53.788 211.715 53.704C211.631 53.62 211.563 53.522 211.511 53.41C211.463 53.298 211.439 53.178 211.439 53.05C211.439 52.918 211.463 52.794 211.511 52.678C211.563 52.562 211.631 52.462 211.715 52.378C211.799 52.294 211.897 52.228 212.009 52.18C212.125 52.128 212.247 52.102 212.375 52.102C212.507 52.102 212.631 52.128 212.747 52.18C212.863 52.228 212.963 52.294 213.047 52.378C213.135 52.462 213.205 52.562 213.257 52.678C213.309 52.794 213.335 52.918 213.335 53.05ZM216.694 61.096C216.158 61.096 215.746 60.946 215.458 60.646C215.174 60.342 215.032 59.924 215.032 59.392V55.954H214.402C214.322 55.954 214.254 55.928 214.198 55.876C214.142 55.824 214.114 55.746 214.114 55.642V55.054L215.104 54.892L215.416 53.212C215.436 53.132 215.474 53.07 215.53 53.026C215.586 52.982 215.658 52.96 215.746 52.96H216.514V54.898H218.158V55.954H216.514V59.29C216.514 59.482 216.56 59.632 216.652 59.74C216.748 59.848 216.878 59.902 217.042 59.902C217.134 59.902 217.21 59.892 217.27 59.872C217.334 59.848 217.388 59.824 217.432 59.8C217.48 59.776 217.522 59.754 217.558 59.734C217.594 59.71 217.63 59.698 217.666 59.698C217.71 59.698 217.746 59.71 217.774 59.734C217.802 59.754 217.832 59.786 217.864 59.83L218.308 60.55C218.092 60.73 217.844 60.866 217.564 60.958C217.284 61.05 216.994 61.096 216.694 61.096ZM223.026 57.214C223.026 57.022 222.998 56.842 222.942 56.674C222.89 56.502 222.81 56.352 222.702 56.224C222.594 56.096 222.456 55.996 222.288 55.924C222.124 55.848 221.932 55.81 221.712 55.81C221.284 55.81 220.946 55.932 220.698 56.176C220.454 56.42 220.298 56.766 220.23 57.214H223.026ZM220.2 58.108C220.224 58.424 220.28 58.698 220.368 58.93C220.456 59.158 220.572 59.348 220.716 59.5C220.86 59.648 221.03 59.76 221.226 59.836C221.426 59.908 221.646 59.944 221.886 59.944C222.126 59.944 222.332 59.916 222.504 59.86C222.68 59.804 222.832 59.742 222.96 59.674C223.092 59.606 223.206 59.544 223.302 59.488C223.402 59.432 223.498 59.404 223.59 59.404C223.714 59.404 223.806 59.45 223.866 59.542L224.292 60.082C224.128 60.274 223.944 60.436 223.74 60.568C223.536 60.696 223.322 60.8 223.098 60.88C222.878 60.956 222.652 61.01 222.42 61.042C222.192 61.074 221.97 61.09 221.754 61.09C221.326 61.09 220.928 61.02 220.56 60.88C220.192 60.736 219.872 60.526 219.6 60.25C219.328 59.97 219.114 59.626 218.958 59.218C218.802 58.806 218.724 58.33 218.724 57.79C218.724 57.37 218.792 56.976 218.928 56.608C219.064 56.236 219.258 55.914 219.51 55.642C219.766 55.366 220.076 55.148 220.44 54.988C220.808 54.828 221.222 54.748 221.682 54.748C222.07 54.748 222.428 54.81 222.756 54.934C223.084 55.058 223.366 55.24 223.602 55.48C223.838 55.716 224.022 56.008 224.154 56.356C224.29 56.7 224.358 57.094 224.358 57.538C224.358 57.762 224.334 57.914 224.286 57.994C224.238 58.07 224.146 58.108 224.01 58.108H220.2ZM229.226 56.044C229.186 56.108 229.144 56.154 229.1 56.182C229.056 56.206 229 56.218 228.932 56.218C228.86 56.218 228.782 56.198 228.698 56.158C228.618 56.118 228.524 56.074 228.416 56.026C228.308 55.974 228.184 55.928 228.044 55.888C227.908 55.848 227.746 55.828 227.558 55.828C227.266 55.828 227.036 55.89 226.868 56.014C226.704 56.138 226.622 56.3 226.622 56.5C226.622 56.632 226.664 56.744 226.748 56.836C226.836 56.924 226.95 57.002 227.09 57.07C227.234 57.138 227.396 57.2 227.576 57.256C227.756 57.308 227.938 57.366 228.122 57.43C228.31 57.494 228.494 57.568 228.674 57.652C228.854 57.732 229.014 57.836 229.154 57.964C229.298 58.088 229.412 58.238 229.496 58.414C229.584 58.59 229.628 58.802 229.628 59.05C229.628 59.346 229.574 59.62 229.466 59.872C229.362 60.12 229.206 60.336 228.998 60.52C228.79 60.7 228.532 60.842 228.224 60.946C227.92 61.046 227.568 61.096 227.168 61.096C226.956 61.096 226.748 61.076 226.544 61.036C226.344 61 226.15 60.948 225.962 60.88C225.778 60.812 225.606 60.732 225.446 60.64C225.29 60.548 225.152 60.448 225.032 60.34L225.374 59.776C225.418 59.708 225.47 59.656 225.53 59.62C225.59 59.584 225.666 59.566 225.758 59.566C225.85 59.566 225.936 59.592 226.016 59.644C226.1 59.696 226.196 59.752 226.304 59.812C226.412 59.872 226.538 59.928 226.682 59.98C226.83 60.032 227.016 60.058 227.24 60.058C227.416 60.058 227.566 60.038 227.69 59.998C227.818 59.954 227.922 59.898 228.002 59.83C228.086 59.762 228.146 59.684 228.182 59.596C228.222 59.504 228.242 59.41 228.242 59.314C228.242 59.17 228.198 59.052 228.11 58.96C228.026 58.868 227.912 58.788 227.768 58.72C227.628 58.652 227.466 58.592 227.282 58.54C227.102 58.484 226.916 58.424 226.724 58.36C226.536 58.296 226.35 58.222 226.166 58.138C225.986 58.05 225.824 57.94 225.68 57.808C225.54 57.676 225.426 57.514 225.338 57.322C225.254 57.13 225.212 56.898 225.212 56.626C225.212 56.374 225.262 56.134 225.362 55.906C225.462 55.678 225.608 55.48 225.8 55.312C225.996 55.14 226.238 55.004 226.526 54.904C226.818 54.8 227.154 54.748 227.534 54.748C227.958 54.748 228.344 54.818 228.692 54.958C229.04 55.098 229.33 55.282 229.562 55.51L229.226 56.044ZM230.72 62.47C230.648 62.41 230.612 62.336 230.612 62.248C230.612 62.216 230.622 62.18 230.642 62.14C230.666 62.1 230.694 62.064 230.726 62.032C230.77 61.984 230.824 61.924 230.888 61.852C230.952 61.784 231.016 61.704 231.08 61.612C231.144 61.524 231.202 61.426 231.254 61.318C231.31 61.214 231.352 61.102 231.38 60.982C231.252 60.982 231.136 60.96 231.032 60.916C230.928 60.868 230.838 60.804 230.762 60.724C230.69 60.644 230.632 60.55 230.588 60.442C230.548 60.334 230.528 60.216 230.528 60.088C230.528 59.976 230.548 59.872 230.588 59.776C230.632 59.676 230.692 59.59 230.768 59.518C230.844 59.442 230.936 59.384 231.044 59.344C231.152 59.3 231.27 59.278 231.398 59.278C231.55 59.278 231.682 59.306 231.794 59.362C231.91 59.414 232.004 59.488 232.076 59.584C232.152 59.676 232.208 59.784 232.244 59.908C232.284 60.028 232.304 60.156 232.304 60.292C232.304 60.484 232.274 60.686 232.214 60.898C232.158 61.11 232.074 61.322 231.962 61.534C231.85 61.746 231.71 61.952 231.542 62.152C231.378 62.352 231.19 62.536 230.978 62.704L230.72 62.47ZM239.726 58.372C239.298 58.392 238.938 58.43 238.646 58.486C238.354 58.538 238.12 58.606 237.944 58.69C237.768 58.774 237.642 58.872 237.566 58.984C237.49 59.096 237.452 59.218 237.452 59.35C237.452 59.61 237.528 59.796 237.68 59.908C237.836 60.02 238.038 60.076 238.286 60.076C238.59 60.076 238.852 60.022 239.072 59.914C239.296 59.802 239.514 59.634 239.726 59.41V58.372ZM236.33 55.702C237.038 55.054 237.89 54.73 238.886 54.73C239.246 54.73 239.568 54.79 239.852 54.91C240.136 55.026 240.376 55.19 240.572 55.402C240.768 55.61 240.916 55.86 241.016 56.152C241.12 56.444 241.172 56.764 241.172 57.112V61H240.5C240.36 61 240.252 60.98 240.176 60.94C240.1 60.896 240.04 60.81 239.996 60.682L239.864 60.238C239.708 60.378 239.556 60.502 239.408 60.61C239.26 60.714 239.106 60.802 238.946 60.874C238.786 60.946 238.614 61 238.43 61.036C238.25 61.076 238.05 61.096 237.83 61.096C237.57 61.096 237.33 61.062 237.11 60.994C236.89 60.922 236.7 60.816 236.54 60.676C236.38 60.536 236.256 60.362 236.168 60.154C236.08 59.946 236.036 59.704 236.036 59.428C236.036 59.272 236.062 59.118 236.114 58.966C236.166 58.81 236.25 58.662 236.366 58.522C236.486 58.382 236.64 58.25 236.828 58.126C237.016 58.002 237.246 57.894 237.518 57.802C237.794 57.71 238.114 57.636 238.478 57.58C238.842 57.52 239.258 57.484 239.726 57.472V57.112C239.726 56.7 239.638 56.396 239.462 56.2C239.286 56 239.032 55.9 238.7 55.9C238.46 55.9 238.26 55.928 238.1 55.984C237.944 56.04 237.806 56.104 237.686 56.176C237.566 56.244 237.456 56.306 237.356 56.362C237.26 56.418 237.152 56.446 237.032 56.446C236.928 56.446 236.84 56.42 236.768 56.368C236.696 56.312 236.638 56.248 236.594 56.176L236.33 55.702ZM243.954 55.6C244.078 55.476 244.208 55.362 244.344 55.258C244.484 55.15 244.63 55.06 244.782 54.988C244.938 54.912 245.104 54.854 245.28 54.814C245.456 54.77 245.648 54.748 245.856 54.748C246.192 54.748 246.49 54.806 246.75 54.922C247.01 55.034 247.226 55.194 247.398 55.402C247.574 55.606 247.706 55.852 247.794 56.14C247.886 56.424 247.932 56.738 247.932 57.082V61H246.45V57.082C246.45 56.706 246.364 56.416 246.192 56.212C246.02 56.004 245.758 55.9 245.406 55.9C245.15 55.9 244.91 55.958 244.686 56.074C244.462 56.19 244.25 56.348 244.05 56.548V61H242.568V54.844H243.474C243.666 54.844 243.792 54.934 243.852 55.114L243.954 55.6ZM253.205 56.416C253.037 56.212 252.853 56.068 252.653 55.984C252.457 55.9 252.245 55.858 252.017 55.858C251.793 55.858 251.591 55.9 251.411 55.984C251.231 56.068 251.077 56.196 250.949 56.368C250.821 56.536 250.723 56.752 250.655 57.016C250.587 57.276 250.553 57.584 250.553 57.94C250.553 58.3 250.581 58.606 250.637 58.858C250.697 59.106 250.781 59.31 250.889 59.47C250.997 59.626 251.129 59.74 251.285 59.812C251.441 59.88 251.615 59.914 251.807 59.914C252.115 59.914 252.377 59.85 252.593 59.722C252.809 59.594 253.013 59.412 253.205 59.176V56.416ZM254.687 52.084V61H253.781C253.585 61 253.461 60.91 253.409 60.73L253.283 60.136C253.035 60.42 252.749 60.65 252.425 60.826C252.105 61.002 251.731 61.09 251.303 61.09C250.967 61.09 250.659 61.02 250.379 60.88C250.099 60.74 249.857 60.538 249.653 60.274C249.453 60.006 249.297 59.676 249.185 59.284C249.077 58.892 249.023 58.444 249.023 57.94C249.023 57.484 249.085 57.06 249.209 56.668C249.333 56.276 249.511 55.936 249.743 55.648C249.975 55.36 250.253 55.136 250.577 54.976C250.901 54.812 251.265 54.73 251.669 54.73C252.013 54.73 252.307 54.784 252.551 54.892C252.795 55 253.013 55.146 253.205 55.33V52.084H254.687ZM259.068 61V54.844H259.974C260.166 54.844 260.292 54.934 260.352 55.114L260.448 55.57C260.556 55.45 260.668 55.34 260.784 55.24C260.904 55.14 261.03 55.054 261.162 54.982C261.298 54.91 261.442 54.854 261.594 54.814C261.75 54.77 261.92 54.748 262.104 54.748C262.492 54.748 262.81 54.854 263.058 55.066C263.31 55.274 263.498 55.552 263.622 55.9C263.718 55.696 263.838 55.522 263.982 55.378C264.126 55.23 264.284 55.11 264.456 55.018C264.628 54.926 264.81 54.858 265.002 54.814C265.198 54.77 265.394 54.748 265.59 54.748C265.93 54.748 266.232 54.8 266.496 54.904C266.76 55.008 266.982 55.16 267.162 55.36C267.342 55.56 267.478 55.804 267.57 56.092C267.666 56.38 267.714 56.71 267.714 57.082V61H266.232V57.082C266.232 56.69 266.146 56.396 265.974 56.2C265.802 56 265.55 55.9 265.218 55.9C265.066 55.9 264.924 55.926 264.792 55.978C264.664 56.03 264.55 56.106 264.45 56.206C264.354 56.302 264.278 56.424 264.222 56.572C264.166 56.72 264.138 56.89 264.138 57.082V61H262.65V57.082C262.65 56.67 262.566 56.37 262.398 56.182C262.234 55.994 261.992 55.9 261.672 55.9C261.456 55.9 261.254 55.954 261.066 56.062C260.882 56.166 260.71 56.31 260.55 56.494V61H259.068ZM271.847 54.748C272.303 54.748 272.717 54.822 273.089 54.97C273.465 55.118 273.785 55.328 274.049 55.6C274.317 55.872 274.523 56.204 274.667 56.596C274.811 56.988 274.883 57.426 274.883 57.91C274.883 58.398 274.811 58.838 274.667 59.23C274.523 59.622 274.317 59.956 274.049 60.232C273.785 60.508 273.465 60.72 273.089 60.868C272.717 61.016 272.303 61.09 271.847 61.09C271.387 61.09 270.969 61.016 270.593 60.868C270.217 60.72 269.895 60.508 269.627 60.232C269.363 59.956 269.157 59.622 269.009 59.23C268.865 58.838 268.793 58.398 268.793 57.91C268.793 57.426 268.865 56.988 269.009 56.596C269.157 56.204 269.363 55.872 269.627 55.6C269.895 55.328 270.217 55.118 270.593 54.97C270.969 54.822 271.387 54.748 271.847 54.748ZM271.847 59.95C272.359 59.95 272.737 59.778 272.981 59.434C273.229 59.09 273.353 58.586 273.353 57.922C273.353 57.258 273.229 56.752 272.981 56.404C272.737 56.056 272.359 55.882 271.847 55.882C271.327 55.882 270.941 56.058 270.689 56.41C270.441 56.758 270.317 57.262 270.317 57.922C270.317 58.582 270.441 59.086 270.689 59.434C270.941 59.778 271.327 59.95 271.847 59.95ZM277.411 55.912C277.603 55.544 277.831 55.256 278.095 55.048C278.359 54.836 278.671 54.73 279.031 54.73C279.315 54.73 279.543 54.792 279.715 54.916L279.619 56.026C279.599 56.098 279.569 56.15 279.529 56.182C279.493 56.21 279.443 56.224 279.379 56.224C279.319 56.224 279.229 56.214 279.109 56.194C278.993 56.174 278.879 56.164 278.767 56.164C278.603 56.164 278.457 56.188 278.329 56.236C278.201 56.284 278.085 56.354 277.981 56.446C277.881 56.534 277.791 56.642 277.711 56.77C277.635 56.898 277.563 57.044 277.495 57.208V61H276.013V54.844H276.883C277.035 54.844 277.141 54.872 277.201 54.928C277.261 54.98 277.301 55.076 277.321 55.216L277.411 55.912ZM284.28 57.214C284.28 57.022 284.252 56.842 284.196 56.674C284.144 56.502 284.064 56.352 283.956 56.224C283.848 56.096 283.71 55.996 283.542 55.924C283.378 55.848 283.186 55.81 282.966 55.81C282.538 55.81 282.2 55.932 281.952 56.176C281.708 56.42 281.552 56.766 281.484 57.214H284.28ZM281.454 58.108C281.478 58.424 281.534 58.698 281.622 58.93C281.71 59.158 281.826 59.348 281.97 59.5C282.114 59.648 282.284 59.76 282.48 59.836C282.68 59.908 282.9 59.944 283.14 59.944C283.38 59.944 283.586 59.916 283.758 59.86C283.934 59.804 284.086 59.742 284.214 59.674C284.346 59.606 284.46 59.544 284.556 59.488C284.656 59.432 284.752 59.404 284.844 59.404C284.968 59.404 285.06 59.45 285.12 59.542L285.546 60.082C285.382 60.274 285.198 60.436 284.994 60.568C284.79 60.696 284.576 60.8 284.352 60.88C284.132 60.956 283.906 61.01 283.674 61.042C283.446 61.074 283.224 61.09 283.008 61.09C282.58 61.09 282.182 61.02 281.814 60.88C281.446 60.736 281.126 60.526 280.854 60.25C280.582 59.97 280.368 59.626 280.212 59.218C280.056 58.806 279.978 58.33 279.978 57.79C279.978 57.37 280.046 56.976 280.182 56.608C280.318 56.236 280.512 55.914 280.764 55.642C281.02 55.366 281.33 55.148 281.694 54.988C282.062 54.828 282.476 54.748 282.936 54.748C283.324 54.748 283.682 54.81 284.01 54.934C284.338 55.058 284.62 55.24 284.856 55.48C285.092 55.716 285.276 56.008 285.408 56.356C285.544 56.7 285.612 57.094 285.612 57.538C285.612 57.762 285.588 57.914 285.54 57.994C285.492 58.07 285.4 58.108 285.264 58.108H281.454Z" fill="#FE414D"/>
    <path d="M22.976 35.022V36H18.098V27.402H19.256V35.022H22.976ZM25.1381 29.922V36H24.0701V29.922H25.1381ZM25.3661 28.014C25.3661 28.118 25.3441 28.216 25.3001 28.308C25.2601 28.396 25.2041 28.476 25.1321 28.548C25.0641 28.616 24.9821 28.67 24.8861 28.71C24.7941 28.75 24.6961 28.77 24.5921 28.77C24.4881 28.77 24.3901 28.75 24.2981 28.71C24.2101 28.67 24.1321 28.616 24.0641 28.548C23.9961 28.476 23.9421 28.396 23.9021 28.308C23.8621 28.216 23.8421 28.118 23.8421 28.014C23.8421 27.91 23.8621 27.812 23.9021 27.72C23.9421 27.624 23.9961 27.542 24.0641 27.474C24.1321 27.402 24.2101 27.346 24.2981 27.306C24.3901 27.266 24.4881 27.246 24.5921 27.246C24.6961 27.246 24.7941 27.266 24.8861 27.306C24.9821 27.346 25.0641 27.402 25.1321 27.474C25.2041 27.542 25.2601 27.624 25.3001 27.72C25.3441 27.812 25.3661 27.91 25.3661 28.014ZM27.9669 34.536C28.1629 34.8 28.3769 34.986 28.6089 35.094C28.8449 35.202 29.1029 35.256 29.3829 35.256C29.9549 35.256 30.3929 35.054 30.6969 34.65C31.0009 34.246 31.1529 33.644 31.1529 32.844C31.1529 32.1 31.0169 31.554 30.7449 31.206C30.4769 30.854 30.0929 30.678 29.5929 30.678C29.2449 30.678 28.9409 30.758 28.6809 30.918C28.4249 31.078 28.1869 31.304 27.9669 31.596V34.536ZM27.9669 30.798C28.2229 30.502 28.5109 30.266 28.8309 30.09C29.1549 29.914 29.5269 29.826 29.9469 29.826C30.3029 29.826 30.6229 29.894 30.9069 30.03C31.1949 30.166 31.4389 30.364 31.6389 30.624C31.8389 30.88 31.9909 31.192 32.0949 31.56C32.2029 31.928 32.2569 32.342 32.2569 32.802C32.2569 33.294 32.1969 33.742 32.0769 34.146C31.9569 34.55 31.7829 34.896 31.5549 35.184C31.3309 35.468 31.0569 35.69 30.7329 35.85C30.4089 36.006 30.0449 36.084 29.6409 36.084C29.2409 36.084 28.9029 36.01 28.6269 35.862C28.3549 35.71 28.1169 35.496 27.9129 35.22L27.8589 35.772C27.8269 35.924 27.7349 36 27.5829 36H26.8929V27.162H27.9669V30.798ZM34.6217 31.14C34.8137 30.724 35.0497 30.4 35.3297 30.168C35.6097 29.932 35.9517 29.814 36.3557 29.814C36.4837 29.814 36.6057 29.828 36.7217 29.856C36.8417 29.884 36.9477 29.928 37.0397 29.988L36.9617 30.786C36.9377 30.886 36.8777 30.936 36.7817 30.936C36.7257 30.936 36.6437 30.924 36.5357 30.9C36.4277 30.876 36.3057 30.864 36.1697 30.864C35.9777 30.864 35.8057 30.892 35.6537 30.948C35.5057 31.004 35.3717 31.088 35.2517 31.2C35.1357 31.308 35.0297 31.444 34.9337 31.608C34.8417 31.768 34.7577 31.952 34.6817 32.16V36H33.6077V29.922H34.2197C34.3357 29.922 34.4157 29.944 34.4597 29.988C34.5037 30.032 34.5337 30.108 34.5497 30.216L34.6217 31.14ZM41.1791 33.264C40.6871 33.28 40.2671 33.32 39.9191 33.384C39.5751 33.444 39.2931 33.524 39.0731 33.624C38.8571 33.724 38.6991 33.842 38.5991 33.978C38.5031 34.114 38.4551 34.266 38.4551 34.434C38.4551 34.594 38.4811 34.732 38.5331 34.848C38.5851 34.964 38.6551 35.06 38.7431 35.136C38.8351 35.208 38.9411 35.262 39.0611 35.298C39.1851 35.33 39.3171 35.346 39.4571 35.346C39.6451 35.346 39.8171 35.328 39.9731 35.292C40.1291 35.252 40.2751 35.196 40.4111 35.124C40.5511 35.052 40.6831 34.966 40.8071 34.866C40.9351 34.766 41.0591 34.652 41.1791 34.524V33.264ZM37.7291 30.78C38.0651 30.456 38.4271 30.214 38.8151 30.054C39.2031 29.894 39.6331 29.814 40.1051 29.814C40.4451 29.814 40.7471 29.87 41.0111 29.982C41.2751 30.094 41.4971 30.25 41.6771 30.45C41.8571 30.65 41.9931 30.892 42.0851 31.176C42.1771 31.46 42.2231 31.772 42.2231 32.112V36H41.7491C41.6451 36 41.5651 35.984 41.5091 35.952C41.4531 35.916 41.4091 35.848 41.3771 35.748L41.2571 35.172C41.0971 35.32 40.9411 35.452 40.7891 35.568C40.6371 35.68 40.4771 35.776 40.3091 35.856C40.1411 35.932 39.9611 35.99 39.7691 36.03C39.5811 36.074 39.3711 36.096 39.1391 36.096C38.9031 36.096 38.6811 36.064 38.4731 36C38.2651 35.932 38.0831 35.832 37.9271 35.7C37.7751 35.568 37.6531 35.402 37.5611 35.202C37.4731 34.998 37.4291 34.758 37.4291 34.482C37.4291 34.242 37.4951 34.012 37.6271 33.792C37.7591 33.568 37.9731 33.37 38.2691 33.198C38.5651 33.026 38.9511 32.886 39.4271 32.778C39.9031 32.666 40.4871 32.602 41.1791 32.586V32.112C41.1791 31.64 41.0771 31.284 40.8731 31.044C40.6691 30.8 40.3711 30.678 39.9791 30.678C39.7151 30.678 39.4931 30.712 39.3131 30.78C39.1371 30.844 38.9831 30.918 38.8511 31.002C38.7231 31.082 38.6111 31.156 38.5151 31.224C38.4231 31.288 38.3311 31.32 38.2391 31.32C38.1671 31.32 38.1051 31.302 38.0531 31.266C38.0011 31.226 37.9571 31.178 37.9211 31.122L37.7291 30.78ZM44.8639 31.14C45.0559 30.724 45.2919 30.4 45.5719 30.168C45.8519 29.932 46.1939 29.814 46.5979 29.814C46.7259 29.814 46.8479 29.828 46.9639 29.856C47.0839 29.884 47.1899 29.928 47.2819 29.988L47.2039 30.786C47.1799 30.886 47.1199 30.936 47.0239 30.936C46.9679 30.936 46.8859 30.924 46.7779 30.9C46.6699 30.876 46.5479 30.864 46.4119 30.864C46.2199 30.864 46.0479 30.892 45.8959 30.948C45.7479 31.004 45.6139 31.088 45.4939 31.2C45.3779 31.308 45.2719 31.444 45.1759 31.608C45.0839 31.768 44.9999 31.952 44.9239 32.16V36H43.8499V29.922H44.4619C44.5779 29.922 44.6579 29.944 44.7019 29.988C44.7459 30.032 44.7759 30.108 44.7919 30.216L44.8639 31.14ZM53.465 29.922L50.075 37.794C50.039 37.874 49.993 37.938 49.937 37.986C49.885 38.034 49.803 38.058 49.691 38.058H48.899L50.009 35.646L47.501 29.922H48.425C48.517 29.922 48.589 29.946 48.641 29.994C48.697 30.038 48.735 30.088 48.755 30.144L50.381 33.972C50.445 34.14 50.499 34.316 50.543 34.5C50.599 34.312 50.659 34.134 50.723 33.966L52.301 30.144C52.325 30.08 52.365 30.028 52.421 29.988C52.481 29.944 52.547 29.922 52.619 29.922H53.465Z" fill="#FF767F"/>
    <path d="M302.75 51.1462H301.812C301.315 51.1462 300.838 50.9487 300.487 50.5971C300.135 50.2454 299.938 49.7685 299.938 49.2712V29.5837C299.938 29.0865 300.135 28.6095 300.487 28.2579C300.838 27.9063 301.315 27.7087 301.812 27.7087H302.75C303.247 27.7087 303.724 27.9063 304.076 28.2579C304.427 28.6095 304.625 29.0865 304.625 29.5837V49.2712C304.625 49.7685 304.427 50.2454 304.076 50.5971C303.724 50.9487 303.247 51.1462 302.75 51.1462ZM313.062 33.3337C313.062 32.8365 312.865 32.3595 312.513 32.0079C312.162 31.6563 311.685 31.4587 311.188 31.4587H307.438C306.94 31.4587 306.463 31.6563 306.112 32.0079C305.76 32.3595 305.562 32.8365 305.562 33.3337V34.9744C305.562 35.0365 305.587 35.0961 305.631 35.1401C305.675 35.184 305.735 35.2087 305.797 35.2087H312.828C312.89 35.2087 312.95 35.184 312.994 35.1401C313.038 35.0961 313.062 35.0365 313.062 34.9744V33.3337ZM305.562 49.2712C305.562 49.7685 305.76 50.2454 306.112 50.5971C306.463 50.9487 306.94 51.1462 307.438 51.1462H311.188C311.685 51.1462 312.162 50.9487 312.513 50.5971C312.865 50.2454 313.062 49.7685 313.062 49.2712V47.5134C313.062 47.4823 313.05 47.4525 313.028 47.4306C313.006 47.4086 312.976 47.3962 312.945 47.3962H305.68C305.649 47.3962 305.619 47.4086 305.597 47.4306C305.575 47.4525 305.562 47.4823 305.562 47.5134V49.2712Z" fill="#464246"/>
    <path d="M312.945 37.0837H305.68C305.615 37.0837 305.562 37.1362 305.562 37.2009V45.4041C305.562 45.4688 305.615 45.5212 305.68 45.5212H312.945C313.01 45.5212 313.062 45.4688 313.062 45.4041V37.2009C313.062 37.1362 313.01 37.0837 312.945 37.0837Z" fill="#464246"/>
    <path d="M317.75 51.1462H315.875C315.378 51.1462 314.901 50.9487 314.549 50.5971C314.198 50.2454 314 49.7685 314 49.2712V26.7712C314 26.274 314.198 25.797 314.549 25.4454C314.901 25.0938 315.378 24.8962 315.875 24.8962H317.75C318.247 24.8962 318.724 25.0938 319.076 25.4454C319.427 25.797 319.625 26.274 319.625 26.7712V49.2712C319.625 49.7685 319.427 50.2454 319.076 50.5971C318.724 50.9487 318.247 51.1462 317.75 51.1462ZM328.056 49.1218L326.168 29.2C326.081 28.283 325.175 27.6179 324.144 27.7169L322.278 27.8927C321.247 27.9906 320.482 28.8132 320.569 29.7302L322.457 49.6521C322.544 50.5691 323.45 51.2341 324.481 51.1351L326.347 50.9593C327.378 50.8615 328.143 50.0388 328.056 49.1218Z" fill="#464246"/>
    <rect x="254" y="88" width="78" height="20" rx="4" fill="#FE414D"/>
    <path d="M283.263 102H281.286L284.298 93.2727H286.676L289.685 102H287.707L285.521 95.267H285.453L283.263 102ZM283.139 98.5696H287.81V100.01H283.139V98.5696ZM292.808 102.107C292.311 102.107 291.861 101.979 291.457 101.723C291.057 101.464 290.739 101.085 290.503 100.585C290.27 100.082 290.153 99.4659 290.153 98.7358C290.153 97.9858 290.274 97.3622 290.516 96.8651C290.757 96.3651 291.078 95.9915 291.479 95.7443C291.882 95.4943 292.324 95.3693 292.804 95.3693C293.17 95.3693 293.476 95.4318 293.72 95.5568C293.967 95.679 294.166 95.8324 294.317 96.017C294.47 96.1989 294.587 96.3778 294.666 96.554H294.722V93.2727H296.533V102H294.743V100.952H294.666C294.581 101.134 294.46 101.314 294.304 101.493C294.151 101.669 293.95 101.815 293.703 101.932C293.459 102.048 293.161 102.107 292.808 102.107ZM293.384 100.662C293.676 100.662 293.923 100.582 294.125 100.423C294.33 100.261 294.486 100.036 294.594 99.7457C294.705 99.456 294.76 99.1165 294.76 98.7273C294.76 98.3381 294.706 98 294.598 97.7131C294.49 97.4261 294.334 97.2045 294.129 97.0483C293.925 96.892 293.676 96.8139 293.384 96.8139C293.085 96.8139 292.834 96.8949 292.629 97.0568C292.425 97.2187 292.27 97.4432 292.165 97.7301C292.06 98.017 292.007 98.3494 292.007 98.7273C292.007 99.108 292.06 99.4446 292.165 99.7372C292.273 100.027 292.428 100.254 292.629 100.419C292.834 100.581 293.085 100.662 293.384 100.662ZM300.437 102.107C299.94 102.107 299.49 101.979 299.086 101.723C298.686 101.464 298.368 101.085 298.132 100.585C297.899 100.082 297.782 99.4659 297.782 98.7358C297.782 97.9858 297.903 97.3622 298.145 96.8651C298.386 96.3651 298.707 95.9915 299.108 95.7443C299.511 95.4943 299.953 95.3693 300.433 95.3693C300.799 95.3693 301.105 95.4318 301.349 95.5568C301.596 95.679 301.795 95.8324 301.946 96.017C302.099 96.1989 302.216 96.3778 302.295 96.554H302.35V93.2727H304.162V102H302.372V100.952H302.295C302.21 101.134 302.089 101.314 301.933 101.493C301.779 101.669 301.579 101.815 301.332 101.932C301.088 102.048 300.789 102.107 300.437 102.107ZM301.012 100.662C301.305 100.662 301.552 100.582 301.754 100.423C301.958 100.261 302.115 100.036 302.223 99.7457C302.333 99.456 302.389 99.1165 302.389 98.7273C302.389 98.3381 302.335 98 302.227 97.7131C302.119 97.4261 301.963 97.2045 301.758 97.0483C301.554 96.892 301.305 96.8139 301.012 96.8139C300.714 96.8139 300.463 96.8949 300.258 97.0568C300.054 97.2187 299.899 97.4432 299.794 97.7301C299.689 98.017 299.636 98.3494 299.636 98.7273C299.636 99.108 299.689 99.4446 299.794 99.7372C299.902 100.027 300.056 100.254 300.258 100.419C300.463 100.581 300.714 100.662 301.012 100.662Z" fill="white"/>
</svg>
