<svg width="36" height="36" viewBox="0 0 36 36" fill="none" xmlns="http://www.w3.org/2000/svg">
    <path d="M3.74607 5.2901V30.7099C2.95247 29.9545 2.24367 29.1373 1.61965 28.2581C0.995639 27.3789 0.455755 26.4531 0 25.4804V10.5196C0.455755 9.54695 0.995639 8.62168 1.61965 7.74379C2.24367 6.86337 2.95247 6.04547 3.74607 5.2901ZM11.2342 0.890526V35.1133C10.2326 34.7949 9.26679 34.4046 8.33674 33.9423C7.40668 33.48 6.53757 32.9413 5.7294 32.3261V3.67579C6.53757 3.06189 7.40668 2.52316 8.33674 2.05958C9.26679 1.596 10.232 1.20568 11.2322 0.888632M22.699 35.1644V0.837474C26.5663 1.95663 29.7499 4.07558 32.25 7.19432C34.75 10.3131 36 13.9149 36 18C36 22.0851 34.7506 25.6876 32.2519 28.8076C29.7532 31.9276 26.5676 34.0465 22.699 35.1644ZM17.1206 36C16.4582 36 15.8024 35.9621 15.1532 35.8863C14.504 35.8093 13.8601 35.7063 13.2215 35.5775V0.422526C13.8588 0.293684 14.502 0.190737 15.1512 0.113684C15.8017 0.0378946 16.4582 0 17.1206 0C17.7327 0 18.3382 0.0315789 18.937 0.0947368C19.5359 0.157895 20.1281 0.24 20.7137 0.341053V35.6589C20.1281 35.76 19.5352 35.8421 18.935 35.9053C18.3349 35.9684 17.7301 36 17.1206 36Z" fill="#FE414D"/>
</svg>
