<svg width="27" height="25" viewBox="0 0 27 25" fill="none" xmlns="http://www.w3.org/2000/svg">
    <g clip-path="url(#clip0_61_298)">
        <path d="M14.5488 25H12.9014C11.5689 25 10.4848 23.9676 10.4848 22.6986V22.1678C9.91833 21.9954 9.36796 21.7778 8.83921 21.5172L8.44423 21.8934C7.4876 22.8056 5.9552 22.7789 5.02635 21.8931L3.86197 20.7842C2.93148 19.899 2.90471 18.44 3.86228 17.5291L4.25695 17.1532C3.98332 16.6496 3.75492 16.1255 3.57388 15.5859H3.01658C1.68419 15.5859 0.600098 14.5535 0.600098 13.2845V11.7155C0.600098 10.4465 1.68419 9.41406 3.01664 9.41406H3.57394C3.75497 8.87451 3.98337 8.35039 4.257 7.84683L3.86202 7.4707C2.90502 6.56025 2.93143 5.10117 3.86233 4.21558L5.02681 3.10659C5.95782 2.2187 7.48985 2.19653 8.44464 3.10688L8.83926 3.48271C9.36801 3.22217 9.91839 3.00459 10.4849 2.83218V2.30142C10.4849 1.03242 11.5689 0 12.9014 0H14.5488C15.8813 0 16.9653 1.03242 16.9653 2.30142V2.83223C17.5318 3.00459 18.0822 3.22217 18.6109 3.48276L19.0059 3.10659C19.9625 2.19438 21.4949 2.22114 22.4238 3.10693L23.5882 4.21582C24.5187 5.10103 24.5454 6.55996 23.5879 7.47095L23.1932 7.84683C23.4668 8.35039 23.6952 8.87446 23.8763 9.41406H24.4336C25.766 9.41406 26.8501 10.4465 26.8501 11.7155V13.2845C26.8501 14.5535 25.766 15.5859 24.4336 15.5859H23.8763C23.6952 16.1255 23.4668 16.6496 23.1932 17.1532L23.5882 17.5293C24.5452 18.4398 24.5188 19.8989 23.5879 20.7845L22.4234 21.8935C21.4924 22.7813 19.9603 22.8035 19.0056 21.8932L18.6109 21.5173C18.0822 21.7779 17.5318 21.9955 16.9653 22.1679V22.6987C16.9653 23.9676 15.8813 25 14.5488 25ZM9.09633 19.979C9.83087 20.3927 10.6214 20.7053 11.4461 20.908C11.7857 20.9914 12.0229 21.2831 12.0229 21.6171V22.6986C12.0229 23.1599 12.4171 23.5352 12.9014 23.5352H14.5488C15.0332 23.5352 15.4273 23.1599 15.4273 22.6986V21.6171C15.4273 21.2831 15.6646 20.9914 16.0042 20.908C16.8288 20.7053 17.6194 20.3927 18.3539 19.979C18.6561 19.8088 19.0409 19.8551 19.2892 20.0916L20.0935 20.8576C20.4403 21.1883 20.9972 21.1806 21.3355 20.858L22.5007 19.7483C22.8382 19.4273 22.8494 18.8968 22.501 18.5654L21.6963 17.7991C21.4481 17.5626 21.3995 17.1961 21.5782 16.9083C22.0126 16.2088 22.3407 15.4559 22.5535 14.6705C22.6412 14.3471 22.9475 14.1211 23.2981 14.1211H24.4336C24.918 14.1211 25.3121 13.7458 25.3121 13.2846V11.7155C25.3121 11.2542 24.918 10.879 24.4336 10.879H23.2981C22.9474 10.879 22.6412 10.653 22.5535 10.3296C22.3407 9.54419 22.0125 8.79126 21.5782 8.09175C21.3995 7.80395 21.4481 7.43745 21.6963 7.20103L22.5007 6.43496C22.8484 6.1042 22.8393 5.57393 22.501 5.2521L21.3359 4.14248C20.9982 3.82041 20.4412 3.81099 20.0939 4.14219L19.2893 4.90855C19.041 5.14502 18.6561 5.19131 18.354 5.02109C17.6194 4.60737 16.8289 4.29482 16.0042 4.09214C15.6646 4.00869 15.4273 3.71699 15.4273 3.38296V2.30142C15.4273 1.84014 15.0332 1.46484 14.5489 1.46484H12.9015C12.4171 1.46484 12.023 1.84014 12.023 2.30142V3.38286C12.023 3.71689 11.7857 4.00859 11.4461 4.09204C10.6215 4.29473 9.83092 4.60728 9.09638 5.021C8.7941 5.19116 8.40932 5.14487 8.16107 4.90845L7.35676 4.14238C7.00997 3.81172 6.45303 3.81938 6.1148 4.14204L4.9496 5.25171C4.61214 5.57271 4.60086 6.10313 4.94929 6.43457L5.75397 7.20093C6.00221 7.43735 6.05082 7.80386 5.87214 8.09165C5.43774 8.79116 5.10961 9.54409 4.89679 10.3295C4.80912 10.6529 4.50284 10.8789 4.15215 10.8789H3.01664C2.53229 10.8789 2.13818 11.2542 2.13818 11.7155V13.2845C2.13818 13.7458 2.53229 14.1211 3.01664 14.1211H4.1521C4.50284 14.1211 4.80907 14.3471 4.89674 14.6705C5.10956 15.4559 5.43774 16.2088 5.87209 16.9083C6.05077 17.1961 6.00216 17.5626 5.75392 17.799L4.94955 18.5651C4.60184 18.8959 4.61091 19.4261 4.94924 19.7479L6.11434 20.8576C6.45205 21.1796 7.00905 21.1891 7.35635 20.8579L8.16097 20.0915C8.3439 19.9173 8.72447 19.7695 9.09633 19.979Z" fill="#464246"/>
        <path d="M13.7251 17.9395C10.5758 17.9395 8.01367 15.4993 8.01367 12.5C8.01367 9.50068 10.5758 7.06055 13.7251 7.06055C16.8744 7.06055 19.4365 9.50068 19.4365 12.5C19.4365 15.4993 16.8744 17.9395 13.7251 17.9395ZM13.7251 8.52539C11.4239 8.52539 9.55176 10.3084 9.55176 12.5C9.55176 14.6916 11.4239 16.4746 13.7251 16.4746C16.0263 16.4746 17.8984 14.6916 17.8984 12.5C17.8984 10.3084 16.0263 8.52539 13.7251 8.52539Z" fill="#464246"/>
    </g>
    <defs>
        <clipPath id="clip0_61_298">
            <rect width="26.25" height="25" fill="white" transform="translate(0.600098)"/>
        </clipPath>
    </defs>
</svg>
