<svg width="350" height="136" viewBox="0 0 350 136" fill="none" xmlns="http://www.w3.org/2000/svg">
    <rect width="350" height="136" rx="25" fill="#FE414D"/>
    <path d="M24.134 40.224C24.198 40.224 24.254 40.25 24.302 40.302L24.764 40.8C24.412 41.208 23.984 41.526 23.48 41.754C22.98 41.982 22.374 42.096 21.662 42.096C21.046 42.096 20.486 41.99 19.982 41.778C19.478 41.562 19.048 41.262 18.692 40.878C18.336 40.49 18.06 40.026 17.864 39.486C17.668 38.946 17.57 38.352 17.57 37.704C17.57 37.056 17.672 36.462 17.876 35.922C18.08 35.382 18.366 34.918 18.734 34.53C19.106 34.142 19.55 33.842 20.066 33.63C20.582 33.414 21.152 33.306 21.776 33.306C22.388 33.306 22.928 33.404 23.396 33.6C23.864 33.796 24.276 34.062 24.632 34.398L24.248 34.932C24.224 34.972 24.192 35.006 24.152 35.034C24.116 35.058 24.066 35.07 24.002 35.07C23.93 35.07 23.842 35.032 23.738 34.956C23.634 34.876 23.498 34.788 23.33 34.692C23.162 34.596 22.952 34.51 22.7 34.434C22.448 34.354 22.138 34.314 21.77 34.314C21.326 34.314 20.92 34.392 20.552 34.548C20.184 34.7 19.866 34.922 19.598 35.214C19.334 35.506 19.128 35.862 18.98 36.282C18.832 36.702 18.758 37.176 18.758 37.704C18.758 38.24 18.834 38.718 18.986 39.138C19.142 39.558 19.352 39.914 19.616 40.206C19.884 40.494 20.198 40.714 20.558 40.866C20.922 41.018 21.314 41.094 21.734 41.094C21.99 41.094 22.22 41.08 22.424 41.052C22.632 41.02 22.822 40.972 22.994 40.908C23.17 40.844 23.332 40.764 23.48 40.668C23.632 40.568 23.782 40.45 23.93 40.314C23.998 40.254 24.066 40.224 24.134 40.224ZM29.1556 39.264C28.6636 39.28 28.2436 39.32 27.8956 39.384C27.5516 39.444 27.2696 39.524 27.0496 39.624C26.8336 39.724 26.6756 39.842 26.5756 39.978C26.4796 40.114 26.4316 40.266 26.4316 40.434C26.4316 40.594 26.4576 40.732 26.5096 40.848C26.5616 40.964 26.6316 41.06 26.7196 41.136C26.8116 41.208 26.9176 41.262 27.0376 41.298C27.1616 41.33 27.2936 41.346 27.4336 41.346C27.6216 41.346 27.7936 41.328 27.9496 41.292C28.1056 41.252 28.2516 41.196 28.3876 41.124C28.5276 41.052 28.6596 40.966 28.7836 40.866C28.9116 40.766 29.0356 40.652 29.1556 40.524V39.264ZM25.7056 36.78C26.0416 36.456 26.4036 36.214 26.7916 36.054C27.1796 35.894 27.6096 35.814 28.0816 35.814C28.4216 35.814 28.7236 35.87 28.9876 35.982C29.2516 36.094 29.4736 36.25 29.6536 36.45C29.8336 36.65 29.9696 36.892 30.0616 37.176C30.1536 37.46 30.1996 37.772 30.1996 38.112V42H29.7256C29.6216 42 29.5416 41.984 29.4856 41.952C29.4296 41.916 29.3856 41.848 29.3536 41.748L29.2336 41.172C29.0736 41.32 28.9176 41.452 28.7656 41.568C28.6136 41.68 28.4536 41.776 28.2856 41.856C28.1176 41.932 27.9376 41.99 27.7456 42.03C27.5576 42.074 27.3476 42.096 27.1156 42.096C26.8796 42.096 26.6576 42.064 26.4496 42C26.2416 41.932 26.0596 41.832 25.9036 41.7C25.7516 41.568 25.6296 41.402 25.5376 41.202C25.4496 40.998 25.4056 40.758 25.4056 40.482C25.4056 40.242 25.4716 40.012 25.6036 39.792C25.7356 39.568 25.9496 39.37 26.2456 39.198C26.5416 39.026 26.9276 38.886 27.4036 38.778C27.8796 38.666 28.4636 38.602 29.1556 38.586V38.112C29.1556 37.64 29.0536 37.284 28.8496 37.044C28.6456 36.8 28.3476 36.678 27.9556 36.678C27.6916 36.678 27.4696 36.712 27.2896 36.78C27.1136 36.844 26.9596 36.918 26.8276 37.002C26.6996 37.082 26.5876 37.156 26.4916 37.224C26.3996 37.288 26.3076 37.32 26.2156 37.32C26.1436 37.32 26.0816 37.302 26.0296 37.266C25.9776 37.226 25.9336 37.178 25.8976 37.122L25.7056 36.78ZM32.8405 37.14C33.0325 36.724 33.2685 36.4 33.5485 36.168C33.8285 35.932 34.1705 35.814 34.5745 35.814C34.7025 35.814 34.8245 35.828 34.9405 35.856C35.0605 35.884 35.1665 35.928 35.2585 35.988L35.1805 36.786C35.1565 36.886 35.0965 36.936 35.0005 36.936C34.9445 36.936 34.8625 36.924 34.7545 36.9C34.6465 36.876 34.5245 36.864 34.3885 36.864C34.1965 36.864 34.0245 36.892 33.8725 36.948C33.7245 37.004 33.5905 37.088 33.4705 37.2C33.3545 37.308 33.2485 37.444 33.1525 37.608C33.0605 37.768 32.9765 37.952 32.9005 38.16V42H31.8265V35.922H32.4385C32.5545 35.922 32.6345 35.944 32.6785 35.988C32.7225 36.032 32.7525 36.108 32.7685 36.216L32.8405 37.14ZM40.0195 38.298C40.0195 38.05 39.9835 37.824 39.9115 37.62C39.8435 37.412 39.7415 37.234 39.6055 37.086C39.4735 36.934 39.3115 36.818 39.1195 36.738C38.9275 36.654 38.7095 36.612 38.4655 36.612C37.9535 36.612 37.5475 36.762 37.2475 37.062C36.9515 37.358 36.7675 37.77 36.6955 38.298H40.0195ZM40.8835 41.148C40.7515 41.308 40.5935 41.448 40.4095 41.568C40.2255 41.684 40.0275 41.78 39.8155 41.856C39.6075 41.932 39.3915 41.988 39.1675 42.024C38.9435 42.064 38.7215 42.084 38.5015 42.084C38.0815 42.084 37.6935 42.014 37.3375 41.874C36.9855 41.73 36.6795 41.522 36.4195 41.25C36.1635 40.974 35.9635 40.634 35.8195 40.23C35.6755 39.826 35.6035 39.362 35.6035 38.838C35.6035 38.414 35.6675 38.018 35.7955 37.65C35.9275 37.282 36.1155 36.964 36.3595 36.696C36.6035 36.424 36.9015 36.212 37.2535 36.06C37.6055 35.904 38.0015 35.826 38.4415 35.826C38.8055 35.826 39.1415 35.888 39.4495 36.012C39.7615 36.132 40.0295 36.308 40.2535 36.54C40.4815 36.768 40.6595 37.052 40.7875 37.392C40.9155 37.728 40.9795 38.112 40.9795 38.544C40.9795 38.712 40.9615 38.824 40.9255 38.88C40.8895 38.936 40.8215 38.964 40.7215 38.964H36.6595C36.6715 39.348 36.7235 39.682 36.8155 39.966C36.9115 40.25 37.0435 40.488 37.2115 40.68C37.3795 40.868 37.5795 41.01 37.8115 41.106C38.0435 41.198 38.3035 41.244 38.5915 41.244C38.8595 41.244 39.0895 41.214 39.2815 41.154C39.4775 41.09 39.6455 41.022 39.7855 40.95C39.9255 40.878 40.0415 40.812 40.1335 40.752C40.2295 40.688 40.3115 40.656 40.3795 40.656C40.4675 40.656 40.5355 40.69 40.5835 40.758L40.8835 41.148ZM46.3593 38.298C46.3593 38.05 46.3233 37.824 46.2513 37.62C46.1833 37.412 46.0813 37.234 45.9453 37.086C45.8133 36.934 45.6513 36.818 45.4593 36.738C45.2673 36.654 45.0493 36.612 44.8053 36.612C44.2933 36.612 43.8873 36.762 43.5873 37.062C43.2913 37.358 43.1073 37.77 43.0353 38.298H46.3593ZM47.2233 41.148C47.0913 41.308 46.9333 41.448 46.7493 41.568C46.5653 41.684 46.3673 41.78 46.1553 41.856C45.9473 41.932 45.7313 41.988 45.5073 42.024C45.2833 42.064 45.0613 42.084 44.8413 42.084C44.4213 42.084 44.0333 42.014 43.6773 41.874C43.3253 41.73 43.0193 41.522 42.7593 41.25C42.5033 40.974 42.3033 40.634 42.1593 40.23C42.0153 39.826 41.9433 39.362 41.9433 38.838C41.9433 38.414 42.0073 38.018 42.1353 37.65C42.2673 37.282 42.4553 36.964 42.6993 36.696C42.9433 36.424 43.2413 36.212 43.5933 36.06C43.9453 35.904 44.3413 35.826 44.7813 35.826C45.1453 35.826 45.4813 35.888 45.7893 36.012C46.1013 36.132 46.3693 36.308 46.5933 36.54C46.8213 36.768 46.9993 37.052 47.1273 37.392C47.2553 37.728 47.3193 38.112 47.3193 38.544C47.3193 38.712 47.3013 38.824 47.2653 38.88C47.2293 38.936 47.1613 38.964 47.0613 38.964H42.9993C43.0113 39.348 43.0633 39.682 43.1553 39.966C43.2513 40.25 43.3833 40.488 43.5513 40.68C43.7193 40.868 43.9193 41.01 44.1513 41.106C44.3833 41.198 44.6433 41.244 44.9313 41.244C45.1993 41.244 45.4293 41.214 45.6213 41.154C45.8173 41.09 45.9853 41.022 46.1253 40.95C46.2653 40.878 46.3813 40.812 46.4733 40.752C46.5693 40.688 46.6513 40.656 46.7193 40.656C46.8073 40.656 46.8753 40.69 46.9233 40.758L47.2233 41.148ZM49.6452 37.14C49.8372 36.724 50.0732 36.4 50.3532 36.168C50.6332 35.932 50.9752 35.814 51.3792 35.814C51.5072 35.814 51.6292 35.828 51.7452 35.856C51.8652 35.884 51.9712 35.928 52.0632 35.988L51.9852 36.786C51.9612 36.886 51.9012 36.936 51.8052 36.936C51.7492 36.936 51.6672 36.924 51.5592 36.9C51.4512 36.876 51.3292 36.864 51.1932 36.864C51.0012 36.864 50.8292 36.892 50.6772 36.948C50.5292 37.004 50.3952 37.088 50.2752 37.2C50.1592 37.308 50.0532 37.444 49.9572 37.608C49.8652 37.768 49.7812 37.952 49.7052 38.16V42H48.6312V35.922H49.2432C49.3592 35.922 49.4392 35.944 49.4832 35.988C49.5272 36.032 49.5572 36.108 49.5732 36.216L49.6452 37.14ZM62.1028 40.224C62.1668 40.224 62.2228 40.25 62.2708 40.302L62.7328 40.8C62.3808 41.208 61.9528 41.526 61.4488 41.754C60.9488 41.982 60.3428 42.096 59.6308 42.096C59.0148 42.096 58.4548 41.99 57.9508 41.778C57.4468 41.562 57.0168 41.262 56.6608 40.878C56.3048 40.49 56.0288 40.026 55.8328 39.486C55.6368 38.946 55.5388 38.352 55.5388 37.704C55.5388 37.056 55.6408 36.462 55.8448 35.922C56.0488 35.382 56.3348 34.918 56.7028 34.53C57.0748 34.142 57.5188 33.842 58.0348 33.63C58.5508 33.414 59.1208 33.306 59.7448 33.306C60.3568 33.306 60.8968 33.404 61.3648 33.6C61.8328 33.796 62.2448 34.062 62.6008 34.398L62.2168 34.932C62.1928 34.972 62.1608 35.006 62.1208 35.034C62.0848 35.058 62.0348 35.07 61.9708 35.07C61.8988 35.07 61.8108 35.032 61.7068 34.956C61.6028 34.876 61.4668 34.788 61.2988 34.692C61.1308 34.596 60.9208 34.51 60.6688 34.434C60.4168 34.354 60.1068 34.314 59.7388 34.314C59.2948 34.314 58.8888 34.392 58.5208 34.548C58.1528 34.7 57.8348 34.922 57.5668 35.214C57.3028 35.506 57.0968 35.862 56.9488 36.282C56.8008 36.702 56.7268 37.176 56.7268 37.704C56.7268 38.24 56.8028 38.718 56.9548 39.138C57.1108 39.558 57.3208 39.914 57.5848 40.206C57.8528 40.494 58.1668 40.714 58.5268 40.866C58.8908 41.018 59.2828 41.094 59.7028 41.094C59.9588 41.094 60.1888 41.08 60.3928 41.052C60.6008 41.02 60.7908 40.972 60.9628 40.908C61.1388 40.844 61.3008 40.764 61.4488 40.668C61.6008 40.568 61.7508 40.45 61.8988 40.314C61.9668 40.254 62.0348 40.224 62.1028 40.224ZM66.2752 35.826C66.7192 35.826 67.1192 35.9 67.4752 36.048C67.8312 36.196 68.1352 36.406 68.3872 36.678C68.6392 36.95 68.8312 37.28 68.9632 37.668C69.0992 38.052 69.1672 38.482 69.1672 38.958C69.1672 39.438 69.0992 39.87 68.9632 40.254C68.8312 40.638 68.6392 40.966 68.3872 41.238C68.1352 41.51 67.8312 41.72 67.4752 41.868C67.1192 42.012 66.7192 42.084 66.2752 42.084C65.8272 42.084 65.4232 42.012 65.0632 41.868C64.7072 41.72 64.4032 41.51 64.1512 41.238C63.8992 40.966 63.7052 40.638 63.5692 40.254C63.4372 39.87 63.3712 39.438 63.3712 38.958C63.3712 38.482 63.4372 38.052 63.5692 37.668C63.7052 37.28 63.8992 36.95 64.1512 36.678C64.4032 36.406 64.7072 36.196 65.0632 36.048C65.4232 35.9 65.8272 35.826 66.2752 35.826ZM66.2752 41.25C66.8752 41.25 67.3232 41.05 67.6192 40.65C67.9152 40.246 68.0632 39.684 68.0632 38.964C68.0632 38.24 67.9152 37.676 67.6192 37.272C67.3232 36.868 66.8752 36.666 66.2752 36.666C65.9712 36.666 65.7052 36.718 65.4772 36.822C65.2532 36.926 65.0652 37.076 64.9132 37.272C64.7652 37.468 64.6532 37.71 64.5772 37.998C64.5052 38.282 64.4692 38.604 64.4692 38.964C64.4692 39.684 64.6172 40.246 64.9132 40.65C65.2132 41.05 65.6672 41.25 66.2752 41.25ZM71.5298 36.804C71.6618 36.656 71.8018 36.522 71.9498 36.402C72.0978 36.282 72.2538 36.18 72.4178 36.096C72.5858 36.008 72.7618 35.942 72.9458 35.898C73.1338 35.85 73.3358 35.826 73.5518 35.826C73.8838 35.826 74.1758 35.882 74.4278 35.994C74.6838 36.102 74.8958 36.258 75.0638 36.462C75.2358 36.662 75.3658 36.904 75.4538 37.188C75.5418 37.472 75.5858 37.786 75.5858 38.13V42H74.5118V38.13C74.5118 37.67 74.4058 37.314 74.1938 37.062C73.9858 36.806 73.6678 36.678 73.2398 36.678C72.9238 36.678 72.6278 36.754 72.3518 36.906C72.0798 37.058 71.8278 37.264 71.5958 37.524V42H70.5218V35.922H71.1638C71.3158 35.922 71.4098 35.996 71.4458 36.144L71.5298 36.804ZM82.2923 35.922L79.8143 42H78.8543L76.3763 35.922H77.2463C77.3343 35.922 77.4063 35.944 77.4623 35.988C77.5183 36.032 77.5563 36.084 77.5763 36.144L79.1183 40.056C79.1663 40.204 79.2083 40.348 79.2443 40.488C79.2803 40.628 79.3143 40.768 79.3463 40.908C79.3783 40.768 79.4123 40.628 79.4483 40.488C79.4843 40.348 79.5283 40.204 79.5803 40.056L81.1403 36.144C81.1643 36.08 81.2043 36.028 81.2603 35.988C81.3163 35.944 81.3823 35.922 81.4583 35.922H82.2923ZM87.1757 38.298C87.1757 38.05 87.1397 37.824 87.0677 37.62C86.9997 37.412 86.8977 37.234 86.7617 37.086C86.6297 36.934 86.4677 36.818 86.2757 36.738C86.0837 36.654 85.8657 36.612 85.6217 36.612C85.1097 36.612 84.7037 36.762 84.4037 37.062C84.1077 37.358 83.9237 37.77 83.8517 38.298H87.1757ZM88.0397 41.148C87.9077 41.308 87.7497 41.448 87.5657 41.568C87.3817 41.684 87.1837 41.78 86.9717 41.856C86.7637 41.932 86.5477 41.988 86.3237 42.024C86.0997 42.064 85.8777 42.084 85.6577 42.084C85.2377 42.084 84.8497 42.014 84.4937 41.874C84.1417 41.73 83.8357 41.522 83.5757 41.25C83.3197 40.974 83.1197 40.634 82.9757 40.23C82.8317 39.826 82.7597 39.362 82.7597 38.838C82.7597 38.414 82.8237 38.018 82.9517 37.65C83.0837 37.282 83.2717 36.964 83.5157 36.696C83.7597 36.424 84.0577 36.212 84.4097 36.06C84.7617 35.904 85.1577 35.826 85.5977 35.826C85.9617 35.826 86.2977 35.888 86.6057 36.012C86.9177 36.132 87.1857 36.308 87.4097 36.54C87.6377 36.768 87.8157 37.052 87.9437 37.392C88.0717 37.728 88.1357 38.112 88.1357 38.544C88.1357 38.712 88.1177 38.824 88.0817 38.88C88.0457 38.936 87.9777 38.964 87.8777 38.964H83.8157C83.8277 39.348 83.8797 39.682 83.9717 39.966C84.0677 40.25 84.1997 40.488 84.3677 40.68C84.5357 40.868 84.7357 41.01 84.9677 41.106C85.1997 41.198 85.4597 41.244 85.7477 41.244C86.0157 41.244 86.2457 41.214 86.4377 41.154C86.6337 41.09 86.8017 41.022 86.9417 40.95C87.0817 40.878 87.1977 40.812 87.2897 40.752C87.3857 40.688 87.4677 40.656 87.5357 40.656C87.6237 40.656 87.6917 40.69 87.7397 40.758L88.0397 41.148ZM90.4616 37.14C90.6536 36.724 90.8896 36.4 91.1696 36.168C91.4496 35.932 91.7916 35.814 92.1956 35.814C92.3236 35.814 92.4456 35.828 92.5616 35.856C92.6816 35.884 92.7876 35.928 92.8796 35.988L92.8016 36.786C92.7776 36.886 92.7176 36.936 92.6216 36.936C92.5656 36.936 92.4836 36.924 92.3756 36.9C92.2676 36.876 92.1456 36.864 92.0096 36.864C91.8176 36.864 91.6456 36.892 91.4936 36.948C91.3456 37.004 91.2116 37.088 91.0916 37.2C90.9756 37.308 90.8696 37.444 90.7736 37.608C90.6816 37.768 90.5976 37.952 90.5216 38.16V42H89.4476V35.922H90.0596C90.1756 35.922 90.2556 35.944 90.2996 35.988C90.3436 36.032 90.3736 36.108 90.3896 36.216L90.4616 37.14ZM97.3235 36.924C97.2755 37.012 97.2015 37.056 97.1015 37.056C97.0415 37.056 96.9735 37.034 96.8975 36.99C96.8215 36.946 96.7275 36.898 96.6155 36.846C96.5075 36.79 96.3775 36.74 96.2255 36.696C96.0735 36.648 95.8935 36.624 95.6855 36.624C95.5055 36.624 95.3435 36.648 95.1995 36.696C95.0555 36.74 94.9315 36.802 94.8275 36.882C94.7275 36.962 94.6495 37.056 94.5935 37.164C94.5415 37.268 94.5155 37.382 94.5155 37.506C94.5155 37.662 94.5595 37.792 94.6475 37.896C94.7395 38 94.8595 38.09 95.0075 38.166C95.1555 38.242 95.3235 38.31 95.5115 38.37C95.6995 38.426 95.8915 38.488 96.0875 38.556C96.2875 38.62 96.4815 38.692 96.6695 38.772C96.8575 38.852 97.0255 38.952 97.1735 39.072C97.3215 39.192 97.4395 39.34 97.5275 39.516C97.6195 39.688 97.6655 39.896 97.6655 40.14C97.6655 40.42 97.6155 40.68 97.5155 40.92C97.4155 41.156 97.2675 41.362 97.0715 41.538C96.8755 41.71 96.6355 41.846 96.3515 41.946C96.0675 42.046 95.7395 42.096 95.3675 42.096C94.9435 42.096 94.5595 42.028 94.2155 41.892C93.8715 41.752 93.5795 41.574 93.3395 41.358L93.5915 40.95C93.6235 40.898 93.6615 40.858 93.7055 40.83C93.7495 40.802 93.8055 40.788 93.8735 40.788C93.9455 40.788 94.0215 40.816 94.1015 40.872C94.1815 40.928 94.2775 40.99 94.3895 41.058C94.5055 41.126 94.6455 41.188 94.8095 41.244C94.9735 41.3 95.1775 41.328 95.4215 41.328C95.6295 41.328 95.8115 41.302 95.9675 41.25C96.1235 41.194 96.2535 41.12 96.3575 41.028C96.4615 40.936 96.5375 40.83 96.5855 40.71C96.6375 40.59 96.6635 40.462 96.6635 40.326C96.6635 40.158 96.6175 40.02 96.5255 39.912C96.4375 39.8 96.3195 39.706 96.1715 39.63C96.0235 39.55 95.8535 39.482 95.6615 39.426C95.4735 39.366 95.2795 39.304 95.0795 39.24C94.8835 39.176 94.6895 39.104 94.4975 39.024C94.3095 38.94 94.1415 38.836 93.9935 38.712C93.8455 38.588 93.7255 38.436 93.6335 38.256C93.5455 38.072 93.5015 37.85 93.5015 37.59C93.5015 37.358 93.5495 37.136 93.6455 36.924C93.7415 36.708 93.8815 36.52 94.0655 36.36C94.2495 36.196 94.4755 36.066 94.7435 35.97C95.0115 35.874 95.3175 35.826 95.6615 35.826C96.0615 35.826 96.4195 35.89 96.7355 36.018C97.0555 36.142 97.3315 36.314 97.5635 36.534L97.3235 36.924ZM102.269 39.264C101.777 39.28 101.357 39.32 101.009 39.384C100.665 39.444 100.383 39.524 100.163 39.624C99.9469 39.724 99.7889 39.842 99.6889 39.978C99.5929 40.114 99.5449 40.266 99.5449 40.434C99.5449 40.594 99.5709 40.732 99.6229 40.848C99.6749 40.964 99.7449 41.06 99.8329 41.136C99.9249 41.208 100.031 41.262 100.151 41.298C100.275 41.33 100.407 41.346 100.547 41.346C100.735 41.346 100.907 41.328 101.063 41.292C101.219 41.252 101.365 41.196 101.501 41.124C101.641 41.052 101.773 40.966 101.897 40.866C102.025 40.766 102.149 40.652 102.269 40.524V39.264ZM98.8189 36.78C99.1549 36.456 99.5169 36.214 99.9049 36.054C100.293 35.894 100.723 35.814 101.195 35.814C101.535 35.814 101.837 35.87 102.101 35.982C102.365 36.094 102.587 36.25 102.767 36.45C102.947 36.65 103.083 36.892 103.175 37.176C103.267 37.46 103.313 37.772 103.313 38.112V42H102.839C102.735 42 102.655 41.984 102.599 41.952C102.543 41.916 102.499 41.848 102.467 41.748L102.347 41.172C102.187 41.32 102.031 41.452 101.879 41.568C101.727 41.68 101.567 41.776 101.399 41.856C101.231 41.932 101.051 41.99 100.859 42.03C100.671 42.074 100.461 42.096 100.229 42.096C99.9929 42.096 99.7709 42.064 99.5629 42C99.3549 41.932 99.1729 41.832 99.0169 41.7C98.8649 41.568 98.7429 41.402 98.6509 41.202C98.5629 40.998 98.5189 40.758 98.5189 40.482C98.5189 40.242 98.5849 40.012 98.7169 39.792C98.8489 39.568 99.0629 39.37 99.3589 39.198C99.6549 39.026 100.041 38.886 100.517 38.778C100.993 38.666 101.577 38.602 102.269 38.586V38.112C102.269 37.64 102.167 37.284 101.963 37.044C101.759 36.8 101.461 36.678 101.069 36.678C100.805 36.678 100.583 36.712 100.403 36.78C100.227 36.844 100.073 36.918 99.9409 37.002C99.8129 37.082 99.7009 37.156 99.6049 37.224C99.5129 37.288 99.4209 37.32 99.3289 37.32C99.2569 37.32 99.1949 37.302 99.1429 37.266C99.0909 37.226 99.0469 37.178 99.0109 37.122L98.8189 36.78ZM110.498 42H109.43V36.816H106.298V40.464C106.298 40.72 106.36 40.91 106.484 41.034C106.608 41.158 106.768 41.22 106.964 41.22C107.076 41.22 107.172 41.206 107.252 41.178C107.336 41.146 107.408 41.112 107.468 41.076C107.528 41.04 107.578 41.008 107.618 40.98C107.662 40.948 107.7 40.932 107.732 40.932C107.788 40.932 107.838 40.966 107.882 41.034L108.194 41.544C108.01 41.716 107.788 41.852 107.528 41.952C107.268 42.048 107 42.096 106.724 42.096C106.244 42.096 105.874 41.962 105.614 41.694C105.358 41.426 105.23 41.04 105.23 40.536V36.816H104.498C104.434 36.816 104.38 36.798 104.336 36.762C104.292 36.722 104.27 36.662 104.27 36.582V36.156L105.266 36.024L105.512 34.152C105.524 34.092 105.55 34.044 105.59 34.008C105.634 33.968 105.69 33.948 105.758 33.948H106.298V36.042H110.498V42ZM110.762 33.972C110.762 34.076 110.74 34.174 110.696 34.266C110.656 34.354 110.6 34.432 110.528 34.5C110.46 34.568 110.38 34.622 110.288 34.662C110.196 34.702 110.098 34.722 109.994 34.722C109.89 34.722 109.792 34.702 109.7 34.662C109.612 34.622 109.534 34.568 109.466 34.5C109.398 34.432 109.344 34.354 109.304 34.266C109.264 34.174 109.244 34.076 109.244 33.972C109.244 33.868 109.264 33.77 109.304 33.678C109.344 33.582 109.398 33.5 109.466 33.432C109.534 33.36 109.612 33.304 109.7 33.264C109.792 33.224 109.89 33.204 109.994 33.204C110.098 33.204 110.196 33.224 110.288 33.264C110.38 33.304 110.46 33.36 110.528 33.432C110.6 33.5 110.656 33.582 110.696 33.678C110.74 33.77 110.762 33.868 110.762 33.972ZM114.814 35.826C115.258 35.826 115.658 35.9 116.014 36.048C116.37 36.196 116.674 36.406 116.926 36.678C117.178 36.95 117.37 37.28 117.502 37.668C117.638 38.052 117.706 38.482 117.706 38.958C117.706 39.438 117.638 39.87 117.502 40.254C117.37 40.638 117.178 40.966 116.926 41.238C116.674 41.51 116.37 41.72 116.014 41.868C115.658 42.012 115.258 42.084 114.814 42.084C114.366 42.084 113.962 42.012 113.602 41.868C113.246 41.72 112.942 41.51 112.69 41.238C112.438 40.966 112.244 40.638 112.108 40.254C111.976 39.87 111.91 39.438 111.91 38.958C111.91 38.482 111.976 38.052 112.108 37.668C112.244 37.28 112.438 36.95 112.69 36.678C112.942 36.406 113.246 36.196 113.602 36.048C113.962 35.9 114.366 35.826 114.814 35.826ZM114.814 41.25C115.414 41.25 115.862 41.05 116.158 40.65C116.454 40.246 116.602 39.684 116.602 38.964C116.602 38.24 116.454 37.676 116.158 37.272C115.862 36.868 115.414 36.666 114.814 36.666C114.51 36.666 114.244 36.718 114.016 36.822C113.792 36.926 113.604 37.076 113.452 37.272C113.304 37.468 113.192 37.71 113.116 37.998C113.044 38.282 113.008 38.604 113.008 38.964C113.008 39.684 113.156 40.246 113.452 40.65C113.752 41.05 114.206 41.25 114.814 41.25ZM120.069 36.804C120.201 36.656 120.341 36.522 120.489 36.402C120.637 36.282 120.793 36.18 120.957 36.096C121.125 36.008 121.301 35.942 121.485 35.898C121.673 35.85 121.875 35.826 122.091 35.826C122.423 35.826 122.715 35.882 122.967 35.994C123.223 36.102 123.435 36.258 123.603 36.462C123.775 36.662 123.905 36.904 123.993 37.188C124.081 37.472 124.125 37.786 124.125 38.13V42H123.051V38.13C123.051 37.67 122.945 37.314 122.733 37.062C122.525 36.806 122.207 36.678 121.779 36.678C121.463 36.678 121.167 36.754 120.891 36.906C120.619 37.058 120.367 37.264 120.135 37.524V42H119.061V35.922H119.703C119.855 35.922 119.949 35.996 119.985 36.144L120.069 36.804ZM129.292 36.924C129.244 37.012 129.17 37.056 129.07 37.056C129.01 37.056 128.942 37.034 128.866 36.99C128.79 36.946 128.696 36.898 128.584 36.846C128.476 36.79 128.346 36.74 128.194 36.696C128.042 36.648 127.862 36.624 127.654 36.624C127.474 36.624 127.312 36.648 127.168 36.696C127.024 36.74 126.9 36.802 126.796 36.882C126.696 36.962 126.618 37.056 126.562 37.164C126.51 37.268 126.484 37.382 126.484 37.506C126.484 37.662 126.528 37.792 126.616 37.896C126.708 38 126.828 38.09 126.976 38.166C127.124 38.242 127.292 38.31 127.48 38.37C127.668 38.426 127.86 38.488 128.056 38.556C128.256 38.62 128.45 38.692 128.638 38.772C128.826 38.852 128.994 38.952 129.142 39.072C129.29 39.192 129.408 39.34 129.496 39.516C129.588 39.688 129.634 39.896 129.634 40.14C129.634 40.42 129.584 40.68 129.484 40.92C129.384 41.156 129.236 41.362 129.04 41.538C128.844 41.71 128.604 41.846 128.32 41.946C128.036 42.046 127.708 42.096 127.336 42.096C126.912 42.096 126.528 42.028 126.184 41.892C125.84 41.752 125.548 41.574 125.308 41.358L125.56 40.95C125.592 40.898 125.63 40.858 125.674 40.83C125.718 40.802 125.774 40.788 125.842 40.788C125.914 40.788 125.99 40.816 126.07 40.872C126.15 40.928 126.246 40.99 126.358 41.058C126.474 41.126 126.614 41.188 126.778 41.244C126.942 41.3 127.146 41.328 127.39 41.328C127.598 41.328 127.78 41.302 127.936 41.25C128.092 41.194 128.222 41.12 128.326 41.028C128.43 40.936 128.506 40.83 128.554 40.71C128.606 40.59 128.632 40.462 128.632 40.326C128.632 40.158 128.586 40.02 128.494 39.912C128.406 39.8 128.288 39.706 128.14 39.63C127.992 39.55 127.822 39.482 127.63 39.426C127.442 39.366 127.248 39.304 127.048 39.24C126.852 39.176 126.658 39.104 126.466 39.024C126.278 38.94 126.11 38.836 125.962 38.712C125.814 38.588 125.694 38.436 125.602 38.256C125.514 38.072 125.47 37.85 125.47 37.59C125.47 37.358 125.518 37.136 125.614 36.924C125.71 36.708 125.85 36.52 126.034 36.36C126.218 36.196 126.444 36.066 126.712 35.97C126.98 35.874 127.286 35.826 127.63 35.826C128.03 35.826 128.388 35.89 128.704 36.018C129.024 36.142 129.3 36.314 129.532 36.534L129.292 36.924Z" fill="white"/>
    <path d="M18.4347 74.0239V59.4785H27.7528V61.6873H21.0696V65.6361H27.1136V67.8449H21.0696V74.0239H18.4347ZM30.0398 74.0239V63.1148H32.6108V74.0239H30.0398ZM31.3324 61.5665C30.9252 61.5665 30.5748 61.4316 30.2812 61.1617C29.9877 60.8871 29.8409 60.558 29.8409 60.1745C29.8409 59.7862 29.9877 59.4572 30.2812 59.1873C30.5748 58.9127 30.9252 58.7753 31.3324 58.7753C31.7443 58.7753 32.0947 58.9127 32.3835 59.1873C32.6771 59.4572 32.8239 59.7862 32.8239 60.1745C32.8239 60.558 32.6771 60.8871 32.3835 61.1617C32.0947 61.4316 31.7443 61.5665 31.3324 61.5665ZM37.8256 67.6319V74.0239H35.2546V63.1148H37.712V64.9685H37.8398C38.0908 64.3577 38.4909 63.8724 39.0401 63.5126C39.5941 63.1527 40.2783 62.9728 41.0927 62.9728C41.8455 62.9728 42.5013 63.1338 43.06 63.4557C43.6235 63.7777 44.0591 64.2441 44.3668 64.8549C44.6793 65.4657 44.8332 66.2067 44.8285 67.0779V74.0239H42.2575V67.4756C42.2575 66.7465 42.0681 66.1759 41.6893 65.764C41.3152 65.3521 40.7968 65.1461 40.1339 65.1461C39.6841 65.1461 39.284 65.2455 38.9336 65.4444C38.5879 65.6385 38.3157 65.9202 38.1168 66.2896C37.9227 66.6589 37.8256 67.1063 37.8256 67.6319ZM47.4421 74.0239V63.1148H50.0131V74.0239H47.4421ZM48.7347 61.5665C48.3275 61.5665 47.9772 61.4316 47.6836 61.1617C47.39 60.8871 47.2433 60.558 47.2433 60.1745C47.2433 59.7862 47.39 59.4572 47.6836 59.1873C47.9772 58.9127 48.3275 58.7753 48.7347 58.7753C49.1467 58.7753 49.497 58.9127 49.7859 59.1873C50.0794 59.4572 50.2262 59.7862 50.2262 60.1745C50.2262 60.558 50.0794 60.8871 49.7859 61.1617C49.497 61.4316 49.1467 61.5665 48.7347 61.5665ZM61.2791 65.9984L58.9354 66.254C58.8691 66.0173 58.7531 65.7948 58.5874 65.5864C58.4264 65.3781 58.2086 65.21 57.9339 65.0822C57.6593 64.9543 57.3232 64.8904 56.9254 64.8904C56.3904 64.8904 55.9406 65.0064 55.576 65.2384C55.2161 65.4704 55.0386 65.7711 55.0433 66.1404C55.0386 66.4576 55.1546 66.7157 55.3913 66.9146C55.6328 67.1134 56.0305 67.2768 56.5845 67.4046L58.4453 67.8023C59.4775 68.0249 60.2446 68.3776 60.7464 68.8606C61.2531 69.3435 61.5088 69.9756 61.5135 70.7569C61.5088 71.4434 61.3075 72.0495 60.9098 72.5751C60.5168 73.0959 59.9699 73.5031 59.2692 73.7967C58.5684 74.0902 57.7635 74.237 56.8544 74.237C55.5192 74.237 54.4444 73.9576 53.63 73.3989C52.8156 72.8355 52.3303 72.0519 52.174 71.0481L54.6811 70.8066C54.7947 71.299 55.0362 71.6707 55.4055 71.9217C55.7749 72.1726 56.2554 72.2981 56.8473 72.2981C57.4581 72.2981 57.9482 72.1726 58.3175 71.9217C58.6915 71.6707 58.8786 71.3606 58.8786 70.9913C58.8786 70.6788 58.7578 70.4207 58.5163 70.2171C58.2796 70.0135 57.9103 69.8573 57.4084 69.7484L55.5476 69.3577C54.5012 69.1399 53.727 68.773 53.2251 68.2569C52.7232 67.736 52.4747 67.0779 52.4794 66.2824C52.4747 65.6101 52.657 65.0277 53.0263 64.5353C53.4003 64.0381 53.9188 63.6546 54.5817 63.3847C55.2493 63.1101 56.0187 62.9728 56.8899 62.9728C58.1683 62.9728 59.1745 63.245 59.9084 63.7896C60.647 64.3341 61.1039 65.0703 61.2791 65.9984ZM66.2045 67.6319V74.0239H63.6335V59.4785H66.1477V64.9685H66.2756C66.5313 64.353 66.9266 63.8677 67.4616 63.5126C68.0014 63.1527 68.688 62.9728 69.5213 62.9728C70.2789 62.9728 70.9394 63.1314 71.5028 63.4486C72.0663 63.7659 72.5019 64.2299 72.8097 64.8407C73.1222 65.4515 73.2784 66.1972 73.2784 67.0779V74.0239H70.7074V67.4756C70.7074 66.7417 70.518 66.1712 70.1392 65.764C69.7652 65.3521 69.2396 65.1461 68.5625 65.1461C68.108 65.1461 67.7008 65.2455 67.3409 65.4444C66.9858 65.6385 66.7064 65.9202 66.5028 66.2896C66.304 66.6589 66.2045 67.1063 66.2045 67.6319ZM82.4581 78.1148C82.1077 78.1148 81.7834 78.0864 81.4851 78.0296C81.1915 77.9775 80.9571 77.916 80.782 77.8449L81.3786 75.8421C81.7526 75.951 82.0864 76.0031 82.38 75.9984C82.6735 75.9936 82.9316 75.9013 83.1541 75.7214C83.3814 75.5462 83.5732 75.2526 83.7294 74.8407L83.9496 74.2512L79.9936 63.1148H82.7209L85.2351 71.3535H85.3487L87.87 63.1148H90.6044L86.2365 75.3449C86.0329 75.9226 85.763 76.4174 85.4268 76.8293C85.0907 77.246 84.6787 77.5632 84.1911 77.781C83.7081 78.0036 83.1304 78.1148 82.4581 78.1148ZM96.771 74.237C95.7056 74.237 94.7823 74.0026 94.0011 73.5339C93.2198 73.0651 92.6138 72.4093 92.1829 71.5665C91.7567 70.7237 91.5437 69.7389 91.5437 68.612C91.5437 67.4851 91.7567 66.4979 92.1829 65.6503C92.6138 64.8028 93.2198 64.1447 94.0011 63.6759C94.7823 63.2072 95.7056 62.9728 96.771 62.9728C97.8363 62.9728 98.7596 63.2072 99.5408 63.6759C100.322 64.1447 100.926 64.8028 101.352 65.6503C101.783 66.4979 101.998 67.4851 101.998 68.612C101.998 69.7389 101.783 70.7237 101.352 71.5665C100.926 72.4093 100.322 73.0651 99.5408 73.5339C98.7596 74.0026 97.8363 74.237 96.771 74.237ZM96.7852 72.1773C97.3628 72.1773 97.8458 72.0187 98.234 71.7015C98.6223 71.3795 98.9111 70.9486 99.1005 70.4089C99.2946 69.8691 99.3917 69.2678 99.3917 68.6049C99.3917 67.9373 99.2946 67.3336 99.1005 66.7938C98.9111 66.2493 98.6223 65.8161 98.234 65.4941C97.8458 65.1721 97.3628 65.0111 96.7852 65.0111C96.1933 65.0111 95.7009 65.1721 95.3079 65.4941C94.9196 65.8161 94.6284 66.2493 94.4343 66.7938C94.2449 67.3336 94.1502 67.9373 94.1502 68.6049C94.1502 69.2678 94.2449 69.8691 94.4343 70.4089C94.6284 70.9486 94.9196 71.3795 95.3079 71.7015C95.7009 72.0187 96.1933 72.1773 96.7852 72.1773ZM111.134 69.4359V63.1148H113.705V74.0239H111.212V72.085H111.098C110.852 72.6958 110.447 73.1953 109.884 73.5836C109.325 73.9718 108.636 74.166 107.817 74.166C107.102 74.166 106.47 74.0074 105.92 73.6901C105.376 73.3681 104.95 72.9018 104.642 72.291C104.334 71.6754 104.18 70.9321 104.18 70.0609V63.1148H106.751V69.6631C106.751 70.3544 106.941 70.9037 107.32 71.3109C107.698 71.7181 108.196 71.9217 108.811 71.9217C109.19 71.9217 109.557 71.8293 109.912 71.6447C110.267 71.46 110.558 71.1854 110.786 70.8208C111.018 70.4515 111.134 69.9898 111.134 69.4359ZM116.348 74.0239V63.1148H118.841V64.933H118.955C119.154 64.3033 119.495 63.818 119.978 63.4771C120.465 63.1314 121.022 62.9586 121.647 62.9586C121.789 62.9586 121.947 62.9657 122.123 62.9799C122.302 62.9894 122.452 63.0059 122.57 63.0296V65.3947C122.461 65.3568 122.288 65.3236 122.051 65.2952C121.819 65.2621 121.595 65.2455 121.377 65.2455C120.908 65.2455 120.487 65.3473 120.113 65.5509C119.743 65.7498 119.452 66.0268 119.239 66.3819C119.026 66.737 118.919 67.1466 118.919 67.6106V74.0239H116.348ZM134.069 74.237C132.975 74.237 132.03 74.0097 131.235 73.5552C130.444 73.0959 129.836 72.4472 129.409 71.6092C128.983 70.7663 128.77 69.7744 128.77 68.6333C128.77 67.5111 128.983 66.5263 129.409 65.6788C129.84 64.8265 130.442 64.1636 131.213 63.6901C131.985 63.2119 132.892 62.9728 133.934 62.9728C134.606 62.9728 135.24 63.0817 135.837 63.2995C136.438 63.5126 136.969 63.844 137.428 64.2938C137.892 64.7436 138.257 65.3165 138.522 66.0126C138.787 66.7038 138.919 67.5277 138.919 68.4842V69.2725H129.978V67.5396H136.455C136.45 67.0471 136.344 66.6092 136.135 66.2256C135.927 65.8374 135.636 65.532 135.262 65.3094C134.892 65.0869 134.462 64.9756 133.969 64.9756C133.444 64.9756 132.982 65.1035 132.584 65.3592C132.186 65.6101 131.876 65.9415 131.654 66.3535C131.436 66.7607 131.325 67.2081 131.32 67.6958V69.2086C131.32 69.8431 131.436 70.3876 131.668 70.8421C131.9 71.2919 132.224 71.6376 132.641 71.879C133.058 72.1158 133.545 72.2342 134.104 72.2342C134.478 72.2342 134.817 72.1821 135.12 72.0779C135.423 71.969 135.685 71.8104 135.908 71.6021C136.131 71.3937 136.299 71.1357 136.412 70.8279L138.813 71.0978C138.661 71.7323 138.373 72.2862 137.946 72.7597C137.525 73.2285 136.985 73.5931 136.327 73.8535C135.669 74.1092 134.916 74.237 134.069 74.237ZM143.665 67.6319V74.0239H141.094V63.1148H143.552V64.9685H143.68C143.931 64.3577 144.331 63.8724 144.88 63.5126C145.434 63.1527 146.118 62.9728 146.933 62.9728C147.685 62.9728 148.341 63.1338 148.9 63.4557C149.463 63.7777 149.899 64.2441 150.207 64.8549C150.519 65.4657 150.673 66.2067 150.668 67.0779V74.0239H148.097V67.4756C148.097 66.7465 147.908 66.1759 147.529 65.764C147.155 65.3521 146.637 65.1461 145.974 65.1461C145.524 65.1461 145.124 65.2455 144.773 65.4444C144.428 65.6385 144.156 65.9202 143.957 66.2896C143.763 66.6589 143.665 67.1063 143.665 67.6319ZM157.33 74.2157C156.473 74.2157 155.706 73.9955 155.029 73.5552C154.352 73.1148 153.817 72.4756 153.424 71.6376C153.031 70.7995 152.835 69.7815 152.835 68.5836C152.835 67.3715 153.033 66.3487 153.431 65.5154C153.834 64.6773 154.376 64.0452 155.058 63.6191C155.739 63.1882 156.499 62.9728 157.337 62.9728C157.977 62.9728 158.502 63.0817 158.914 63.2995C159.326 63.5126 159.653 63.7706 159.894 64.0736C160.136 64.3719 160.323 64.6537 160.455 64.9188H160.562V59.4785H163.14V74.0239H160.612V72.3052H160.455C160.323 72.5703 160.131 72.8521 159.88 73.1503C159.629 73.4439 159.298 73.6949 158.886 73.9032C158.474 74.1115 157.955 74.2157 157.33 74.2157ZM158.048 72.1063C158.592 72.1063 159.056 71.9595 159.44 71.666C159.823 71.3677 160.114 70.9534 160.313 70.4231C160.512 69.8928 160.612 69.2749 160.612 68.5694C160.612 67.8639 160.512 67.2507 160.313 66.7299C160.119 66.2091 159.83 65.8042 159.447 65.5154C159.068 65.2266 158.602 65.0822 158.048 65.0822C157.475 65.0822 156.996 65.2313 156.613 65.5296C156.229 65.8279 155.941 66.2398 155.746 66.7654C155.552 67.291 155.455 67.8923 155.455 68.5694C155.455 69.2512 155.552 69.8596 155.746 70.3947C155.945 70.925 156.237 71.344 156.62 71.6518C157.008 71.9548 157.484 72.1063 158.048 72.1063ZM175.599 74.237C174.534 74.237 173.61 74.0026 172.829 73.5339C172.048 73.0651 171.442 72.4093 171.011 71.5665C170.585 70.7237 170.372 69.7389 170.372 68.612C170.372 67.4851 170.585 66.4979 171.011 65.6503C171.442 64.8028 172.048 64.1447 172.829 63.6759C173.61 63.2072 174.534 62.9728 175.599 62.9728C176.664 62.9728 177.588 63.2072 178.369 63.6759C179.15 64.1447 179.754 64.8028 180.18 65.6503C180.611 66.4979 180.826 67.4851 180.826 68.612C180.826 69.7389 180.611 70.7237 180.18 71.5665C179.754 72.4093 179.15 73.0651 178.369 73.5339C177.588 74.0026 176.664 74.237 175.599 74.237ZM175.613 72.1773C176.191 72.1773 176.674 72.0187 177.062 71.7015C177.45 71.3795 177.739 70.9486 177.929 70.4089C178.123 69.8691 178.22 69.2678 178.22 68.6049C178.22 67.9373 178.123 67.3336 177.929 66.7938C177.739 66.2493 177.45 65.8161 177.062 65.4941C176.674 65.1721 176.191 65.0111 175.613 65.0111C175.021 65.0111 174.529 65.1721 174.136 65.4941C173.748 65.8161 173.457 66.2493 173.262 66.7938C173.073 67.3336 172.978 67.9373 172.978 68.6049C172.978 69.2678 173.073 69.8691 173.262 70.4089C173.457 70.9486 173.748 71.3795 174.136 71.7015C174.529 72.0187 175.021 72.1773 175.613 72.1773ZM188.534 63.1148V65.1035H182.085V63.1148H188.534ZM183.697 74.0239V62.085C183.697 61.3511 183.849 60.7403 184.152 60.2526C184.46 59.7649 184.872 59.4003 185.388 59.1589C185.904 58.9174 186.477 58.7967 187.107 58.7967C187.552 58.7967 187.947 58.8322 188.293 58.9032C188.638 58.9742 188.894 59.0381 189.06 59.0949L188.548 61.0836C188.439 61.0504 188.302 61.0173 188.136 60.9842C187.971 60.9463 187.786 60.9273 187.582 60.9273C187.104 60.9273 186.766 61.0433 186.567 61.2753C186.373 61.5026 186.276 61.8293 186.276 62.2555V74.0239H183.697ZM197.107 78.1148C196.756 78.1148 196.432 78.0864 196.134 78.0296C195.84 77.9775 195.606 77.916 195.43 77.8449L196.027 75.8421C196.401 75.951 196.735 76.0031 197.028 75.9984C197.322 75.9936 197.58 75.9013 197.803 75.7214C198.03 75.5462 198.222 75.2526 198.378 74.8407L198.598 74.2512L194.642 63.1148H197.369L199.884 71.3535H199.997L202.518 63.1148H205.253L200.885 75.3449C200.681 75.9226 200.411 76.4174 200.075 76.8293C199.739 77.246 199.327 77.5632 198.839 77.781C198.357 78.0036 197.779 78.1148 197.107 78.1148ZM211.49 74.237C210.397 74.237 209.452 74.0097 208.657 73.5552C207.866 73.0959 207.257 72.4472 206.831 71.6092C206.405 70.7663 206.192 69.7744 206.192 68.6333C206.192 67.5111 206.405 66.5263 206.831 65.6788C207.262 64.8265 207.864 64.1636 208.635 63.6901C209.407 63.2119 210.314 62.9728 211.355 62.9728C212.028 62.9728 212.662 63.0817 213.259 63.2995C213.86 63.5126 214.391 63.844 214.85 64.2938C215.314 64.7436 215.678 65.3165 215.944 66.0126C216.209 66.7038 216.341 67.5277 216.341 68.4842V69.2725H207.4V67.5396H213.877C213.872 67.0471 213.766 66.6092 213.557 66.2256C213.349 65.8374 213.058 65.532 212.684 65.3094C212.314 65.0869 211.883 64.9756 211.391 64.9756C210.865 64.9756 210.404 65.1035 210.006 65.3592C209.608 65.6101 209.298 65.9415 209.076 66.3535C208.858 66.7607 208.747 67.2081 208.742 67.6958V69.2086C208.742 69.8431 208.858 70.3876 209.09 70.8421C209.322 71.2919 209.646 71.6376 210.063 71.879C210.48 72.1158 210.967 72.2342 211.526 72.2342C211.9 72.2342 212.239 72.1821 212.542 72.0779C212.845 71.969 213.107 71.8104 213.33 71.6021C213.552 71.3937 213.721 71.1357 213.834 70.8279L216.235 71.0978C216.083 71.7323 215.794 72.2862 215.368 72.7597C214.947 73.2285 214.407 73.5931 213.749 73.8535C213.091 74.1092 212.338 74.237 211.49 74.237ZM221.656 74.2441C220.964 74.2441 220.342 74.121 219.788 73.8748C219.238 73.6238 218.803 73.2545 218.481 72.7668C218.164 72.2791 218.005 71.6778 218.005 70.9628C218.005 70.3473 218.119 69.8383 218.346 69.4359C218.573 69.0334 218.883 68.7114 219.276 68.4699C219.669 68.2285 220.112 68.0462 220.604 67.9231C221.102 67.7952 221.615 67.7029 222.146 67.6461C222.785 67.5798 223.303 67.5206 223.701 67.4685C224.099 67.4117 224.388 67.3265 224.567 67.2128C224.752 67.0945 224.844 66.9122 224.844 66.666V66.6234C224.844 66.0883 224.686 65.674 224.369 65.3805C224.051 65.0869 223.594 64.9401 222.998 64.9401C222.368 64.9401 221.869 65.0774 221.499 65.3521C221.135 65.6267 220.888 65.951 220.761 66.3251L218.36 65.9842C218.549 65.3213 218.862 64.7673 219.298 64.3222C219.733 63.8724 220.266 63.5362 220.896 63.3137C221.525 63.0864 222.221 62.9728 222.984 62.9728C223.509 62.9728 224.032 63.0343 224.553 63.1574C225.074 63.2806 225.55 63.4842 225.981 63.7682C226.412 64.0476 226.757 64.4288 227.018 64.9117C227.283 65.3947 227.415 65.9984 227.415 66.7228V74.0239H224.944V72.5253H224.859C224.702 72.8284 224.482 73.1125 224.198 73.3776C223.919 73.638 223.566 73.8487 223.14 74.0097C222.719 74.166 222.224 74.2441 221.656 74.2441ZM222.323 72.3549C222.839 72.3549 223.287 72.2531 223.665 72.0495C224.044 71.8412 224.335 71.5665 224.539 71.2256C224.747 70.8847 224.852 70.513 224.852 70.1106V68.8251C224.771 68.8913 224.634 68.9529 224.44 69.0097C224.25 69.0665 224.037 69.1163 223.8 69.1589C223.564 69.2015 223.329 69.2394 223.097 69.2725C222.865 69.3056 222.664 69.3341 222.494 69.3577C222.11 69.4098 221.767 69.495 221.464 69.6134C221.161 69.7318 220.922 69.8975 220.746 70.1106C220.571 70.3189 220.484 70.5888 220.484 70.9202C220.484 71.3937 220.656 71.7512 221.002 71.9927C221.348 72.2342 221.788 72.3549 222.323 72.3549ZM230.001 74.0239V63.1148H232.494V64.933H232.607C232.806 64.3033 233.147 63.818 233.63 63.4771C234.118 63.1314 234.674 62.9586 235.299 62.9586C235.441 62.9586 235.6 62.9657 235.775 62.9799C235.955 62.9894 236.104 63.0059 236.222 63.0296V65.3947C236.113 65.3568 235.941 65.3236 235.704 65.2952C235.472 65.2621 235.247 65.2455 235.029 65.2455C234.56 65.2455 234.139 65.3473 233.765 65.5509C233.396 65.7498 233.104 66.0268 232.891 66.3819C232.678 66.737 232.572 67.1466 232.572 67.6106V74.0239H230.001ZM246.066 74.0239L241.961 59.4785H244.795L247.415 70.1674H247.55L250.349 59.4785H252.927L255.732 70.1745H255.86L258.481 59.4785H261.315L257.21 74.0239H254.61L251.698 63.818H251.585L248.665 74.0239H246.066ZM262.344 74.0239V63.1148H264.837V64.933H264.951C265.15 64.3033 265.491 63.818 265.974 63.4771C266.461 63.1314 267.018 62.9586 267.643 62.9586C267.785 62.9586 267.943 62.9657 268.119 62.9799C268.299 62.9894 268.448 63.0059 268.566 63.0296V65.3947C268.457 65.3568 268.284 65.3236 268.048 65.2952C267.816 65.2621 267.591 65.2455 267.373 65.2455C266.904 65.2455 266.483 65.3473 266.109 65.5509C265.739 65.7498 265.448 66.0268 265.235 66.3819C265.022 66.737 264.915 67.1466 264.915 67.6106V74.0239H262.344ZM273.218 74.2441C272.527 74.2441 271.904 74.121 271.35 73.8748C270.801 73.6238 270.365 73.2545 270.043 72.7668C269.726 72.2791 269.567 71.6778 269.567 70.9628C269.567 70.3473 269.681 69.8383 269.908 69.4359C270.136 69.0334 270.446 68.7114 270.839 68.4699C271.232 68.2285 271.674 68.0462 272.167 67.9231C272.664 67.7952 273.178 67.7029 273.708 67.6461C274.347 67.5798 274.866 67.5206 275.263 67.4685C275.661 67.4117 275.95 67.3265 276.13 67.2128C276.315 67.0945 276.407 66.9122 276.407 66.666V66.6234C276.407 66.0883 276.248 65.674 275.931 65.3805C275.614 65.0869 275.157 64.9401 274.56 64.9401C273.931 64.9401 273.431 65.0774 273.062 65.3521C272.697 65.6267 272.451 65.951 272.323 66.3251L269.923 65.9842C270.112 65.3213 270.424 64.7673 270.86 64.3222C271.296 63.8724 271.828 63.5362 272.458 63.3137C273.088 63.0864 273.784 62.9728 274.546 62.9728C275.072 62.9728 275.595 63.0343 276.116 63.1574C276.637 63.2806 277.112 63.4842 277.543 63.7682C277.974 64.0476 278.32 64.4288 278.58 64.9117C278.845 65.3947 278.978 65.9984 278.978 66.7228V74.0239H276.506V72.5253H276.421C276.265 72.8284 276.045 73.1125 275.761 73.3776C275.481 73.638 275.129 73.8487 274.702 74.0097C274.281 74.166 273.786 74.2441 273.218 74.2441ZM273.886 72.3549C274.402 72.3549 274.849 72.2531 275.228 72.0495C275.607 71.8412 275.898 71.5665 276.102 71.2256C276.31 70.8847 276.414 70.513 276.414 70.1106V68.8251C276.334 68.8913 276.196 68.9529 276.002 69.0097C275.813 69.0665 275.6 69.1163 275.363 69.1589C275.126 69.2015 274.892 69.2394 274.66 69.2725C274.428 69.3056 274.227 69.3341 274.056 69.3577C273.673 69.4098 273.329 69.495 273.026 69.6134C272.723 69.7318 272.484 69.8975 272.309 70.1106C272.134 70.3189 272.046 70.5888 272.046 70.9202C272.046 71.3937 272.219 71.7512 272.565 71.9927C272.91 72.2342 273.351 72.3549 273.886 72.3549ZM281.563 78.1148V63.1148H284.092V64.9188H284.241C284.373 64.6537 284.56 64.3719 284.802 64.0736C285.043 63.7706 285.37 63.5126 285.782 63.2995C286.194 63.0817 286.719 62.9728 287.359 62.9728C288.201 62.9728 288.961 63.1882 289.638 63.6191C290.32 64.0452 290.86 64.6773 291.258 65.5154C291.66 66.3487 291.862 67.3715 291.862 68.5836C291.862 69.7815 291.665 70.7995 291.272 71.6376C290.879 72.4756 290.344 73.1148 289.667 73.5552C288.99 73.9955 288.223 74.2157 287.366 74.2157C286.741 74.2157 286.222 74.1115 285.81 73.9032C285.398 73.6949 285.067 73.4439 284.816 73.1503C284.57 72.8521 284.378 72.5703 284.241 72.3052H284.134V78.1148H281.563ZM284.085 68.5694C284.085 69.2749 284.184 69.8928 284.383 70.4231C284.586 70.9534 284.878 71.3677 285.256 71.666C285.64 71.9595 286.104 72.1063 286.648 72.1063C287.217 72.1063 287.692 71.9548 288.076 71.6518C288.46 71.344 288.748 70.925 288.942 70.3947C289.141 69.8596 289.241 69.2512 289.241 68.5694C289.241 67.8923 289.144 67.291 288.95 66.7654C288.755 66.2398 288.467 65.8279 288.083 65.5296C287.7 65.2313 287.221 65.0822 286.648 65.0822C286.099 65.0822 285.633 65.2266 285.249 65.5154C284.866 65.8042 284.575 66.2091 284.376 66.7299C284.182 67.2507 284.085 67.8639 284.085 68.5694ZM300.675 66.9074V69.0239H294.127V66.9074H300.675ZM312.662 59.4785H315.297V68.9813C315.297 70.023 315.051 70.9392 314.559 71.7299C314.071 72.5206 313.384 73.1385 312.499 73.5836C311.614 74.0239 310.579 74.2441 309.395 74.2441C308.207 74.2441 307.17 74.0239 306.284 73.5836C305.399 73.1385 304.712 72.5206 304.225 71.7299C303.737 70.9392 303.493 70.023 303.493 68.9813V59.4785H306.128V68.7611C306.128 69.3672 306.261 69.907 306.526 70.3805C306.796 70.8539 307.175 71.2256 307.662 71.4955C308.15 71.7607 308.728 71.8932 309.395 71.8932C310.063 71.8932 310.641 71.7607 311.128 71.4955C311.621 71.2256 311.999 70.8539 312.265 70.3805C312.53 69.907 312.662 69.3672 312.662 68.7611V59.4785ZM318.048 78.1148V63.1148H320.576V64.9188H320.725C320.858 64.6537 321.045 64.3719 321.286 64.0736C321.528 63.7706 321.854 63.5126 322.266 63.2995C322.678 63.0817 323.204 62.9728 323.843 62.9728C324.686 62.9728 325.446 63.1882 326.123 63.6191C326.805 64.0452 327.344 64.6773 327.742 65.5154C328.145 66.3487 328.346 67.3715 328.346 68.5836C328.346 69.7815 328.149 70.7995 327.756 71.6376C327.363 72.4756 326.828 73.1148 326.151 73.5552C325.474 73.9955 324.707 74.2157 323.85 74.2157C323.225 74.2157 322.707 74.1115 322.295 73.9032C321.883 73.6949 321.551 73.4439 321.3 73.1503C321.054 72.8521 320.862 72.5703 320.725 72.3052H320.619V78.1148H318.048ZM320.569 68.5694C320.569 69.2749 320.668 69.8928 320.867 70.4231C321.071 70.9534 321.362 71.3677 321.741 71.666C322.124 71.9595 322.588 72.1063 323.133 72.1063C323.701 72.1063 324.177 71.9548 324.56 71.6518C324.944 71.344 325.233 70.925 325.427 70.3947C325.626 69.8596 325.725 69.2512 325.725 68.5694C325.725 67.8923 325.628 67.291 325.434 66.7654C325.24 66.2398 324.951 65.8279 324.567 65.5296C324.184 65.2313 323.706 65.0822 323.133 65.0822C322.584 65.0822 322.117 65.2266 321.734 65.5154C321.35 65.8042 321.059 66.2091 320.86 66.7299C320.666 67.2507 320.569 67.8639 320.569 68.5694Z" fill="white"/>
    <path d="M321.822 100.158C322.134 99.8179 322.558 99.627 323 99.627C323.442 99.627 323.866 99.8179 324.178 100.158L331.678 108.318C331.991 108.658 332.166 109.119 332.166 109.6C332.166 110.081 331.991 110.542 331.678 110.882L324.178 119.042C323.864 119.372 323.443 119.555 323.006 119.551C322.569 119.547 322.151 119.356 321.842 119.02C321.533 118.684 321.358 118.229 321.354 117.753C321.35 117.278 321.518 116.82 321.822 116.478L326.333 111.413H310.5C310.058 111.413 309.634 111.222 309.321 110.882C309.009 110.542 308.833 110.081 308.833 109.6C308.833 109.119 309.009 108.658 309.321 108.318C309.634 107.978 310.058 107.787 310.5 107.787H326.333L321.822 102.722C321.509 102.382 321.334 101.921 321.334 101.44C321.334 100.959 321.509 100.498 321.822 100.158Z" fill="white"/>
</svg>
